<?xml version="1.0" encoding="utf-8"?>
<!-- Generator: Adobe Illustrator 25.2.3, SVG Export Plug-In . SVG Version: 6.00 Build 0)  -->
<svg version="1.1" id="svg" xmlns="http://www.w3.org/2000/svg" xmlns:xlink="http://www.w3.org/1999/xlink" x="0px" y="0px"
	 viewBox="0 0 400 60.4" style="enable-background:new 0 0 400 60.4;" xml:space="preserve">
<style type="text/css">
	.st0{fill-rule:evenodd;clip-rule:evenodd;fill:#FFFFFF;}
</style>
<g id="svgg">
	<path id="path0" class="st0" d="M28.6,7.7C29,7.9,29.4,8,29.6,8c0.4,0,0.4,0-0.1-0.2c-0.3-0.1-0.8-0.2-1-0.2
		C28.2,7.5,28.3,7.6,28.6,7.7 M20.8,8c0.2,0,0.5,0,0.7,0c0.2,0,0-0.1-0.4-0.1C20.7,7.9,20.6,7.9,20.8,8 M7.4,31.2c0,0.7,0,1,0.1,0.6
		c0-0.3,0-0.9,0-1.2C7.4,30.2,7.4,30.5,7.4,31.2 M48.8,33.3c0,0.4,0,0.6,0.1,0.6c0.1-0.1,0.1-0.4,0.1-0.7
		C48.9,32.6,48.9,32.6,48.8,33.3 M42.9,33.7c0,0.4,0,0.6,0.1,0.4c0-0.2,0-0.5,0-0.8C42.9,33.1,42.9,33.3,42.9,33.7 M3.2,40
		c0.1,0.3,0.3,0.6,0.3,0.6c0.1,0.1,0.1-0.1,0-0.4C3.2,39.5,3,39.3,3.2,40 M28.1,48.8c0.2,0,0.5,0,0.7,0c0.2,0,0-0.1-0.4-0.1
		C28,48.7,27.9,48.7,28.1,48.8 M240.9,54.2l-0.5,0.5L240.9,54.2c0.6-0.4,0.7-0.5,0.5-0.5C241.4,53.7,241.2,53.9,240.9,54.2 M22,54.7
		c0.1,0.1,0.3,0.1,0.5,0.1c0.3-0.1,0.3-0.1-0.2-0.2C22,54.6,21.9,54.6,22,54.7"/>
	<path id="path1" class="st0" d="M22.1,7.6c-0.3,0-0.5,0.1-0.5,0.2c0,0.1-0.3,0.2-0.6,0.2c-1.8,0-7.7,2.2-8.5,3.3
		c-0.1,0.1-0.2,0.2-0.3,0.2c-0.3,0-2.6,1.9-3.7,3c-2.4,2.4-4.3,5.4-5.7,9.1C2.7,24,2.2,26,2,27.1c-0.5,2.6,0,9.5,0.9,11.8
		c1.6,4.3,4,7.6,7.3,10.5c1.6,1.4,5.3,3.6,6.6,3.8c0.3,0.1,0.7,0.2,0.9,0.3c0.2,0.1,0.5,0.2,0.7,0.2c0.2,0,0.4,0.1,0.5,0.1
		c0,0.1,0.6,0.2,1.2,0.3c0.6,0.1,1.5,0.2,2,0.4c1.2,0.3,5.1,0.3,6.3,0c0.5-0.1,1.4-0.3,2-0.4c0.6-0.1,1.1-0.2,1.2-0.3
		c0.1-0.1,0.3-0.1,0.6-0.1c0.3,0,0.6-0.1,0.7-0.2c0.1-0.1,0.5-0.3,0.8-0.3c0.6-0.1,0.8-0.2,1.6-0.6c0.2-0.1,0.8-0.4,1.2-0.6
		c0.7-0.3,2.8-1.7,3-1.9c0-0.1,0.4-0.3,0.7-0.6c1.6-1.2,3.8-3.6,5-5.5c1.3-2,2.5-4.5,2.9-6.2c0-0.2,0.2-0.5,0.2-0.7
		c0.1-0.2,0.2-1,0.3-1.8c0.1-0.8,0.2-1.8,0.3-2.2c0.2-1.1,0.2-3.3,0-4.2c-0.1-0.4-0.2-1.4-0.3-2.1c-0.1-0.7-0.2-1.5-0.3-1.7
		c-0.1-0.2-0.2-0.5-0.2-0.6c-0.1-0.4-0.6-0.4-0.9,0.2c-0.2,0.3-1,1.4-1.9,2.6c-2,2.8-1.9,2.5-2.1,4.7c-0.3,4.5-2.1,8.8-5.2,11.8
		c-0.8,0.7-2.7,2.3-2.8,2.3c-0.1,0-0.4,0.2-0.7,0.4c-0.3,0.2-0.6,0.4-0.7,0.4c-0.1,0-0.7,0.3-1.4,0.6c-0.7,0.3-1.3,0.6-1.5,0.6
		c-0.1,0-0.4,0.1-0.6,0.1c-0.6,0.2-1.6,0.5-2.9,0.7c-0.7,0.1-1.3,0.3-1.3,0.3c-0.3,0.5-6.4-0.3-6.4-0.9c0-0.1-0.2-0.3-0.5-0.4
		s-0.8-0.4-1.2-0.5c-0.4-0.2-0.9-0.3-1.2-0.3c-0.9,0-4.3-2.4-4.2-3.1c0-0.2-0.3-0.7-0.8-1.2c-0.5-0.5-0.9-1-0.9-1.1
		c0-0.1-0.1-0.1-0.3-0.1c-0.9,0-2.7-4-2.8-6.2c0-0.6-0.1-1.8-0.3-2.7c-0.2-2,0.2-6.6,0.7-6.9c0.1,0,0.1-0.3,0.1-0.5
		c0-0.2,0.1-0.4,0.2-0.5c0.1-0.1,0.2-0.4,0.3-0.8c0.1-0.4,0.2-0.7,0.3-0.7c0.1,0,0.3-0.3,0.5-0.7c0.8-1.7,3-4.4,4.7-5.7
		c0.6-0.4,1.2-0.9,1.3-1c0.2-0.1,0.7-0.4,1.2-0.7c0.5-0.2,0.9-0.5,1-0.6c0.1-0.1,0.3-0.2,0.6-0.3c0.3-0.1,0.6-0.2,0.7-0.2
		c0.1-0.1,0.4-0.2,0.6-0.2c0.2-0.1,0.7-0.2,1.1-0.3c2.2-0.6,6.8-0.6,8.9,0c0.3,0.1,0.8,0.2,1,0.3c0.2,0.1,0.5,0.2,0.6,0.2
		c0.1,0.1,0.4,0.2,0.8,0.2c0.3,0.1,0.7,0.2,0.8,0.3c0.1,0.1,0.4,0.3,0.7,0.4c0.6,0.3,2.8,1.7,2.9,1.9c0.2,0.3,1.2,1,1.4,1
		c0.1,0,0.8-0.9,1.6-1.9c0.8-1.1,1.4-2,1.5-2c0.4-0.2,0.1-0.7-0.6-1.2c-0.4-0.3-0.9-0.6-1-0.7c-0.4-0.4-2.6-1.8-4-2.4
		c-1.4-0.7-1.7-0.8-2.6-1.2C32.2,8.5,30.1,8,29.6,8c-0.2,0-0.7-0.1-1-0.3C28,7.5,23.6,7.4,22.1,7.6 M71.9,14.4
		c-0.3,0-0.7,0.1-0.8,0.2c-0.2,0.1-0.9,0.3-1.6,0.5c-1.1,0.3-3,1.2-3.8,1.9c-0.9,0.7-3.6,3.5-4,4.2c-0.3,0.5-0.6,0.9-0.7,1
		c-0.1,0.1-0.3,0.5-0.5,0.9c-0.2,0.4-0.4,1-0.6,1.4c-1.2,2.6-1.2,11.5,0,12.4c0.1,0,0.3,0.5,0.5,1.1c0.2,0.5,0.5,1.2,0.7,1.3
		c0.2,0.2,0.3,0.4,0.3,0.5c0,0.2,1.3,1.9,2.2,2.9c0.7,0.7,2.7,2.4,3,2.4c0.1,0,0.4,0.1,0.6,0.3c0.2,0.2,1,0.5,1.6,0.7
		c0.6,0.2,1.3,0.4,1.4,0.5c1.2,0.7,8.2,0.7,9.7,0c0.2-0.1,0.7-0.3,1.2-0.4c2.7-0.8,6.3-3.7,7.6-6.1c0.2-0.4,0.5-0.8,0.5-0.8
		c0.2-0.1,0.8-1.5,0.8-1.7c0-0.1-0.5-0.4-1.1-0.7c-0.6-0.3-1.2-0.6-1.2-0.7c-0.1-0.2-1-0.5-1.2-0.5c-0.1,0-0.3,0.2-0.4,0.4
		C83.8,40.7,80,43,75.1,43c-2.2,0-4.9-0.5-5.2-1c0-0.1-0.4-0.3-0.8-0.5c-1-0.5-3.3-2.9-3.8-3.9c-0.2-0.5-0.4-0.9-0.5-0.9
		c-0.2-0.1-0.8-2-0.9-3c-0.1-0.5-0.2-0.9-0.3-1c-0.1,0-0.1-0.4-0.1-0.7v-0.7h14h14l0-1c0-1.2-0.4-4.3-0.6-4.5
		c-0.1-0.1-0.3-0.7-0.5-1.4c-0.2-0.7-0.5-1.3-0.6-1.4c-0.1-0.1-0.3-0.5-0.5-0.9c-1.3-2.7-5.7-6.2-8.9-7c-0.6-0.2-1.2-0.4-1.3-0.5
		C78.9,14.4,72.9,14.3,71.9,14.4 M111.6,14.4c-0.3,0-0.5,0.1-0.6,0.2c0,0.1-0.5,0.2-0.9,0.3c-0.8,0.2-1.4,0.5-2.7,1.2
		c-1.1,0.6-3.4,2.5-3.9,3.4c-0.5,0.8-0.6,0.5-0.6-2v-2.4h-2.3h-2.2l0,15.6l0,15.6l2.2,0l2.2,0l0.1-9.1c0-6.4,0.1-9.2,0.2-9.5
		c0.1-0.2,0.3-0.9,0.5-1.6c0.5-2.4,2.9-5.5,4.9-6.5c0.3-0.1,0.6-0.3,0.7-0.5c0.9-0.8,5-1.1,7.1-0.6c2.2,0.6,4,2.5,4.6,4.7
		c0.1,0.4,0.3,0.9,0.3,0.9c0.3,0.2,0.5,4.6,0.5,13.1l0,9l2.1,0l2.1,0l0-10c0-5.5,0-10.1-0.1-10.2c-0.1-0.1-0.2-0.8-0.3-1.4
		c-0.1-1.5-0.7-3.9-0.9-4c-0.1,0-0.2-0.1-0.2-0.3c0-1.5-3.6-4.9-6-5.6c-0.5-0.1-1-0.3-1.1-0.4C117.3,14.4,112.5,14.3,111.6,14.4
		 M145.9,14.4c-0.3,0-0.5,0.1-0.5,0.2c0,0.1-0.1,0.2-0.3,0.2c-0.4,0-3.1,0.8-3.1,1c0,0.1-0.5,0.3-1.1,0.6c-0.6,0.3-1.1,0.5-1.1,0.6
		c0,0.1-0.3,0.3-0.6,0.5c-0.6,0.3-2.8,2.5-3.4,3.4c-0.7,0.9-1.2,1.8-1.6,2.7c-0.2,0.5-0.5,1.2-0.6,1.4c-0.9,2-1.1,7.1-0.4,9.9
		c0.2,0.8,0.4,1.5,0.5,1.5s0.2,0.3,0.3,0.7c0.2,0.8,1.4,2.7,2,3.3c0.2,0.2,0.4,0.5,0.6,0.7c0.2,0.3,0.7,0.7,2.3,2.1
		c0.6,0.5,3.2,2,3.8,2.1c0.3,0.1,0.6,0.2,0.6,0.3c0.6,1,8.9,1,11,0.1c0.3-0.1,1-0.4,1.6-0.7c0.6-0.2,1.1-0.5,1.2-0.6
		c0-0.1,0.4-0.3,0.7-0.5c0.8-0.5,1.2-0.8,2.5-2l1.1-1l-0.1,2.4c-0.1,1.3-0.2,2.4-0.3,2.4c-0.1,0-0.1,0.2-0.1,0.5
		c0,2.8-2.1,5.6-5.4,7.1c-4,1.8-11.6,1.3-14.3-1c-1-0.8-2-1.9-2.4-2.4c-0.2-0.3-0.5-0.7-0.6-0.8c-0.1-0.1-0.2-0.3-0.2-0.4
		c0-0.1-1-0.2-2.4-0.2c-1.3,0-2.4,0-2.4,0.1c0,0.2,0.5,1.3,0.6,1.4c0.1,0,0.3,0.5,0.6,1c0.3,0.5,0.5,1,0.6,1c0.1,0,0.2,0.2,0.3,0.4
		c0.3,0.6,2.5,2.9,3.1,3.1c0.3,0.1,0.5,0.2,0.5,0.3c0,0.2,3.2,1.7,4.2,1.9c0.5,0.1,1,0.3,1.1,0.3c0.8,0.7,9.3,0.7,10.6,0
		c0.2-0.1,0.8-0.3,1.5-0.5c0.7-0.2,1.3-0.4,1.3-0.5c0-0.1,0.5-0.3,0.9-0.5c1.4-0.6,3.8-2.7,4.5-3.9c0.2-0.3,0.5-0.7,0.6-0.8
		c0.1-0.1,0.4-0.6,0.6-1.2c0.2-0.5,0.4-1,0.5-1.1c0.2-0.2,0.4-1.3,0.7-2.7c0.1-0.7,0.2-5.8,0.3-16.4l0.1-15.4h-2.1h-2.1l0,2.5l0,2.5
		l-1.3-1.2c-1.3-1.3-2.4-2.1-3.3-2.6c-0.3-0.2-0.6-0.4-0.7-0.4c-0.1-0.2-2.6-1-3-1c-0.2,0-0.3-0.1-0.4-0.2
		C152.4,14.4,147.1,14.3,145.9,14.4 M185.5,14.4c-0.3,0-0.6,0.1-0.6,0.2c0,0.1-0.1,0.2-0.3,0.2c-0.4,0-3,0.8-3,1
		c0,0.1-0.5,0.3-1,0.6c-0.5,0.3-1,0.5-1,0.6c0,0.1-0.2,0.2-0.3,0.2c-0.3,0.1-2.8,2.5-3.5,3.4c-0.6,0.7-1.5,2.2-1.8,3
		c-0.2,0.5-0.5,1.1-0.6,1.4c-1.1,2.4-1.1,9.1,0,11.6c1.1,2.4,1.9,3.9,2.3,4.2c0.2,0.1,0.3,0.2,0.3,0.4c0,0.2,2.1,2.4,3.2,3.1
		c1.5,1.1,3.9,2.3,4.7,2.3c0.2,0,0.3,0.1,0.3,0.1c0,0.7,8.1,0.7,8.9,0c0.1-0.1,0.7-0.3,1.4-0.5c0.7-0.2,1.2-0.4,1.3-0.5
		c0.1-0.1,0.5-0.4,1-0.6c1-0.5,1.6-1,3.1-2.4l1.1-1.1l0,2.4l0,2.4h2.1h2.1V30.8V15.2h-2.1h-2.1l0,2.5l0,2.5l-1.2-1.2
		c-1.3-1.4-2.6-2.4-3.5-2.8c-0.3-0.2-0.6-0.3-0.6-0.4s-0.7-0.3-1.5-0.6c-0.8-0.2-1.6-0.5-1.8-0.6C191.9,14.4,186.7,14.3,185.5,14.4
		 M225.4,14.4c-0.3,0-0.5,0.1-0.5,0.2c0,0.1-0.1,0.2-0.3,0.2c-0.4,0-2.9,0.8-3,1c0,0.1-0.6,0.3-1.1,0.6c-0.6,0.3-1,0.5-1,0.6
		c0,0.1-0.2,0.3-0.5,0.4c-0.5,0.3-2.9,2.7-3.5,3.4c-0.7,0.9-1.6,2.6-1.9,3.4c-0.1,0.5-0.3,0.9-0.4,1c-1,1.3-1,9.5,0,10.7
		c0.1,0.1,0.3,0.6,0.5,1.1c0.2,0.5,0.4,1.1,0.6,1.2c0.1,0.1,0.4,0.6,0.7,1.1c1.1,1.9,4.4,4.7,6.7,5.6c0.6,0.2,1.3,0.5,1.6,0.6
		c2.2,1,8.6,1,10.7,0c0.3-0.1,1-0.4,1.5-0.6c0.5-0.2,1.1-0.5,1.2-0.6s0.3-0.2,0.4-0.2c0.3,0,2.1-1.5,3-2.4l0.9-0.9v0.7
		c0,1.4-0.3,5.1-0.5,5.4c-0.1,0.2-0.3,0.7-0.4,1.2c-1,3.8-5.3,6.2-11.2,6.2c-5.2,0-8.3-1.4-10.8-5l-0.6-0.8l-2.4,0l-2.4,0l0.1,0.4
		c0.1,0.2,0.2,0.5,0.3,0.6c0.1,0.1,0.4,0.7,0.7,1.2c0.8,1.6,3.4,4.7,3.9,4.7c0.1,0,0.3,0.2,0.5,0.3c0.5,0.5,3.3,1.7,4.4,2
		c0.5,0.1,1,0.3,1.1,0.3c0.9,0.7,8.7,0.6,10.8-0.1c0.7-0.2,1.4-0.4,1.5-0.4c0.3,0,3.1-1.5,3.4-1.8c0.1-0.1,0.3-0.2,0.4-0.2
		c0.6,0,3.5-3.7,3.9-4.9c0.1-0.4,0.2-0.6,0.3-0.6c0.3,0,1-3.6,1-5c0-0.4,0.1-0.7,0.2-0.7c0.1,0,0.2-5,0.2-14.6V15.2h-2.2h-2.2l0,2.4
		l0,2.4l-1.3-1.2c-1.6-1.6-2.2-2-3.1-2.5c-0.4-0.2-0.8-0.4-0.8-0.5c-0.1-0.2-2.6-1-3-1c-0.2,0-0.3-0.1-0.3-0.2
		C231.9,14.4,226.6,14.3,225.4,14.4 M264.8,14.4c-0.3,0-0.6,0.2-0.7,0.2c-0.1,0.1-0.3,0.2-0.5,0.2c-0.4,0-2.9,0.8-3,1
		c0,0.1-0.4,0.3-0.8,0.5c-2.4,1.2-6,5.4-6.8,8c-0.1,0.4-0.3,0.8-0.4,0.8c-0.6,0.5-1,7.6-0.5,9.7c0.3,1.3,1.3,3.6,1.8,4.4
		c0.2,0.3,0.4,0.7,0.4,0.8s0.2,0.3,0.4,0.5c0.2,0.2,0.4,0.5,0.4,0.6c0,0.3,3.2,3.4,3.9,3.8c0.4,0.2,0.9,0.5,1.1,0.6
		c0.2,0.2,0.9,0.4,1.6,0.6c0.6,0.2,1.3,0.4,1.5,0.5c1.5,0.7,8.5,0.7,9.7,0c0.2-0.1,0.8-0.3,1.4-0.5c0.6-0.2,1.3-0.5,1.4-0.6
		c0.1-0.1,0.5-0.3,0.8-0.5c1.4-0.7,3.2-2.3,4.5-4c0.5-0.6,0.9-1.2,1-1.4c0.2-0.3,1-1.9,1-2.1c0-0.1-0.5-0.4-1.1-0.7
		c-0.6-0.3-1.2-0.6-1.2-0.6c-0.5-0.6-1.5-0.6-1.7-0.1c-0.1,0.2-0.3,0.5-0.4,0.6c-0.1,0.1-0.4,0.5-0.6,0.8c-0.2,0.3-0.5,0.8-0.7,1
		c-0.2,0.2-0.5,0.6-0.7,0.8c-0.5,0.6-2.1,1.8-2.8,2.1c-0.4,0.1-0.7,0.3-0.8,0.4c-0.7,1.2-9.7,1.2-10.5,0c0-0.1-0.4-0.3-0.8-0.5
		c-2.9-1.5-5.6-6.1-5.6-9.7v-0.5h13.9h13.9l-0.1-1.7c-0.1-1.8-0.5-4.3-0.7-4.4c-0.1-0.1-0.3-0.5-0.4-1c-0.3-1-1.7-3.5-2-3.5
		c-0.1,0-0.2-0.1-0.2-0.2c0-0.2-2.5-2.7-3.4-3.4c-0.9-0.7-3-1.7-4.2-2c-0.7-0.2-1.3-0.4-1.4-0.5C271.7,14.4,265.7,14.3,264.8,14.4
		 M78.8,18.9c0.9,0.3,2.9,1.3,3.5,1.7c0.9,0.7,2.3,2.1,2.3,2.3c0,0.1,0.1,0.3,0.2,0.3c0.1,0,0.4,0.5,0.6,1c0.2,0.5,0.5,1.2,0.7,1.5
		s0.3,0.9,0.4,1.2l0.1,0.5H75.2c-9,0-11.3,0-11.3-0.2c0-0.1,0.2-0.6,0.4-1.1c0.2-0.5,0.3-1,0.4-1c0.1,0,0.3-0.5,0.5-0.9
		c0.5-1.1,1.7-2.6,2.4-3.1c0.3-0.2,0.6-0.5,0.7-0.6C69.7,18.9,75.7,17.9,78.8,18.9 M152.7,18.9c0.8,0.2,1.4,0.4,1.5,0.5
		c0,0.1,0.4,0.3,0.8,0.5c1.1,0.5,3.4,2.4,3.9,3.2c0.9,1.5,1.3,2.2,1.5,3c0.2,0.5,0.4,1,0.4,1.1c0.5,0.6,0.5,6,0,6.9
		c-0.1,0.2-0.4,0.9-0.6,1.6c-0.2,0.7-0.5,1.3-0.6,1.3c-0.1,0-0.3,0.3-0.5,0.6c-0.4,0.8-2.8,3-3.1,3c-0.1,0-0.3,0.1-0.3,0.2
		c-0.1,0.1-0.7,0.4-1.5,0.7c-0.7,0.2-1.5,0.5-1.8,0.6c-0.6,0.3-6.5,0.3-6.6,0c0-0.1-0.2-0.2-0.4-0.2c-0.6,0-2.3-0.7-3-1.2
		c-0.4-0.3-0.7-0.5-0.8-0.5c-0.9,0-3.7-4.1-4.2-6c-0.2-0.7-0.4-1.4-0.4-1.5s-0.1-1-0.1-1.9s0.1-1.7,0.1-1.9c0.1-0.2,0.3-0.8,0.4-1.5
		c0.3-1.1,1.3-3.3,1.9-4C142.9,19.2,147.6,17.6,152.7,18.9 M192.8,18.9c0.6,0.2,1,0.4,1.1,0.4c0,0.1,0.4,0.2,0.7,0.4
		c1.2,0.5,3.4,2.4,4.3,3.8c0.2,0.4,0.5,0.7,0.6,0.8c0.2,0.1,0.7,1.5,0.9,2.1c0.1,0.3,0.2,0.5,0.2,0.5c0.6,0,0.6,6.2,0,7.6
		c-0.1,0.2-0.3,0.7-0.5,1.2c-0.9,2.3-3.3,5-5.3,5.8c-0.4,0.2-0.7,0.3-0.7,0.4c-0.5,0.8-5.6,1.3-7.9,0.8c-1.2-0.3-1.6-0.4-3.1-1.2
		c-1.1-0.6-2.5-1.8-3.4-3c-0.3-0.4-0.5-0.7-0.6-0.7c-0.4-0.3-1.5-2.9-1.7-3.9c-0.2-0.7-0.3-1.4-0.4-1.5c-0.2-0.4-0.2-3.2,0-3.4
		c0.1,0,0.2-0.4,0.3-0.9c0.1-0.8,0.6-2.4,0.8-2.5c0.1,0,0.3-0.5,0.6-1c0.7-1.3,1.9-2.7,3.4-4C184,18.7,189.4,17.9,192.8,18.9
		 M231.5,18.7c1,0.2,2.1,0.5,2.2,0.7c0,0.1,0.5,0.3,1,0.6c1.9,0.9,5,4.2,5,5.3c0,0.1,0.1,0.4,0.3,0.8c0.9,1.9,1,7.2,0.2,8.6
		c-0.1,0.1-0.3,0.7-0.5,1.1c-0.6,1.5-2.4,3.7-3.9,4.6c-0.3,0.2-0.6,0.4-0.7,0.5c-0.1,0.1-0.7,0.3-1.4,0.6c-0.7,0.2-1.4,0.5-1.6,0.6
		c-0.6,0.3-6.5,0.3-6.6,0c0-0.1-0.2-0.2-0.3-0.2c-0.4,0-2.4-0.7-2.6-0.9c-0.1-0.1-0.5-0.4-0.9-0.6c-1-0.6-3-2.7-3.5-3.8
		c-0.3-0.5-0.5-1-0.6-1c-0.7-0.6-1-6.3-0.4-8.2C218.9,21.1,225.3,17.3,231.5,18.7 M271.6,18.9c3.9,1.3,7.7,5.5,7.8,8.5
		c0,0.1-5.1,0.1-11.3,0.1h-11.3l0.1-0.4c0.1-0.2,0.2-0.6,0.4-1c0.2-0.3,0.4-0.9,0.5-1.2c0.6-1.9,2.7-4.2,5-5.3c1-0.5,1.6-0.7,2.9-1
		C266.4,18.4,270.8,18.6,271.6,18.9"/>
	<path id="path2" class="st0" d="M24,49.5c0.4,0,1,0,1.4,0c0.4,0,0.1-0.1-0.7-0.1C23.9,49.4,23.6,49.4,24,49.5"/>
	<path id="path3" class="st0" d="M47.4,5.6c-0.1,0.2,0.1,0.4,0.3,0.6l0.4,0.4l-0.3-0.4c-0.2-0.2-0.3-0.5-0.2-0.6
		c0.1-0.1,0.1-0.3,0-0.3C47.5,5.3,47.4,5.5,47.4,5.6 M56.7,10.3c0,0.4,0,0.6,0.1,0.4c0-0.2,0-0.5,0-0.8C56.7,9.8,56.7,9.9,56.7,10.3
		 M56.5,11.8c0,0.3-0.1,0.5-0.3,0.6c-0.2,0.1-0.2,0.1,0.1,0.1c0.3,0,0.4-0.1,0.4-0.6c0-0.3,0-0.6-0.1-0.6
		C56.5,11.3,56.5,11.6,56.5,11.8 M42.8,16c-0.3,0.3-0.5,0.7-0.4,0.7c0,0,0.2-0.2,0.4-0.5C43.2,15.6,43.2,15.5,42.8,16"/>
	<path id="path4" class="st0" d="M55.5,1.7C55,2,54.7,2.1,54.7,2c0-0.1-0.1,0-0.3,0.2C54.2,2.4,54,2.5,54,2.5
		c-0.3,0-1.6,0.7-1.7,0.8c-0.1,0.1-0.2,0.1-0.2,0.1c-0.1,0-0.2,0-0.2,0.1c-0.1,0.1-0.3,0.2-0.4,0.2c-0.2,0-0.3,0.1-0.3,0.1
		c0,0.1-0.4,0.3-0.8,0.5c-3.2,1.5-3.1,1.4-1.9,2.4l0.8,0.7l-0.3,0.4c-0.2,0.2-0.7,0.9-1,1.4c-0.4,0.6-0.8,1-0.8,1.1
		c-0.1,0-0.1,0.1-0.1,0.2c0,0.1-0.3,0.5-0.6,0.9c-1.2,1.6-3,4-4.8,6.5c-0.4,0.5-0.7,1-0.8,1.1c-0.1,0.1-0.3,0.4-0.5,0.7
		c-0.2,0.3-0.5,0.6-0.6,0.8c-0.1,0.2-0.5,0.7-0.8,1.1c-1.2,1.7-2.6,3.6-3.2,4.4c-0.4,0.5-0.8,1-0.8,1.2c-0.1,0.2-0.2,0.3-0.2,0.3
		S34.2,28,34,28.3c-0.2,0.4-0.5,0.7-0.5,0.7s-0.1,0.1-0.1,0.2c0,0.1-0.1,0.4-0.3,0.5c-0.2,0.2-0.8,1-1.3,1.7
		c-0.6,0.8-1.2,1.6-1.3,1.8s-0.8,1.1-1.4,2c-0.7,0.9-1.2,1.7-1.3,1.7c-0.1,0-0.1,0.2-0.1,0.3c0,0.1-0.2,0.4-0.4,0.6
		c-0.2,0.2-0.5,0.7-0.7,1c-0.2,0.3-0.6,0.8-0.8,1.1c-1.7,2.3-2.2,3-2.4,3.2c-0.2,0.4-1.5,2.1-1.6,2.2c-0.1,0-0.2,0.2-0.3,0.4
		c-0.1,0.2-0.5,0.8-1,1.4c-0.9,1.3-0.9,1.4,0.1,1.7c1.9,0.5,2.4,0.6,4,0.6h1.6l0.6-0.7c0.3-0.4,0.6-0.7,0.6-0.8
		c0-0.1,0.1-0.2,0.1-0.2c0.1,0,0.3-0.3,0.5-0.6c0.2-0.3,0.4-0.7,0.6-0.9c0.2-0.1,0.7-0.9,1.2-1.6c0.5-0.7,1.2-1.8,1.6-2.3
		c0.4-0.5,1.4-1.8,2.1-2.9c1.1-1.6,1.8-2.5,2.4-3.3c0.1-0.1,0.5-0.7,0.9-1.2c0.4-0.6,0.9-1.2,1-1.4c0.2-0.2,0.3-0.4,0.3-0.4
		s0.2-0.3,0.4-0.5c0.5-0.5,1.1-1.4,1.1-1.6c0,0,0.1-0.2,0.3-0.4c0.2-0.3,0.7-0.9,2.3-3.2c1.4-2,2.1-2.9,2.3-3c0.1,0,0.2-0.1,0.2-0.2
		c0-0.1,0.3-0.6,1-1.6c0.1-0.1,0.4-0.5,0.7-0.9c1.9-2.7,3.3-4.6,3.5-4.8c0.1-0.1,0.2-0.3,0.2-0.4s0.1-0.2,0.1-0.2
		c0.1,0,0.3-0.2,0.4-0.5c0.2-0.3,0.4-0.7,0.6-0.9s0.7-0.9,1.2-1.6c0.5-0.6,0.9-1.2,1-1.3c0.1-0.1,0.3-0.4,0.4-0.6
		c0.4-0.6,0.5-0.6,1.4,0.2c1.5,1.3,1.6,1.1,1.9-5.3c0.1-1.1,0.2-2.1,0.2-2.4s0.1-1,0.2-1.5l0-1l-0.6,0C56.5,1.3,55.9,1.5,55.5,1.7
		 M290.8,24.8v21.8h4h4v-1.6v-1.6l0.9,0.7c0.5,0.4,1.1,0.9,1.5,1.1c1.1,0.7,2.2,1.2,2.4,1.2c0.1,0,0.4,0.1,0.7,0.2
		c1.3,0.7,6.6,0.8,8,0.2c0.3-0.1,1-0.4,1.4-0.5c2.7-0.8,6.3-4.1,7.7-6.9c0.3-0.5,0.5-1,0.6-1.1c0.1-0.1,0.3-0.8,0.6-1.6
		s0.4-1.5,0.5-1.7c0.5-1,0.5-7.9,0-8.4c-0.1-0.1-0.2-0.3-0.2-0.4c0-0.5-0.7-2.9-0.9-3.1c-0.1-0.1-0.4-0.6-0.6-1.2
		c-0.5-1.1-0.4-0.9-2-2.7c-0.7-0.8-1.4-1.5-1.6-1.7c-0.2-0.2-0.6-0.4-0.9-0.6c-0.8-0.7-2.1-1.4-3.3-1.7c-0.6-0.2-1.3-0.5-1.6-0.6
		c-0.6-0.3-6.2-0.3-6.7,0c-0.2,0.1-0.8,0.3-1.3,0.5c-1.2,0.4-2.8,1.3-4,2.3c-0.5,0.4-1,0.8-1.1,0.8c-0.1,0-0.1-3.4-0.1-7.6V3h-4h-4
		V24.8 M340.1,14.4c-0.2,0-0.5,0.1-0.7,0.2c-0.2,0.1-0.7,0.3-1.2,0.4c-1,0.3-3,1.4-3.7,1.9c-3,2.5-5,5.5-5.6,8.4
		c-0.1,0.5-0.3,1.1-0.3,1.2c-0.5,0.7-0.5,7.2,0,8.2c0.1,0.2,0.3,0.8,0.4,1.4c0.3,1.1,1.4,3.5,2.2,4.6c0.7,0.9,2.8,3.2,3,3.2
		c0.1,0,0.3,0.1,0.5,0.3c0.4,0.5,2.7,1.8,3.5,2c0.4,0.1,0.9,0.3,1.2,0.5c1.3,0.6,6.7,0.5,8-0.2c0.3-0.1,0.6-0.2,0.7-0.2
		c0.5,0,2.4-1.2,3.8-2.3l0.7-0.6l0,1.5l0,1.5l4,0l4,0V30.8V15.2l-4,0l-4,0l-0.1,1.5l-0.1,1.5l-0.5-0.5c-0.3-0.3-0.6-0.5-0.7-0.5
		c-0.1,0-0.2-0.1-0.2-0.2c0-0.3-2.5-1.6-3.5-1.9c-0.5-0.1-1.1-0.3-1.2-0.5C345.9,14.4,340.8,14.3,340.1,14.4 M364.8,15.3
		c0,0.2,1,2.7,1.1,2.9c0.1,0.1,0.3,0.7,0.5,1.4c0.2,0.6,0.4,1.2,0.5,1.2c0.1,0,0.3,0.6,0.6,1.3c0.2,0.7,0.5,1.3,0.6,1.4
		c0.1,0.1,0.3,0.7,0.6,1.4s0.5,1.3,0.6,1.4c0.1,0.1,0.3,0.7,0.5,1.3c0.2,0.6,0.4,1.2,0.5,1.3c0.1,0.1,0.3,0.7,0.6,1.3
		c0.2,0.6,0.6,1.5,0.8,2c0.2,0.5,0.5,1.2,0.6,1.5c0.1,0.4,0.3,0.7,0.3,0.7c0.1,0,0.2,0.3,0.3,0.7c0.1,0.4,0.4,1.1,0.6,1.5
		c0.2,0.5,0.6,1.4,0.8,2s0.5,1.2,0.6,1.3c0.1,0.1,0.2,0.5,0.3,0.8c0.1,0.4,0.4,1.1,0.7,1.7c0.6,1.2,0.6,1.2,0,2.4
		c-0.2,0.5-0.7,1.5-1,2.2c-0.3,0.7-0.9,1.9-1.3,2.8s-0.8,1.7-0.8,2c-0.1,0.2-0.2,0.4-0.2,0.4c-0.1,0-0.2,0.2-0.3,0.5
		c-0.1,0.3-0.5,1.2-0.9,2c-0.4,0.8-0.8,1.7-0.8,1.9c-0.1,0.2-0.2,0.4-0.3,0.4c-0.1,0-0.2,0.1-0.2,0.2c0,0.2,0.6,0.2,4.3,0.2h4.3
		l0.3-0.6c0.1-0.3,0.5-1.2,0.8-1.9c0.6-1.3,1.3-2.7,2-4.2c0.2-0.5,0.7-1.6,1.1-2.5c0.4-0.9,0.8-1.7,0.8-1.7c0,0,0.3-0.8,0.7-1.6
		c0.8-1.7,1.3-2.8,2.2-4.8c0.3-0.7,0.8-1.7,1-2.2c0.9-1.8,1.7-3.6,1.7-3.7c0,0,0.3-0.8,0.7-1.6c0.4-0.8,1.1-2.4,1.6-3.3
		c0.5-1,0.9-1.8,0.9-1.9c0-0.1,0.8-1.7,1.9-4.2c0.9-2,1.7-3.7,1.9-4.2c0.1-0.3,0.3-0.6,0.3-0.7c0.1-0.1,1.2-2.5,1.5-3.2
		c0-0.1-1.8-0.1-4.2-0.1l-4.2,0l-0.4,0.8c-0.4,0.8-1.1,2.3-2.1,4.4c-0.3,0.6-0.8,1.7-1.1,2.3c-0.3,0.6-0.6,1.2-0.6,1.3
		c0,0.1-0.3,0.8-0.7,1.6c-0.4,0.8-0.9,1.9-1.2,2.5c-0.3,0.6-0.7,1.5-1,2.1c-1.2,2.6-1.7,3.6-1.7,3.8c0,0.1-0.1,0.1-0.2-0.1
		c-0.1-0.2-0.2-0.4-0.1-0.4c0,0,0-0.1-0.1-0.2c-0.1-0.1-0.3-0.6-0.5-1.2c-0.2-0.6-0.4-1.1-0.5-1.2s-0.3-0.6-0.5-1.2
		c-0.5-1.4-1.4-3.5-1.7-4.2c-0.1-0.3-0.5-1.1-0.8-1.8c-1.1-2.9-1.5-3.9-1.7-4c-0.1-0.1-0.3-0.7-0.5-1.3s-0.4-1.1-0.5-1.2
		s-0.3-0.6-0.5-1.1l-0.4-1H369C366.7,15.2,364.8,15.2,364.8,15.3 M309.5,22.3c6.1,1.7,7.9,10.7,2.9,15.2c-1.8,1.7-2.9,2.1-5.5,2.1
		c-5.2,0-8.5-3.7-8.2-9.5C298.9,24.2,303.8,20.7,309.5,22.3 M347.1,22.3c1.9,0.5,4.2,2.4,4.8,4.1c0.2,0.4,0.3,0.8,0.4,0.8
		c0.4,0,0.7,4.4,0.3,6c-1.5,7.2-11.9,8.8-15.2,2.3c-1-2-1.6-6.2-1-7.2c0.1-0.1,0.3-0.7,0.5-1.3C338.3,23.1,342.5,21.1,347.1,22.3
		 M25.7,25.5c-0.2,0.3-0.9,1.2-1.5,2c-0.6,0.8-1.2,1.6-1.3,1.8c-0.1,0.2-0.2,0.4-0.3,0.5c-0.1,0-0.7,0.9-1.4,1.9
		c-0.7,1-1.4,1.9-1.4,2c-0.1,0.1-0.9,1.2-1.8,2.5c-0.9,1.3-1.7,2.4-1.8,2.5c-2,2.6-3.5,4.9-3.5,5.3c0,0.4,1.2,1.5,3,2.6
		c1.2,0.8,1.2,0.7,2.7-1.3c1.1-1.5,1.8-2.5,2.8-3.8c0.6-0.8,1-1.4,1-1.5c0-0.1,0.2-0.4,0.5-0.7c0.3-0.3,0.5-0.6,0.5-0.7
		c0-0.1,0.1-0.2,0.2-0.2c0.1,0,0.2-0.2,0.3-0.3c0.1-0.2,0.3-0.6,0.6-0.9c0.3-0.3,0.5-0.6,0.5-0.7c0-0.1,0.1-0.3,0.3-0.5
		c0.4-0.4,2.1-2.7,3.4-4.6c0.5-0.8,1.1-1.5,1.2-1.6c1.1-1.1,1.2-1.8,0.4-2.3c-0.5-0.3-1-0.7-1.9-1.5C26.7,25,26.2,24.9,25.7,25.5
		 M14.8,26.6c-0.8,1.2-3.1,4.3-3.3,4.5c-0.1,0.1-0.8,1.1-1.6,2.2c-0.8,1.1-1.6,2.2-1.7,2.2C7.6,36,7.9,37,9,39.4
		c1.1,2.2,1.8,2.8,2.1,1.8c0-0.2,0.1-0.3,0.2-0.3c0.1,0,0.3-0.3,0.5-0.6c0.2-0.3,0.5-0.7,0.6-0.8c0.1-0.1,0.6-0.8,1.1-1.5
		c0.5-0.7,1.1-1.5,1.4-1.8c0.3-0.3,0.5-0.6,0.5-0.7c0-0.1,0.1-0.2,0.2-0.3c0.1-0.1,0.6-0.7,1-1.4s1-1.3,1.2-1.5
		c0.2-0.2,0.3-0.4,0.3-0.5s0.5-0.7,1-1.5l1-1.3l-0.5-0.6c-0.3-0.3-0.8-0.7-1.2-0.9c-0.3-0.2-0.6-0.4-0.6-0.5c0-0.1-0.1-0.2-0.3-0.2
		s-0.6-0.3-0.9-0.6C15.7,25.5,15.5,25.5,14.8,26.6"/>
</g>
</svg>
