<svg id="svg" version="1.1" width="400" height="60.38104543234002" xmlns="http://www.w3.org/2000/svg" xmlns:xlink="http://www.w3.org/1999/xlink" style="display: block;"><g id="svgg"><path id="path0" d="M28.644 7.741 C 28.953 7.883,29.403 7.991,29.644 7.981 C 30.022 7.964,30.002 7.943,29.500 7.829 C 29.179 7.756,28.729 7.648,28.500 7.589 C 28.230 7.519,28.281 7.573,28.644 7.741 M20.794 7.951 C 21.001 7.991,21.301 7.990,21.460 7.948 C 21.620 7.906,21.450 7.874,21.083 7.875 C 20.717 7.877,20.586 7.911,20.794 7.951 M7.389 31.167 C 7.389 31.854,7.419 32.135,7.455 31.792 C 7.491 31.448,7.491 30.885,7.455 30.542 C 7.419 30.198,7.389 30.479,7.389 31.167 M48.825 33.287 C 48.779 33.675,48.806 33.928,48.883 33.850 C 48.961 33.773,48.998 33.456,48.966 33.146 C 48.910 32.597,48.906 32.601,48.825 33.287 M42.879 33.667 C 42.879 34.079,42.911 34.248,42.951 34.042 C 42.991 33.835,42.991 33.498,42.951 33.292 C 42.911 33.085,42.879 33.254,42.879 33.667 M3.179 39.962 C 3.282 40.258,3.434 40.543,3.518 40.594 C 3.601 40.646,3.579 40.477,3.470 40.219 C 3.175 39.527,2.961 39.338,3.179 39.962 M28.127 48.785 C 28.334 48.824,28.634 48.823,28.794 48.781 C 28.953 48.739,28.783 48.707,28.417 48.709 C 28.050 48.711,27.920 48.745,28.127 48.785 M240.906 54.208 L 240.417 54.750 240.958 54.260 C 241.463 53.804,241.577 53.667,241.448 53.667 C 241.419 53.667,241.175 53.910,240.906 54.208 M21.976 54.709 C 22.060 54.793,22.306 54.834,22.522 54.800 C 22.856 54.747,22.833 54.724,22.370 54.647 C 22.039 54.592,21.883 54.616,21.976 54.709 " stroke="none" fill="#000000" fill-rule="evenodd"></path><path id="path1" d="M22.125 7.627 C 21.873 7.661,21.667 7.759,21.667 7.844 C 21.667 7.930,21.409 8.000,21.094 8.000 C 19.256 8.000,13.397 10.248,12.565 11.272 C 12.463 11.398,12.322 11.500,12.250 11.500 C 11.993 11.500,9.639 13.407,8.566 14.483 C 6.139 16.920,4.285 19.870,2.845 23.583 C 2.678 24.014,2.176 26.014,1.967 27.082 C 1.459 29.674,2.011 36.588,2.912 38.917 C 4.559 43.174,6.862 46.481,10.226 49.417 C 11.824 50.812,15.565 52.973,16.874 53.258 C 17.173 53.323,17.565 53.479,17.745 53.605 C 17.926 53.730,18.241 53.833,18.444 53.833 C 18.647 53.833,18.855 53.899,18.905 53.980 C 18.954 54.061,19.503 54.181,20.123 54.246 C 20.743 54.311,21.660 54.470,22.160 54.599 C 23.377 54.912,27.284 54.909,28.470 54.593 C 28.958 54.464,29.840 54.306,30.431 54.242 C 31.021 54.179,31.546 54.061,31.595 53.980 C 31.645 53.899,31.898 53.833,32.156 53.833 C 32.414 53.833,32.713 53.729,32.819 53.601 C 32.925 53.473,33.281 53.318,33.610 53.256 C 34.214 53.143,34.413 53.067,35.167 52.661 C 35.396 52.538,35.921 52.272,36.334 52.071 C 37.035 51.729,39.148 50.397,39.333 50.179 C 39.379 50.125,39.692 49.876,40.029 49.625 C 41.598 48.456,43.822 46.004,45.056 44.083 C 46.355 42.062,47.524 39.564,47.943 37.917 C 47.990 37.733,48.094 37.433,48.174 37.250 C 48.254 37.067,48.394 36.279,48.484 35.500 C 48.575 34.721,48.723 33.708,48.814 33.250 C 49.031 32.163,49.031 29.949,48.815 29.000 C 48.721 28.587,48.573 27.650,48.485 26.917 C 48.398 26.183,48.260 25.433,48.178 25.250 C 48.097 25.067,47.988 24.785,47.937 24.625 C 47.799 24.193,47.381 24.271,47.049 24.792 C 46.889 25.044,46.036 26.226,45.155 27.420 C 43.122 30.173,43.231 29.924,43.104 32.112 C 42.840 36.646,40.971 40.895,37.929 43.877 C 37.166 44.625,35.254 46.167,35.090 46.167 C 35.028 46.167,34.732 46.354,34.431 46.583 C 34.131 46.813,33.829 47.000,33.760 47.000 C 33.691 47.000,33.082 47.262,32.405 47.583 C 31.729 47.904,31.065 48.167,30.929 48.167 C 30.793 48.167,30.510 48.234,30.300 48.316 C 29.697 48.551,28.686 48.793,27.367 49.017 C 26.699 49.130,26.113 49.285,26.066 49.361 C 25.748 49.876,19.667 49.011,19.667 48.451 C 19.667 48.339,19.423 48.149,19.125 48.028 C 18.827 47.907,18.295 47.664,17.943 47.487 C 17.590 47.311,17.061 47.167,16.767 47.167 C 15.830 47.167,12.475 44.730,12.547 44.102 C 12.568 43.917,12.221 43.404,11.708 42.863 C 11.227 42.355,10.833 41.878,10.833 41.803 C 10.833 41.728,10.693 41.667,10.522 41.667 C 9.661 41.667,7.854 37.655,7.748 35.509 C 7.720 34.918,7.602 33.694,7.486 32.790 C 7.236 30.825,7.709 26.200,8.190 25.902 C 8.269 25.853,8.333 25.635,8.333 25.417 C 8.333 25.198,8.402 24.977,8.485 24.926 C 8.569 24.874,8.688 24.532,8.750 24.166 C 8.812 23.800,8.928 23.500,9.007 23.500 C 9.086 23.500,9.295 23.175,9.471 22.777 C 10.222 21.079,12.470 18.379,14.205 17.090 C 14.780 16.664,15.386 16.203,15.551 16.067 C 15.717 15.931,16.257 15.635,16.750 15.409 C 17.244 15.184,17.690 14.930,17.742 14.846 C 17.795 14.761,18.080 14.640,18.377 14.577 C 18.674 14.513,18.992 14.405,19.083 14.336 C 19.175 14.268,19.438 14.169,19.667 14.117 C 19.896 14.066,20.383 13.936,20.750 13.830 C 22.917 13.202,27.561 13.190,29.667 13.807 C 29.988 13.901,30.438 14.031,30.667 14.096 C 30.896 14.161,31.158 14.269,31.250 14.336 C 31.342 14.402,31.696 14.507,32.036 14.568 C 32.377 14.630,32.752 14.771,32.870 14.882 C 32.987 14.993,33.308 15.191,33.583 15.324 C 34.168 15.604,36.373 17.025,36.510 17.209 C 36.700 17.464,37.738 18.167,37.924 18.167 C 38.030 18.167,38.737 17.303,39.494 16.248 C 40.252 15.193,40.938 14.288,41.019 14.238 C 41.372 14.020,41.110 13.517,40.375 13.003 C 39.940 12.698,39.508 12.367,39.417 12.266 C 39.027 11.838,36.805 10.490,35.417 9.840 C 34.003 9.178,33.715 9.051,32.792 8.685 C 32.228 8.461,30.094 8.000,29.622 8.000 C 29.394 8.000,28.931 7.885,28.594 7.744 C 28.016 7.502,23.626 7.423,22.125 7.627 M71.917 14.438 C 71.642 14.479,71.267 14.578,71.083 14.660 C 70.900 14.741,70.193 14.969,69.512 15.167 C 68.416 15.486,66.540 16.408,65.721 17.030 C 64.830 17.707,62.149 20.555,61.740 21.259 C 61.477 21.712,61.181 22.166,61.084 22.267 C 60.986 22.368,60.769 22.781,60.601 23.184 C 60.434 23.587,60.152 24.231,59.975 24.616 C 58.781 27.205,58.772 36.113,59.963 36.992 C 60.031 37.042,60.265 37.533,60.484 38.083 C 60.703 38.633,61.021 39.238,61.191 39.427 C 61.361 39.617,61.501 39.842,61.501 39.927 C 61.503 40.108,62.805 41.810,63.693 42.793 C 64.359 43.530,66.421 45.167,66.683 45.167 C 66.773 45.167,67.050 45.313,67.298 45.491 C 67.547 45.670,68.275 45.974,68.917 46.167 C 69.558 46.360,70.210 46.587,70.364 46.671 C 71.596 47.337,78.588 47.338,80.083 46.672 C 80.267 46.591,80.829 46.396,81.333 46.240 C 83.995 45.417,87.584 42.563,88.964 40.174 C 89.204 39.757,89.450 39.379,89.511 39.333 C 89.673 39.212,90.333 37.877,90.333 37.672 C 90.333 37.576,89.827 37.254,89.208 36.957 C 88.590 36.660,88.044 36.365,87.997 36.302 C 87.881 36.150,87.038 35.833,86.748 35.833 C 86.622 35.833,86.420 36.010,86.301 36.227 C 83.838 40.684,79.997 42.996,75.050 42.999 C 72.830 43.000,70.148 42.492,69.836 42.011 C 69.789 41.938,69.415 41.708,69.005 41.500 C 67.982 40.981,65.662 38.600,65.182 37.575 C 64.969 37.121,64.736 36.712,64.663 36.667 C 64.451 36.532,63.865 34.650,63.739 33.700 C 63.675 33.219,63.558 32.786,63.478 32.736 C 63.398 32.687,63.333 32.351,63.333 31.990 L 63.333 31.333 77.333 31.333 L 91.333 31.333 91.332 30.292 C 91.331 29.076,90.900 26.036,90.690 25.768 C 90.611 25.666,90.385 25.044,90.188 24.385 C 89.991 23.726,89.737 23.089,89.623 22.969 C 89.510 22.848,89.279 22.453,89.111 22.090 C 87.842 19.349,83.454 15.863,80.250 15.051 C 79.608 14.888,79.031 14.682,78.968 14.592 C 78.851 14.426,72.877 14.296,71.917 14.438 M111.584 14.448 C 111.309 14.493,111.047 14.581,111.001 14.643 C 110.954 14.705,110.542 14.853,110.084 14.971 C 109.298 15.175,108.644 15.456,107.365 16.140 C 106.225 16.749,103.978 18.689,103.426 19.542 C 102.913 20.332,102.833 20.068,102.833 17.583 L 102.833 15.167 100.582 15.167 L 98.332 15.167 98.374 30.792 L 98.417 46.417 100.609 46.463 L 102.802 46.509 102.861 37.380 C 102.902 30.988,102.977 28.150,103.109 27.917 C 103.213 27.733,103.419 27.033,103.567 26.360 C 104.092 23.973,106.438 20.838,108.455 19.829 C 108.709 19.702,109.043 19.493,109.198 19.366 C 110.142 18.587,114.239 18.234,116.257 18.758 C 118.423 19.320,120.307 21.237,120.852 23.433 C 120.963 23.882,121.116 24.292,121.193 24.343 C 121.505 24.551,121.662 28.907,121.664 37.463 L 121.667 46.510 123.792 46.463 L 125.917 46.417 125.960 36.435 C 125.983 30.904,125.938 26.371,125.857 26.269 C 125.776 26.167,125.662 25.519,125.602 24.830 C 125.468 23.283,124.925 20.947,124.681 20.866 C 124.581 20.833,124.500 20.717,124.500 20.610 C 124.500 19.092,120.864 15.690,118.549 15.042 C 118.018 14.894,117.530 14.692,117.464 14.594 C 117.342 14.411,112.541 14.292,111.584 14.448 M145.875 14.445 C 145.577 14.487,145.333 14.591,145.333 14.677 C 145.333 14.763,145.206 14.833,145.050 14.833 C 144.611 14.833,142.000 15.662,142.000 15.802 C 142.000 15.870,141.512 16.138,140.917 16.398 C 140.321 16.657,139.833 16.923,139.833 16.988 C 139.833 17.052,139.552 17.267,139.208 17.464 C 138.621 17.801,136.443 19.954,135.786 20.846 C 135.109 21.766,134.592 22.635,134.208 23.500 C 133.984 24.004,133.697 24.651,133.569 24.937 C 132.681 26.933,132.465 32.002,133.150 34.792 C 133.358 35.640,133.580 36.333,133.644 36.333 C 133.708 36.333,133.858 36.664,133.978 37.068 C 134.199 37.818,135.382 39.814,135.962 40.417 C 136.138 40.600,136.388 40.907,136.516 41.099 C 136.720 41.405,137.185 41.830,138.799 43.189 C 139.439 43.728,142.004 45.141,142.560 45.262 C 142.848 45.324,143.127 45.444,143.181 45.528 C 143.812 46.517,152.083 46.572,154.208 45.602 C 154.506 45.466,155.237 45.154,155.833 44.908 C 156.429 44.663,156.954 44.411,157.000 44.349 C 157.046 44.286,157.352 44.079,157.681 43.889 C 158.502 43.414,158.911 43.081,160.142 41.885 L 161.203 40.852 161.083 43.218 C 161.016 44.519,160.896 45.608,160.814 45.639 C 160.733 45.669,160.667 45.880,160.667 46.106 C 160.667 48.944,158.591 51.706,155.308 53.236 C 151.340 55.086,143.746 54.569,141.056 52.267 C 140.091 51.441,139.009 50.342,138.661 49.833 C 138.441 49.512,138.165 49.151,138.047 49.030 C 137.930 48.909,137.833 48.740,137.833 48.655 C 137.833 48.567,136.793 48.500,135.417 48.500 C 134.087 48.500,133.000 48.540,133.000 48.589 C 133.000 48.761,133.515 49.906,133.631 49.994 C 133.697 50.043,133.969 50.515,134.236 51.042 C 134.503 51.569,134.773 52.000,134.834 52.000 C 134.896 52.000,135.033 52.189,135.138 52.420 C 135.415 53.029,137.647 55.285,138.197 55.513 C 138.455 55.620,138.667 55.760,138.667 55.824 C 138.667 56.040,141.910 57.485,142.833 57.679 C 143.337 57.785,143.825 57.932,143.917 58.005 C 144.736 58.658,153.258 58.657,154.469 58.005 C 154.624 57.921,155.313 57.691,156.000 57.493 C 156.688 57.295,157.287 57.084,157.333 57.025 C 157.379 56.965,157.787 56.742,158.239 56.529 C 159.608 55.883,162.018 53.805,162.710 52.673 C 162.909 52.349,163.162 51.990,163.273 51.875 C 163.385 51.761,163.637 51.237,163.834 50.710 C 164.031 50.184,164.249 49.678,164.320 49.585 C 164.474 49.383,164.765 48.281,165.024 46.917 C 165.154 46.231,165.235 41.080,165.282 30.542 L 165.351 15.167 163.263 15.167 L 161.176 15.167 161.129 17.625 L 161.083 20.083 159.808 18.833 C 158.459 17.511,157.458 16.728,156.500 16.247 C 156.179 16.085,155.878 15.894,155.830 15.821 C 155.721 15.654,153.226 14.833,152.826 14.833 C 152.662 14.833,152.497 14.741,152.459 14.628 C 152.390 14.419,147.102 14.273,145.875 14.445 M185.458 14.446 C 185.115 14.487,184.833 14.591,184.833 14.677 C 184.833 14.763,184.687 14.833,184.509 14.833 C 184.082 14.833,181.541 15.638,181.471 15.795 C 181.441 15.862,180.985 16.139,180.458 16.411 C 179.931 16.683,179.500 16.959,179.500 17.025 C 179.500 17.090,179.347 17.193,179.159 17.252 C 178.862 17.347,176.390 19.722,175.651 20.623 C 175.066 21.338,174.156 22.818,173.824 23.594 C 173.631 24.047,173.362 24.662,173.226 24.963 C 172.149 27.353,172.147 34.109,173.224 36.541 C 174.304 38.980,175.133 40.458,175.554 40.693 C 175.707 40.779,175.834 40.940,175.834 41.050 C 175.834 41.293,177.963 43.407,179.000 44.193 C 180.457 45.299,182.893 46.491,183.708 46.498 C 183.869 46.499,184.000 46.564,184.000 46.642 C 184.000 47.298,192.068 47.327,192.917 46.674 C 193.008 46.604,193.623 46.385,194.283 46.188 C 194.943 45.990,195.524 45.763,195.573 45.683 C 195.623 45.602,196.058 45.331,196.540 45.080 C 197.574 44.541,198.115 44.120,199.626 42.678 L 200.750 41.606 200.796 44.053 L 200.842 46.500 202.921 46.500 L 205.000 46.500 205.000 30.833 L 205.000 15.167 202.917 15.167 L 200.833 15.167 200.832 17.708 L 200.830 20.250 199.659 19.025 C 198.347 17.651,197.059 16.627,196.125 16.213 C 195.781 16.061,195.500 15.878,195.500 15.807 C 195.500 15.736,194.844 15.482,194.042 15.243 C 193.240 15.005,192.433 14.724,192.250 14.620 C 191.914 14.429,186.721 14.296,185.458 14.446 M225.375 14.445 C 225.077 14.487,224.833 14.591,224.833 14.677 C 224.833 14.763,224.693 14.833,224.521 14.833 C 224.114 14.833,221.615 15.650,221.503 15.819 C 221.456 15.891,220.948 16.159,220.375 16.414 C 219.802 16.670,219.333 16.927,219.333 16.987 C 219.333 17.046,219.092 17.238,218.796 17.412 C 218.269 17.724,215.870 20.077,215.287 20.855 C 214.591 21.782,213.647 23.477,213.394 24.250 C 213.245 24.708,213.066 25.158,212.996 25.250 C 212.037 26.514,212.043 34.715,213.003 35.917 C 213.076 36.008,213.291 36.525,213.480 37.066 C 213.670 37.606,213.927 38.168,214.051 38.316 C 214.175 38.463,214.484 38.947,214.738 39.390 C 215.813 41.273,219.178 44.085,221.400 44.959 C 221.959 45.178,222.661 45.469,222.959 45.604 C 225.115 46.581,231.592 46.577,233.708 45.599 C 234.006 45.461,234.681 45.189,235.208 44.995 C 235.736 44.801,236.274 44.536,236.405 44.405 C 236.536 44.274,236.704 44.166,236.780 44.165 C 237.031 44.162,238.906 42.688,239.792 41.797 L 240.666 40.917 240.666 41.583 C 240.666 42.956,240.322 46.690,240.171 46.965 C 240.085 47.122,239.901 47.667,239.762 48.176 C 238.731 51.956,234.422 54.333,228.605 54.333 C 223.368 54.333,220.347 52.933,217.833 49.341 L 217.250 48.507 214.864 48.504 L 212.478 48.500 212.592 48.875 C 212.655 49.081,212.799 49.362,212.913 49.500 C 213.026 49.637,213.321 50.163,213.568 50.667 C 214.336 52.236,216.918 55.333,217.458 55.333 C 217.538 55.333,217.766 55.485,217.965 55.670 C 218.479 56.149,221.249 57.414,222.333 57.665 C 222.838 57.782,223.327 57.937,223.420 58.011 C 224.286 58.690,232.127 58.638,234.248 57.939 C 234.980 57.698,235.659 57.500,235.756 57.500 C 236.016 57.500,238.827 56.030,239.113 55.745 C 239.247 55.610,239.409 55.500,239.472 55.500 C 240.076 55.500,242.999 51.850,243.360 50.645 C 243.466 50.290,243.606 50.000,243.671 50.000 C 243.957 50.000,244.667 46.442,244.667 45.010 C 244.667 44.638,244.742 44.333,244.833 44.333 C 244.943 44.333,245.000 39.361,245.000 29.750 L 245.000 15.167 242.838 15.167 L 240.676 15.167 240.629 17.609 L 240.583 20.051 239.296 18.817 C 237.653 17.244,237.088 16.793,236.164 16.318 C 235.753 16.107,235.372 15.870,235.317 15.790 C 235.202 15.623,232.717 14.833,232.306 14.833 C 232.153 14.833,231.997 14.741,231.959 14.628 C 231.890 14.419,226.602 14.273,225.375 14.445 M264.750 14.445 C 264.475 14.489,264.179 14.595,264.092 14.679 C 264.005 14.764,263.802 14.833,263.642 14.833 C 263.240 14.833,260.705 15.645,260.638 15.795 C 260.608 15.862,260.241 16.084,259.822 16.288 C 257.389 17.475,253.776 21.731,252.990 24.333 C 252.866 24.746,252.703 25.126,252.629 25.178 C 251.989 25.629,251.632 32.794,252.149 34.833 C 252.466 36.085,253.425 38.449,253.924 39.205 C 254.149 39.547,254.333 39.895,254.333 39.979 C 254.333 40.063,254.520 40.308,254.747 40.524 C 254.975 40.740,255.162 41.014,255.164 41.133 C 255.168 41.479,258.350 44.550,259.083 44.916 C 259.450 45.099,259.941 45.374,260.173 45.528 C 260.406 45.681,261.119 45.968,261.757 46.166 C 262.395 46.363,263.067 46.591,263.250 46.673 C 264.750 47.338,271.740 47.337,272.969 46.670 C 273.124 46.587,273.775 46.354,274.417 46.154 C 275.058 45.954,275.696 45.696,275.833 45.582 C 275.971 45.467,276.346 45.243,276.667 45.084 C 278.076 44.384,279.909 42.745,281.142 41.083 C 281.617 40.442,282.074 39.833,282.156 39.730 C 282.396 39.430,283.167 37.861,283.167 37.671 C 283.167 37.575,282.660 37.254,282.042 36.957 C 281.423 36.660,280.879 36.372,280.833 36.317 C 280.370 35.760,279.374 35.705,279.176 36.224 C 279.095 36.439,278.925 36.720,278.799 36.849 C 278.674 36.978,278.408 37.349,278.210 37.674 C 278.011 37.999,277.687 38.449,277.490 38.674 C 277.293 38.899,276.970 39.271,276.772 39.500 C 276.224 40.132,274.665 41.267,273.923 41.573 C 273.559 41.723,273.217 41.919,273.162 42.008 C 272.419 43.210,263.465 43.206,262.667 42.004 C 262.621 41.935,262.283 41.723,261.917 41.534 C 258.970 40.012,256.333 35.420,256.333 31.812 L 256.333 31.333 270.275 31.333 L 284.217 31.333 284.117 29.625 C 284.012 27.825,283.595 25.338,283.373 25.178 C 283.300 25.126,283.111 24.671,282.953 24.167 C 282.633 23.146,281.245 20.667,280.994 20.667 C 280.906 20.667,280.833 20.568,280.833 20.446 C 280.833 20.233,278.353 17.786,277.393 17.053 C 276.480 16.355,274.395 15.377,273.160 15.066 C 272.476 14.893,271.865 14.679,271.801 14.590 C 271.682 14.422,265.659 14.298,264.750 14.445 M78.750 18.904 C 79.647 19.193,81.662 20.205,82.221 20.646 C 83.146 21.376,84.500 22.743,84.500 22.947 C 84.500 23.074,84.606 23.218,84.735 23.267 C 84.864 23.317,85.135 23.746,85.337 24.220 C 85.539 24.695,85.837 25.383,86.000 25.750 C 86.163 26.117,86.348 26.660,86.411 26.958 L 86.526 27.500 75.162 27.500 C 66.141 27.500,63.814 27.457,63.875 27.292 C 63.917 27.177,64.086 26.671,64.250 26.167 C 64.415 25.662,64.594 25.212,64.650 25.167 C 64.705 25.121,64.924 24.715,65.136 24.265 C 65.638 23.199,66.861 21.618,67.544 21.151 C 67.841 20.948,68.160 20.690,68.254 20.577 C 69.662 18.890,75.718 17.925,78.750 18.904 M152.677 18.854 C 153.450 19.049,154.122 19.269,154.170 19.344 C 154.218 19.418,154.593 19.624,155.003 19.800 C 156.072 20.260,158.391 22.174,158.914 23.027 C 159.813 24.497,160.180 25.218,160.428 26.000 C 160.587 26.504,160.782 27.000,160.861 27.103 C 161.326 27.707,161.317 33.071,160.849 33.958 C 160.765 34.119,160.494 34.831,160.247 35.542 C 160.001 36.252,159.746 36.833,159.680 36.833 C 159.615 36.833,159.399 37.123,159.200 37.476 C 158.768 38.245,156.439 40.500,156.078 40.500 C 155.937 40.500,155.781 40.609,155.730 40.741 C 155.679 40.874,155.026 41.179,154.277 41.420 C 153.529 41.661,152.736 41.946,152.516 42.054 C 151.936 42.338,145.970 42.327,145.875 42.042 C 145.837 41.927,145.674 41.833,145.512 41.833 C 144.955 41.833,143.248 41.157,142.556 40.663 C 142.174 40.390,141.807 40.167,141.739 40.167 C 140.876 40.167,138.023 36.047,137.584 34.167 C 137.423 33.479,137.226 32.786,137.146 32.627 C 137.066 32.468,137.000 31.623,137.000 30.750 C 137.000 29.877,137.066 29.032,137.146 28.873 C 137.226 28.714,137.422 28.029,137.582 27.351 C 137.842 26.248,138.874 24.031,139.446 23.344 C 142.927 19.165,147.606 17.577,152.677 18.854 M192.750 18.929 C 193.300 19.094,193.790 19.286,193.839 19.358 C 193.888 19.429,194.195 19.599,194.522 19.735 C 195.730 20.240,197.884 22.173,198.809 23.583 C 199.050 23.950,199.299 24.289,199.363 24.337 C 199.535 24.465,200.107 25.850,200.242 26.465 C 200.307 26.759,200.418 27.000,200.489 27.000 C 201.120 27.000,201.128 33.230,200.499 34.583 C 200.414 34.767,200.196 35.316,200.016 35.805 C 199.166 38.111,196.755 40.758,194.742 41.597 C 194.380 41.747,194.046 41.929,194.000 42.000 C 193.493 42.786,188.394 43.268,186.053 42.751 C 184.812 42.476,184.442 42.331,182.924 41.520 C 181.795 40.917,180.415 39.699,179.561 38.554 C 179.299 38.203,179.043 37.879,178.991 37.833 C 178.619 37.506,177.479 34.973,177.252 33.972 C 177.100 33.300,176.906 32.620,176.821 32.461 C 176.626 32.096,176.617 29.217,176.810 29.098 C 176.889 29.049,177.002 28.651,177.062 28.213 C 177.174 27.389,177.640 25.814,177.816 25.665 C 177.871 25.619,178.133 25.169,178.398 24.665 C 179.093 23.342,180.254 21.974,181.818 20.635 C 184.023 18.747,189.355 17.915,192.750 18.929 M231.500 18.670 C 232.491 18.883,233.563 19.212,233.667 19.334 C 233.713 19.388,234.178 19.639,234.701 19.892 C 236.569 20.794,239.667 24.108,239.667 25.206 C 239.667 25.285,239.812 25.651,239.991 26.020 C 240.885 27.871,240.983 33.184,240.150 34.657 C 240.069 34.800,239.852 35.314,239.667 35.800 C 239.100 37.292,237.248 39.487,235.774 40.412 C 235.486 40.593,235.169 40.819,235.069 40.915 C 234.970 41.010,234.332 41.262,233.653 41.475 C 232.973 41.688,232.236 41.950,232.016 42.056 C 231.432 42.338,225.469 42.325,225.375 42.042 C 225.337 41.927,225.212 41.833,225.098 41.833 C 224.715 41.833,222.659 41.135,222.453 40.935 C 222.341 40.826,221.950 40.556,221.583 40.334 C 220.563 39.718,218.601 37.593,218.071 36.532 C 217.811 36.010,217.552 35.546,217.495 35.500 C 216.770 34.911,216.463 29.202,217.051 27.250 C 218.897 21.124,225.284 17.331,231.500 18.670 M271.581 18.905 C 275.468 20.167,279.310 24.365,279.332 27.375 C 279.333 27.444,274.228 27.500,267.989 27.500 L 256.644 27.500 256.754 27.125 C 256.815 26.919,256.996 26.488,257.156 26.167 C 257.317 25.846,257.540 25.305,257.652 24.964 C 258.281 23.049,260.389 20.807,262.670 19.627 C 263.621 19.135,264.227 18.921,265.583 18.598 C 266.354 18.415,270.767 18.640,271.581 18.905 " stroke="none" fill="#683993" fill-rule="evenodd"></path><path id="path2" d="M23.958 49.455 C 24.348 49.490,24.985 49.490,25.375 49.455 C 25.765 49.420,25.446 49.392,24.667 49.392 C 23.887 49.392,23.569 49.420,23.958 49.455 " stroke="none" fill="#993300" fill-rule="evenodd"></path><path id="path3" d="M47.388 5.597 C 47.327 5.757,47.441 6.003,47.679 6.222 L 48.071 6.583 47.765 6.215 C 47.597 6.012,47.504 5.730,47.558 5.590 C 47.612 5.449,47.619 5.333,47.573 5.333 C 47.527 5.333,47.444 5.452,47.388 5.597 M56.712 10.333 C 56.712 10.746,56.745 10.915,56.784 10.708 C 56.824 10.502,56.824 10.165,56.784 9.958 C 56.745 9.752,56.712 9.921,56.712 10.333 M56.500 11.821 C 56.500 12.146,56.402 12.334,56.208 12.385 C 55.989 12.442,56.009 12.466,56.292 12.481 C 56.613 12.497,56.667 12.416,56.667 11.917 C 56.667 11.596,56.629 11.333,56.583 11.333 C 56.538 11.333,56.500 11.553,56.500 11.821 M42.801 15.958 C 42.508 16.300,42.287 16.667,42.375 16.667 C 42.409 16.667,42.604 16.442,42.807 16.167 C 43.209 15.623,43.205 15.488,42.801 15.958 " stroke="none" fill="#ff0000" fill-rule="evenodd"></path><path id="path4" d="M55.458 1.736 C 55.023 1.957,54.667 2.095,54.667 2.043 C 54.667 1.991,54.535 2.067,54.375 2.212 C 54.215 2.357,54.029 2.485,53.962 2.496 C 53.652 2.546,52.336 3.194,52.245 3.341 C 52.189 3.431,52.079 3.465,52.000 3.417 C 51.921 3.368,51.809 3.404,51.752 3.497 C 51.694 3.590,51.501 3.667,51.323 3.667 C 51.146 3.667,50.999 3.723,50.997 3.792 C 50.996 3.860,50.640 4.079,50.206 4.278 C 47.017 5.736,47.098 5.633,48.335 6.668 L 49.170 7.367 48.830 7.809 C 48.643 8.051,48.179 8.700,47.798 9.250 C 47.418 9.800,47.045 10.275,46.970 10.306 C 46.895 10.336,46.833 10.449,46.832 10.556 C 46.831 10.662,46.572 11.088,46.256 11.500 C 45.032 13.098,43.287 15.476,41.486 18.000 C 41.127 18.504,40.775 18.992,40.705 19.083 C 40.635 19.175,40.409 19.475,40.203 19.750 C 39.997 20.025,39.715 20.400,39.577 20.583 C 39.438 20.767,39.083 21.267,38.788 21.695 C 37.613 23.397,36.231 25.294,35.561 26.127 C 35.172 26.610,34.807 27.154,34.749 27.336 C 34.691 27.518,34.592 27.667,34.528 27.667 C 34.464 27.667,34.227 27.967,34.000 28.333 C 33.773 28.700,33.531 29.000,33.461 29.000 C 33.391 29.000,33.333 29.098,33.333 29.219 C 33.333 29.339,33.200 29.583,33.038 29.760 C 32.875 29.938,32.275 30.721,31.703 31.500 C 31.131 32.279,30.550 33.067,30.411 33.250 C 30.272 33.433,29.625 34.333,28.974 35.250 C 28.323 36.167,27.725 36.942,27.645 36.972 C 27.565 37.003,27.500 37.123,27.500 37.238 C 27.500 37.354,27.341 37.629,27.147 37.849 C 26.953 38.070,26.616 38.512,26.399 38.833 C 26.181 39.154,25.834 39.642,25.628 39.917 C 23.910 42.206,23.394 42.907,23.251 43.143 C 23.020 43.523,21.793 45.232,21.678 45.333 C 21.626 45.379,21.508 45.541,21.417 45.694 C 21.325 45.846,20.887 46.469,20.444 47.077 C 19.516 48.350,19.524 48.514,20.521 48.772 C 22.389 49.254,22.947 49.333,24.476 49.333 L 26.113 49.333 26.723 48.674 C 27.059 48.311,27.333 47.936,27.333 47.841 C 27.333 47.745,27.397 47.667,27.474 47.667 C 27.551 47.667,27.757 47.387,27.932 47.046 C 28.107 46.705,28.373 46.311,28.524 46.171 C 28.675 46.031,29.198 45.317,29.685 44.583 C 30.173 43.850,30.914 42.800,31.331 42.250 C 31.749 41.700,32.689 40.401,33.420 39.363 C 34.557 37.750,35.177 36.891,35.790 36.082 C 35.860 35.990,36.251 35.430,36.661 34.838 C 37.070 34.246,37.539 33.628,37.702 33.464 C 37.866 33.301,38.000 33.110,38.000 33.040 C 38.000 32.970,38.169 32.724,38.375 32.492 C 38.831 31.981,39.500 31.047,39.500 30.923 C 39.500 30.874,39.617 30.702,39.760 30.542 C 39.989 30.285,40.447 29.655,42.094 27.333 C 43.534 25.302,44.210 24.410,44.345 24.361 C 44.430 24.331,44.500 24.232,44.500 24.142 C 44.500 24.004,44.813 23.538,45.545 22.583 C 45.615 22.492,45.913 22.079,46.206 21.667 C 48.136 18.955,49.506 17.055,49.657 16.882 C 49.754 16.771,49.833 16.603,49.833 16.507 C 49.833 16.411,49.892 16.333,49.964 16.333 C 50.036 16.333,50.225 16.113,50.384 15.844 C 50.543 15.575,50.821 15.181,51.002 14.969 C 51.183 14.757,51.705 14.058,52.163 13.417 C 52.621 12.775,53.059 12.173,53.136 12.079 C 53.214 11.985,53.411 11.704,53.574 11.454 C 53.964 10.859,54.109 10.880,55.000 11.667 C 56.519 13.007,56.610 12.757,56.930 6.333 C 56.983 5.279,57.083 4.192,57.152 3.917 C 57.221 3.642,57.295 2.948,57.317 2.375 L 57.357 1.333 56.803 1.334 C 56.499 1.334,55.894 1.515,55.458 1.736 M290.833 24.750 L 290.833 46.500 294.833 46.500 L 298.833 46.500 298.833 44.904 L 298.833 43.308 299.708 44.053 C 300.190 44.462,300.846 44.954,301.167 45.145 C 302.296 45.817,303.325 46.333,303.536 46.334 C 303.654 46.335,303.958 46.444,304.213 46.577 C 305.497 47.247,310.857 47.394,312.167 46.796 C 312.487 46.649,313.125 46.410,313.583 46.265 C 316.236 45.423,319.860 42.162,321.287 39.333 C 321.542 38.829,321.831 38.330,321.931 38.224 C 322.030 38.118,322.280 37.406,322.486 36.641 C 322.692 35.876,322.928 35.122,323.011 34.965 C 323.522 33.995,323.511 27.111,322.997 26.597 C 322.907 26.507,322.833 26.322,322.833 26.186 C 322.833 25.735,322.129 23.319,321.938 23.116 C 321.834 23.007,321.542 22.481,321.288 21.948 C 320.759 20.837,320.880 21.006,319.328 19.203 C 318.674 18.444,317.939 17.699,317.695 17.548 C 317.450 17.396,317.063 17.111,316.833 16.913 C 316.071 16.256,314.742 15.545,313.573 15.170 C 312.937 14.966,312.236 14.713,312.016 14.608 C 311.463 14.344,305.857 14.348,305.317 14.613 C 305.097 14.721,304.504 14.937,304.000 15.093 C 302.768 15.474,301.157 16.384,299.981 17.362 C 299.450 17.805,298.974 18.167,298.924 18.167 C 298.874 18.167,298.833 14.754,298.833 10.583 L 298.833 3.000 294.833 3.000 L 290.833 3.000 290.833 24.750 M340.083 14.435 C 339.900 14.480,339.600 14.583,339.417 14.663 C 339.233 14.744,338.671 14.936,338.167 15.091 C 337.145 15.406,335.147 16.448,334.443 17.034 C 331.469 19.511,329.430 22.552,328.823 25.417 C 328.707 25.967,328.551 26.497,328.476 26.596 C 327.981 27.251,327.980 33.817,328.474 34.785 C 328.558 34.949,328.753 35.600,328.907 36.232 C 329.187 37.380,330.308 39.735,331.098 40.833 C 331.765 41.761,333.881 44.000,334.091 44.000 C 334.196 44.000,334.417 44.149,334.582 44.332 C 334.995 44.788,337.270 46.086,338.083 46.329 C 338.450 46.439,339.012 46.649,339.333 46.796 C 340.642 47.394,346.003 47.247,347.287 46.577 C 347.542 46.444,347.847 46.335,347.965 46.334 C 348.440 46.332,350.402 45.152,351.785 44.037 L 352.487 43.471 352.535 44.944 L 352.583 46.417 356.625 46.461 L 360.667 46.506 360.667 30.833 L 360.667 15.161 356.625 15.205 L 352.583 15.250 352.500 16.721 L 352.417 18.191 351.927 17.679 C 351.658 17.397,351.339 17.167,351.219 17.167 C 351.098 17.167,351.000 17.094,351.000 17.006 C 351.000 16.740,348.485 15.358,347.500 15.083 C 346.996 14.942,346.433 14.738,346.250 14.630 C 345.914 14.431,340.763 14.268,340.083 14.435 M364.834 15.292 C 364.835 15.512,365.800 18.008,365.964 18.216 C 366.051 18.326,366.293 18.942,366.503 19.583 C 366.712 20.225,366.937 20.787,367.004 20.833 C 367.070 20.879,367.326 21.477,367.572 22.161 C 367.817 22.845,368.081 23.483,368.157 23.578 C 368.233 23.672,368.495 24.310,368.740 24.994 C 368.985 25.678,369.247 26.316,369.323 26.411 C 369.398 26.506,369.631 27.071,369.841 27.667 C 370.051 28.262,370.284 28.831,370.358 28.930 C 370.433 29.029,370.689 29.629,370.928 30.263 C 371.166 30.898,371.536 31.798,371.749 32.264 C 371.962 32.729,372.230 33.423,372.345 33.805 C 372.459 34.187,372.604 34.500,372.667 34.500 C 372.729 34.500,372.875 34.819,372.991 35.208 C 373.106 35.598,373.377 36.292,373.593 36.750 C 373.808 37.208,374.182 38.108,374.423 38.750 C 374.664 39.392,374.921 39.992,374.992 40.083 C 375.064 40.175,375.219 40.550,375.335 40.917 C 375.452 41.283,375.761 42.041,376.023 42.599 C 376.604 43.838,376.604 43.829,376.064 44.984 C 375.824 45.497,375.366 46.479,375.046 47.167 C 374.726 47.854,374.140 49.097,373.743 49.929 C 373.346 50.761,372.971 51.642,372.909 51.887 C 372.848 52.133,372.739 52.333,372.669 52.333 C 372.598 52.333,372.444 52.577,372.327 52.875 C 372.209 53.173,371.798 54.092,371.412 54.917 C 371.026 55.742,370.658 56.585,370.594 56.792 C 370.530 56.998,370.408 57.167,370.322 57.167 C 370.237 57.167,370.167 57.279,370.167 57.417 C 370.167 57.632,370.751 57.667,374.425 57.667 L 378.684 57.667 378.939 57.042 C 379.080 56.698,379.460 55.854,379.785 55.167 C 380.383 53.899,381.062 52.430,381.751 50.917 C 381.959 50.458,382.476 49.348,382.898 48.450 C 383.321 47.552,383.667 46.785,383.667 46.746 C 383.667 46.708,383.993 45.980,384.392 45.130 C 385.171 43.470,385.707 42.312,386.616 40.333 C 386.932 39.646,387.404 38.633,387.664 38.083 C 388.538 36.237,389.333 34.488,389.333 34.413 C 389.333 34.372,389.662 33.644,390.064 32.795 C 390.466 31.945,391.178 30.439,391.647 29.447 C 392.116 28.455,392.500 27.615,392.500 27.580 C 392.500 27.524,393.260 25.871,394.415 23.417 C 395.356 21.418,396.130 19.707,396.339 19.167 C 396.463 18.846,396.608 18.546,396.661 18.500 C 396.736 18.435,397.851 16.025,398.140 15.302 C 398.171 15.225,396.296 15.181,393.973 15.205 L 389.750 15.250 389.392 16.000 C 389.031 16.755,388.331 18.259,387.336 20.417 C 387.040 21.058,386.543 22.108,386.230 22.750 C 385.917 23.392,385.663 23.971,385.664 24.038 C 385.666 24.105,385.361 24.818,384.987 25.622 C 384.614 26.426,384.082 27.571,383.805 28.167 C 383.529 28.762,383.090 29.700,382.830 30.250 C 381.625 32.803,381.166 33.846,381.162 34.040 C 381.159 34.155,381.070 34.100,380.963 33.917 C 380.857 33.733,380.791 33.554,380.816 33.519 C 380.841 33.483,380.795 33.408,380.713 33.352 C 380.632 33.296,380.390 32.762,380.177 32.167 C 379.964 31.571,379.737 31.046,379.673 31.000 C 379.609 30.954,379.363 30.392,379.127 29.750 C 378.601 28.322,377.757 26.258,377.423 25.583 C 377.287 25.308,376.949 24.502,376.671 23.792 C 375.527 20.862,375.140 19.918,375.017 19.755 C 374.946 19.661,374.711 19.096,374.496 18.500 C 374.281 17.904,374.057 17.379,374.000 17.333 C 373.943 17.287,373.722 16.781,373.511 16.208 L 373.126 15.167 368.980 15.167 C 366.699 15.167,364.834 15.223,364.834 15.292 M309.500 22.277 C 315.620 23.957,317.352 32.941,312.425 37.450 C 310.589 39.131,309.515 39.537,306.917 39.533 C 301.677 39.525,298.464 35.808,298.702 30.030 C 298.941 24.218,303.818 20.717,309.500 22.277 M347.120 22.275 C 348.988 22.742,351.274 24.712,351.924 26.412 C 352.082 26.827,352.266 27.167,352.333 27.167 C 352.769 27.167,352.999 31.546,352.648 33.183 C 351.105 40.377,340.748 41.942,337.409 35.484 C 336.387 33.510,335.807 29.317,336.418 28.332 C 336.503 28.195,336.734 27.621,336.931 27.057 C 338.320 23.087,342.509 21.121,347.120 22.275 M25.702 25.546 C 25.492 25.842,24.838 26.741,24.248 27.545 C 23.658 28.349,23.087 29.174,22.979 29.378 C 22.872 29.583,22.731 29.787,22.667 29.833 C 22.603 29.879,21.975 30.728,21.271 31.720 C 20.568 32.711,19.916 33.611,19.822 33.720 C 19.729 33.828,18.907 34.967,17.997 36.250 C 17.086 37.533,16.283 38.659,16.212 38.751 C 14.190 41.378,12.667 43.656,12.667 44.055 C 12.667 44.486,13.913 45.590,15.622 46.674 C 16.830 47.440,16.867 47.423,18.323 45.385 C 19.428 43.841,20.112 42.905,21.135 41.541 C 21.702 40.784,22.167 40.109,22.167 40.041 C 22.168 39.973,22.393 39.677,22.667 39.384 C 22.942 39.091,23.167 38.772,23.167 38.676 C 23.167 38.579,23.237 38.500,23.322 38.500 C 23.408 38.500,23.526 38.349,23.584 38.164 C 23.643 37.979,23.911 37.587,24.179 37.293 C 24.447 36.999,24.667 36.693,24.667 36.611 C 24.667 36.530,24.813 36.303,24.993 36.107 C 25.396 35.665,27.102 33.373,28.388 31.543 C 28.920 30.788,29.443 30.073,29.552 29.955 C 30.611 28.808,30.731 28.133,29.958 27.671 C 29.477 27.383,28.942 26.966,28.027 26.167 C 26.696 25.004,26.184 24.867,25.702 25.546 M14.750 26.606 C 13.908 27.791,11.649 30.862,11.457 31.083 C 11.378 31.175,10.637 32.188,9.812 33.333 C 8.986 34.479,8.222 35.492,8.114 35.583 C 7.619 36.002,7.859 37.038,8.997 39.395 C 10.052 41.579,10.839 42.236,11.119 41.166 C 11.166 40.983,11.266 40.833,11.339 40.833 C 11.413 40.833,11.645 40.552,11.855 40.208 C 12.065 39.865,12.315 39.500,12.410 39.397 C 12.506 39.295,12.996 38.629,13.500 37.917 C 14.004 37.206,14.623 36.380,14.875 36.082 C 15.127 35.783,15.333 35.490,15.333 35.429 C 15.333 35.369,15.410 35.229,15.503 35.118 C 15.596 35.007,16.062 34.392,16.538 33.750 C 17.014 33.108,17.537 32.438,17.702 32.260 C 17.866 32.083,18.000 31.868,18.000 31.784 C 18.000 31.700,18.452 31.038,19.005 30.313 L 20.011 28.995 19.464 28.445 C 19.163 28.142,18.635 27.725,18.292 27.517 C 17.948 27.309,17.667 27.076,17.667 26.998 C 17.667 26.920,17.535 26.814,17.375 26.762 C 17.215 26.710,16.821 26.443,16.500 26.168 C 15.700 25.482,15.517 25.528,14.750 26.606 " stroke="none" fill="#ef6333" fill-rule="evenodd"></path></g></svg>