<?xml version="1.0" encoding="utf-8"?>
<!-- Generator: Adobe Illustrator 25.2.3, SVG Export Plug-In . SVG Version: 6.00 Build 0)  -->
<svg version="1.1" id="Layer_1" xmlns="http://www.w3.org/2000/svg" xmlns:xlink="http://www.w3.org/1999/xlink" x="0px" y="0px"
	 viewBox="0 0 750 750" style="enable-background:new 0 0 750 750;" xml:space="preserve">
<style type="text/css">
	.st0{opacity:0.3;fill:url(#SVGID_1_);enable-background:new    ;}
	.st1{fill:#F0F2F5;}
	.st2{fill:#3DC480;}
	.st3{fill:url(#SVGID_2_);}
	.st4{fill:url(#SVGID_3_);}
	.st5{fill:#A05708;}
	.st6{fill:#F2DAD4;}
	.st7{fill:#40CD8A;}
	.st8{fill:#3D3D3D;}
	.st9{fill:url(#SVGID_4_);}
	.st10{fill:url(#SVGID_5_);}
	.st11{fill:#C6B3AF;}
	.st12{fill:url(#SVGID_6_);}
	.st13{fill:#97A2A5;}
	.st14{fill:#525252;}
	.st15{fill:#D3D6DB;}
	.st16{fill:#FFFFFF;}
	.st17{clip-path:url(#SVGID_8_);}
	.st18{fill:url(#SVGID_9_);}
	.st19{fill:url(#SVGID_10_);}
	.st20{fill:url(#SVGID_11_);}
	.st21{fill:url(#SVGID_12_);}
	.st22{fill:url(#SVGID_13_);}
	.st23{fill:url(#SVGID_14_);}
	.st24{fill:#FFAC00;}
	.st25{fill:#1C2B6B;}
	.st26{fill:#1E3286;}
	.st27{fill:url(#SVGID_15_);}
	.st28{fill:#F9F9F9;}
	.st29{fill:#1C80FF;}
	.st30{fill:none;stroke:#D3D6DB;stroke-width:0.25;stroke-miterlimit:10;}
	.st31{clip-path:url(#SVGID_17_);}
	.st32{fill:none;stroke:#1C80FF;stroke-miterlimit:10;}
	.st33{font-family:'Impact';}
	.st34{font-size:34.0488px;}
	.st35{fill:none;stroke:#1E3286;stroke-miterlimit:10;}
	.st36{fill:none;stroke:#FFAC00;stroke-miterlimit:10;}
</style>
<g>
	
		<linearGradient id="SVGID_1_" gradientUnits="userSpaceOnUse" x1="615.2303" y1="48.6173" x2="154.4148" y2="44.0095" gradientTransform="matrix(1 0 0 -1 0 752)">
		<stop  offset="0" style="stop-color:#D3D6DB"/>
		<stop  offset="1" style="stop-color:#7A869B"/>
	</linearGradient>
	<path class="st0" d="M103.2,702.6c-10,1.7-26,4.7-26,8.8c0,3.8,12.9,6.6,17.5,7.8c52,11.9,114.1-11.2,182.8-2.9
		c36.1,4.4,30.7,12.2,62.7,13.9c43.7,2.3,59.2-12,113.9-11.6c23.3,0.1,23.7,2.7,55.5,4.6c12.5,0.7,99.7,5.7,101.3-2.9
		c0.3-1.6-1.9-5.9-39.7-16.2C571,704,390.4,654.8,103.2,702.6z"/>
	<path class="st1" d="M601.1,403.7c-15.8-0.6-31.4,2.9-45.4,10.2c-23.1,12.1-40.9,33.5-51,58.2c-17.9,43.5-11.8,93.6-23.8,139.2
		c-10.8,41-36,76.7-70.9,100.6c62,13.6,125.2,21.8,188.6,21.6c41.6-0.1,82-6.5,111.5-39c28.8-31.6,39.1-75.2,31.6-117.7
		c-7.9-45.2-32.7-85.2-60.7-120.9c-14.1-18-29.8-35.8-50.4-45.1C621.3,406.5,611.3,404.1,601.1,403.7L601.1,403.7z"/>
	<path class="st2" d="M210.1,575.5c0,0,30.7-21.6,51.3-11.1c20.6,10.5,110.7,41.7,113.7,45c3.1,3.3-15.7,17.4-15.7,17.4L237,594.9
		L210.1,575.5z"/>
	
		<linearGradient id="SVGID_2_" gradientUnits="userSpaceOnUse" x1="3.7002" y1="80.778" x2="107.2573" y2="81.5735" gradientTransform="matrix(1 0 0 -1 0 752)">
		<stop  offset="0" style="stop-color:#FF8A00"/>
		<stop  offset="1" style="stop-color:#FF5E00"/>
	</linearGradient>
	<path class="st3" d="M74,644.9c0,0-4.7-7.8-10.4-7c-5.7,0.9-5.7,4.1-9,4.1c-3.3,0-17.2,0.1-22.1-1.5c-4.9-1.6-17.4-7.2-23-7.2
		c-5.7,0.1-7.3,7.4-4.8,14c2.5,6.5,10,21.2,23.3,28.5c13.3,7.3,36.2,24.3,39.5,26.7c3.3,2.4,11.5,6.5,18.9,5.6
		c7.4-0.9,8.2-4.2,8.1-5.8c0.3-1.9,1.1-3.6,2.4-5c0.8-0.8,4.9-6.6,5.7-10.7c0.1-1.1,0.5-2.2,1.1-3.2c0.6-1,1.3-1.9,2.3-2.5
		c0.4-0.3,0.7-0.6,1-1c0.2-0.4,0.4-0.8,0.5-1.3c0.1-0.5,0.1-0.9-0.1-1.4c-0.1-0.5-0.3-0.9-0.6-1.3c-1.7-2.5-2.7-0.8-3.8-1.7
		c-1.1-0.9-17.7-19.6-17.7-19.6L74,644.9z"/>
	
		<linearGradient id="SVGID_3_" gradientUnits="userSpaceOnUse" x1="-4154.2793" y1="-3347.9641" x2="-4875.2388" y2="-3933.3684" gradientTransform="matrix(1 0 0 -1 0 752)">
		<stop  offset="0" style="stop-color:#D3D6DB"/>
		<stop  offset="1" style="stop-color:#7A869B"/>
	</linearGradient>
	<path class="st4" d="M80.2,646.3c-3.8-1.1-7.7-1.8-11.6-1.9c-5.7,0-10.7,1.7-11.4,8.3c-0.8,6.6,6.6,19.6,15.8,24.5
		c9.1,4.9,13.1,6.4,18.1,4.7c4.9-1.7,10.6-5,10.6-9.1C101.6,668.7,80.2,646.3,80.2,646.3z"/>
	<path class="st5" d="M61.6,645.8c2.2-1,4.5-1.4,6.9-1.3c0.8,0,1.7,0,2.5,0.1l0.7-0.1c0,0-3.2-4.9-6.5-4.9c-3.3,0-4.1,0.8-4.1,1.7
		C61.1,642.7,61.3,644.3,61.6,645.8L61.6,645.8z"/>
	<path class="st6" d="M92.3,643.4c0,0-5.7,2.5-8.2,2.5c-2.5,0-5.7,0-6.5,2.5c-0.8,2.5-2.3,17.2,3.4,22.1c5.8,4.9,11.5,6.5,15.6,5.6
		c4.1-0.8,14.7-5.9,14.7-5.9L92.3,643.4z"/>
	<path class="st7" d="M90.7,651c-0.4,4.2,11.4,30.3,21.6,32.6c14,3.2,48.3-13.5,58.9-20.1c10.3-6.5,65.4-27.6,67-28.4
		c1.6-0.8,3.3-3.3,4.1-1.7c0.8,1.7,0,9.8,5.9,14.7c5.9,4.9,44.5,29.2,49.5,34.1c5,4.9,27.2,22.8,34.7,26.8c7.4,4,43.5,8.7,64,6.1
		c20.5-2.6,34.3-21.6,34.3-21.6L388.1,620c0,0-14.4-11.5-19.9-13.8c-5.5-2.4-13.7,1-14.5,3.4c-0.8,2.5-2.4,5.8-5.7,3.3
		c-3.3-2.4-75.8-42.1-98.8-47.6c-23-5.6-53.2,20.1-59.7,24.3c-6.5,4.2-72.7,51.4-77.6,52.3C107,642.7,91.4,643.6,90.7,651z"/>
	<path class="st6" d="M347.2,414.4c0,0,1.8,17.2,3.4,18.9c1.6,1.6,4.1,0.8,4.2,6.5c0,5.7,1,18.9,2.6,19.7c1.6,0.8,7.4-2.5,8.2-2.5
		s9.1,6.5,10.7,9.8c1.7,3.3,7.5,12.3,12.4,13c4.9,0.8,11.4-9.1,14.7-6.6c1.4,1.2,2.6,2.7,3.5,4.4c0.9,1.7,1.4,3.5,1.5,5.4
		c0,2.5,39.3-9.3,39.2-24.1c0-4.2-10.9-26.2-13.3-31.1c-2.4-4.9-6-26.2-6.8-31.9c-0.9-5.7-10.8-22.1-27.3-27.7
		C383.7,362.5,345.4,395.6,347.2,414.4z"/>
	<path class="st8" d="M396.8,362.4c10.9,2.6,27.2,19.5,29.7,27.7c2.5,8.2,8.8,29.4,8.5,33.6c-0.7,9-16.2,21.4-18.7,17.4
		c-2.5-4.1-10.3-17.9-10.8-22.9c-0.9-8.2-5-16.4-10.8-16.3c-1.7,0-6.5,7.4-7.3,11.5c-0.9,5,4.2,14.7,7.5,17.2
		c3.3,2.4,11.8,7.2,13.3,12.2c2.5,9-2.2,27.9-4.7,30.4c-2.4,2.5-10.1,7.8-14.7,6.6c-6.6-1.7-10.7-11.4-14.8-16
		c-1.7-1.9-5-3.5-6.8-5.8c-1.8-2.3,17.6-11.6,17.2-16.6c-1.8-19.7-7.7-43.2-19.9-41.7c-13.9,1.7-15.5,14.9-24.5,16.6
		c-5,0.9-25.4,4.3-29.7-21.1c-1.4-8.1,20.5,0.7,39.3-11.8C354.3,380,373.8,356.8,396.8,362.4z"/>
	
		<linearGradient id="SVGID_4_" gradientUnits="userSpaceOnUse" x1="42432.8047" y1="-9602.2822" x2="56694.9414" y2="-12923.6553" gradientTransform="matrix(1 0 0 -1 0 752)">
		<stop  offset="0" style="stop-color:#FF5C00"/>
		<stop  offset="1" style="stop-color:#FF5E00"/>
	</linearGradient>
	<path class="st9" d="M404.3,488.6c0-4.2,6.5-9.1,10.6-13.2c4.1-4.1,31.8-23.3,32.6-26.5c0.8-3.2,28,8.8,38,33.3
		c10,24.5,22.1,103.2-6.2,155.9c-28.3,52.7-51.1,66.8-52,61.9c-0.9-4.9,0-9-9.1-13.9c-9.1-4.9-26.4-25.2-30.6-32.6
		c-4.2-7.3-23.3-42.5-21.6-46.5c1.7-4.1,17.6-60,25.6-76.5c8.1-16.5,15.4-28,15.3-32.9C406.9,492.8,404.3,491.9,404.3,488.6z"/>
	
		<linearGradient id="SVGID_5_" gradientUnits="userSpaceOnUse" x1="275.8538" y1="182.3946" x2="345.2014" y2="165.6722" gradientTransform="matrix(1 0 0 -1 0 752)">
		<stop  offset="0" style="stop-color:#97A2A5"/>
		<stop  offset="1" style="stop-color:#181818"/>
	</linearGradient>
	<path class="st10" d="M273,576.6l12.2-12.4l83.8,20.7l14.9,17.1L273,576.6z"/>
	<path class="st11" d="M316.3,556.6c0,0-8.1,7.4-9.7,14l5.7-1.7l10.6-5l7.3-4.2l-3.3-3.3L316.3,556.6z"/>
	<path class="st6" d="M360.8,554.4c0,0-8.5-0.6-12.6-2.2c-3.9-1.7-8.2-2.3-12.3-1.6c-4.1,0.8-12.3-3.2-16.4-2.3
		c-4.1,0.8-18,0.1-18.9,1c-0.6,0.5-1,1.1-1.3,1.9c-0.3,0.7-0.4,1.5-0.3,2.3c0,2.5,3.3,3.3,4.1,3.3c0.8,0,16.4,0.7,20.5,2.3
		c0,0-7.4,0.9-11.5,5c-4.1,4.1-10.6,10-10.6,10.7c0,0.8,0,4.1,0.8,4.1h1.7c0,0,0.8,1.7,1.7,1.7c1.6-1,3.2-1.8,5-2.5
		c0.8,0-2.4,1.7-1.7,3.3c0.4,0.8,1,1.4,1.7,1.8c0.7,0.4,1.6,0.6,2.4,0.6c1.7,0,11.4-5,14.7-4.2c3.3,0.8,9,1.6,11.5,3.2
		c2.5,1.6,10.7,3.2,12.3,2.4C353.4,584.3,360.8,554.4,360.8,554.4z"/>
	
		<linearGradient id="SVGID_6_" gradientUnits="userSpaceOnUse" x1="421.0038" y1="274.6907" x2="421.0038" y2="120.0526" gradientTransform="matrix(1 0 0 -1 0 752)">
		<stop  offset="0" style="stop-color:#FF8A00"/>
		<stop  offset="1" style="stop-color:#FF8A00;stop-opacity:0"/>
	</linearGradient>
	<path class="st12" d="M450.1,477.6c-16.6,2.2-21.1,31.3-19.3,42.8c0,0,16,56.5,10.3,56.5c-5.7,0-41.1-13.6-46.9-15.2
		c-5.8-1.6-25.5-10.5-28.8-10.4c-3.3,0-10.6,10-13,16.5c-2.4,6.5-5.6,22.2-1.5,22.2c4.1,0,19.7-0.1,23,2.3
		c3.3,2.4,25.6,20.3,37.9,25.1c12.4,4.8,56.7,16.8,64.1,14.3c7.4-2.5,17.1-15,17.1-19.8c0-4.9-1.3-65.6-6.4-81.1
		C481.6,515.1,482.9,473.3,450.1,477.6z"/>
	<path class="st13" d="M276.3,576.5l-63.2-97.1l17.2-0.1c0.3,0,0.5,0.1,0.8,0.2c0.2,0.1,0.4,0.3,0.6,0.5l55.2,83.1
		c0.2,0.3,0.3,0.7,0.3,1c0,0.4-0.2,0.7-0.4,1L276.3,576.5z"/>
	<path class="st14" d="M273,576.5l-61.3-94.3c-0.2-0.3-0.3-0.6-0.3-0.9c0-0.3,0.1-0.6,0.2-0.9c0.2-0.3,0.4-0.5,0.7-0.7
		c0.3-0.2,0.6-0.3,0.9-0.3l0,0l63.2,97.1c-0.2,0.3-0.4,0.5-0.7,0.7c-0.3,0.2-0.6,0.3-1,0.3c-0.3,0-0.7-0.1-1-0.3
		C273.4,577.1,273.2,576.8,273,576.5z"/>
	<path class="st14" d="M381.3,605.9l-106.9-23.4c-0.4-0.1-0.7-0.3-1-0.6c-0.3-0.3-0.4-0.7-0.4-1.1v-4.4l110,24.8
		c0.3,0.1,0.5,0.2,0.7,0.4c0.2,0.2,0.4,0.4,0.4,0.7c0.1,0.3,0.1,0.5,0.1,0.8c0,0.3-0.2,0.5-0.3,0.7l-0.9,1.3
		c-0.2,0.2-0.4,0.4-0.7,0.5C381.9,605.9,381.6,606,381.3,605.9z"/>
	<path class="st1" d="M246.1,285.7l-158.2,1c-8.3,0.1-15,5.9-14.9,13l0.9,100.7c0.1,7.1,6.8,12.9,15.2,12.8l158.2-1
		c8.3-0.1,15-5.9,14.9-13l-0.9-100.7C261.2,291.4,254.4,285.7,246.1,285.7z"/>
	<path class="st15" d="M142.5,296.7l-56.6,0.4l0.1,8.3l56.6-0.4L142.5,296.7z"/>
	<path class="st16" d="M239.9,314.5l-142.5,1.1c-6.2,0-11.2,5.1-11.2,11.4l0.5,60.9c0,6.2,5.1,11.2,11.4,11.2l142.5-1.1
		c6.2,0,11.2-5.1,11.2-11.4l-0.5-60.9C251.2,319.5,246.1,314.5,239.9,314.5z"/>
	<path class="st15" d="M116.3,343.3l-20.8,0.2l0,3.7l20.8-0.2L116.3,343.3z"/>
	<path class="st15" d="M116.4,355.4l-20.8,0.2l0,3.7l20.8-0.2L116.4,355.4z"/>
	<path class="st15" d="M116.5,367.4l-20.7,0.2l0,3.7l20.7-0.2L116.5,367.4z"/>
	<path class="st15" d="M224.6,359.2L224.6,359.2c-8.2,0.1-14.8,6.8-14.7,14.9v0c0.1,8.2,6.8,14.8,14.9,14.7l0,0
		c8.2-0.1,14.8-6.8,14.7-14.9l0,0C239.5,365.7,232.8,359.1,224.6,359.2z"/>
	<g>
		<defs>
			<circle id="SVGID_7_" cx="224.7" cy="374.2" r="12.6"/>
		</defs>
		<clipPath id="SVGID_8_">
			<use xlink:href="#SVGID_7_"  style="overflow:visible;"/>
		</clipPath>
		<g class="st17">
			<path class="st6" d="M216.8,372.8c-1.2,2.6-0.3,5.7,0.3,6.4c0.6,0.8,2.8,3.6,3.1,4.4c0.3,0.8,1.8,4.6,2.3,5.1
				c1.8,1.7,7.6-1.7,7.3-2c-0.2-0.2-0.4-0.5-0.5-0.8c-0.1-0.3-0.2-0.6-0.1-0.9c0.1-0.7,2-0.3,2.5-1s0-2.4-0.2-3
				c-0.2-0.6-0.1-2.3,0-2.4c0.1-0.1,1.1-0.4,1.2-0.7c0.1-0.3-1.4-1.9-2.1-2.5c-0.7-0.7-0.3-0.9-0.3-1.2c0-0.4-1.9-2.5-1.9-2.5
				C226.3,369.3,218,370.2,216.8,372.8z"/>
			<path class="st8" d="M226.3,377.7c0.4,0.5,0.8,0.9,1.1,1.4c0.6,0.6,3.9-0.7,3.9-0.2c0.1,0.5-0.1,1.1-0.1,1.5
				c0.1,1,0.8,2.6,0.3,3.6c-0.4,0.7-1.9,1-2.5,1c-0.6,0-3.4-1.5-4.2-2.9c-0.4-0.7-0.1-2.3,0-3c0.1-0.7-0.5-2.4-1.2-2.8
				c-0.6-0.4-2-0.6-2.2-0.4c-0.7,0.7-0.1,2.1,0.8,3.1c0.5,0.6,1.3,3.1,1.6,3.9c0.2,0.8-3,1.2-4.2,0.3c-0.5-0.4-2.4-3.6-3.1-4.8
				c-0.7-1.2-0.9-5.1,0-6.7c1.9-3.4,6.9-3.1,7.8-3.3c3.6-0.9,5-4.5,5.8-3.4c2.6,3.4-0.1,5.5-0.8,6c-1.2,0.9-3-0.4-4.8,1.1
				C223.4,373.1,224.6,375.6,226.3,377.7"/>
		</g>
	</g>
	<path class="st7" d="M135.7,320.9l-34.3,0.3c-3.3,0-6,2.7-6,6.1c0,3.3,2.7,6,6.1,6l34.3-0.3c3.3,0,6-2.7,6-6.1
		C141.8,323.6,139.1,320.9,135.7,320.9z"/>
	<path class="st15" d="M205.5,342.8l-83.5,0.6l0,3.7l83.5-0.6L205.5,342.8z"/>
	<path class="st15" d="M205.6,354.9l-83.5,0.6l0,3.7l83.5-0.6L205.6,354.9z"/>
	<path class="st15" d="M177.9,367.2l-55.6,0.4l0,3.7l55.6-0.4L177.9,367.2z"/>
	
		<linearGradient id="SVGID_9_" gradientUnits="userSpaceOnUse" x1="645.1353" y1="375.025" x2="643.2581" y2="619.4731" gradientTransform="matrix(1 0 0 -1 0 752)">
		<stop  offset="0" style="stop-color:#4E9CFF"/>
		<stop  offset="1" style="stop-color:#176AD4"/>
	</linearGradient>
	<path class="st18" d="M644.3,33.5l-3.6,0l0.1,7.2l3.6,0L644.3,33.5z"/>
	
		<linearGradient id="SVGID_10_" gradientUnits="userSpaceOnUse" x1="651.4161" y1="-426.8948" x2="646.6209" y2="197.3943" gradientTransform="matrix(1 0 0 -1 0 752)">
		<stop  offset="0" style="stop-color:#4E9CFF"/>
		<stop  offset="1" style="stop-color:#176AD4"/>
	</linearGradient>
	<path class="st19" d="M646.7,355.6l-3.1,0l0,6.2l3.1,0L646.7,355.6z"/>
	
		<linearGradient id="SVGID_11_" gradientUnits="userSpaceOnUse" x1="-17386.125" y1="333.9145" x2="-17663.1328" y2="331.7928" gradientTransform="matrix(1 0 0 -1 0 752)">
		<stop  offset="0" style="stop-color:#4E9CFF"/>
		<stop  offset="1" style="stop-color:#176AD4"/>
	</linearGradient>
	<path class="st20" d="M357.6,280.4l-7.2,0.1l0,3.6l7.2-0.1L357.6,280.4z"/>
	
		<linearGradient id="SVGID_12_" gradientUnits="userSpaceOnUse" x1="954.4745" y1="-39901.625" x2="734.0602" y2="-11201.0049" gradientTransform="matrix(1 0 0 -1 0 752)">
		<stop  offset="0" style="stop-color:#4E9CFF"/>
		<stop  offset="1" style="stop-color:#176AD4"/>
	</linearGradient>
	<path class="st21" d="M646.7,342.5h-3.6v-15.1h3.6V342.5z M646.5,312.4h-3.6l-0.1-15.1h3.6L646.5,312.4z M646.2,282.2h-3.6v-15.1
		h3.6V282.2z M645.9,252h-3.6l-0.1-15.1h3.7V252z M645.7,221.8h-3.6v-15.1h3.6V221.8z M645.4,191.6h-3.6v-15.1h3.6V191.6z
		 M645.2,161.4h-3.6v-15.1h3.6V161.4z M645.1,131.2h-3.6v-15.1h3.6V131.2z M644.8,101h-3.6L641,86h3.6L644.8,101z M644.6,70.8H641
		l-0.1-15.1h3.6L644.6,70.8z"/>
	
		<linearGradient id="SVGID_13_" gradientUnits="userSpaceOnUse" x1="73757.8672" y1="1033.5498" x2="86110.3672" y2="1128.4125" gradientTransform="matrix(1 0 0 -1 0 752)">
		<stop  offset="0" style="stop-color:#4E9CFF"/>
		<stop  offset="1" style="stop-color:#176AD4"/>
	</linearGradient>
	<path class="st22" d="M371.6,280.2h14v3.6h-14L371.6,280.2z M399.7,280h14v3.6h-14V280z M427.7,279.8h14v3.6h-14L427.7,279.8z
		 M455.8,279.6h14v3.6h-14V279.6z M483.8,279.3h14v3.6h-14V279.3z M511.9,279.1h14v3.5h-14L511.9,279.1z M539.9,278.9h14v3.6h-14
		V278.9z M568,278.7h14v3.6h-14V278.7z M596.1,278.5h14v3.6h-14V278.5z M624.1,278.2h14v3.6h-14L624.1,278.2z M652.2,278h14v3.6h-14
		V278z M680.1,277.8h14v3.6h-14V277.8z"/>
	
		<linearGradient id="SVGID_14_" gradientUnits="userSpaceOnUse" x1="-17743.9883" y1="331.181" x2="-18020.998" y2="329.0594" gradientTransform="matrix(1 0 0 -1 0 752)">
		<stop  offset="0" style="stop-color:#4E9CFF"/>
		<stop  offset="1" style="stop-color:#176AD4"/>
	</linearGradient>
	<path class="st23" d="M715.5,277.6l-7.2,0.1l0,3.6l7.2-0.1L715.5,277.6z"/>
	<path class="st24" d="M51.6,239.1l-2.8,0l0,5.6l2.8,0L51.6,239.1z"/>
	<path class="st24" d="M53.5,476.9h-2.8l-0.1-11.6h2.8L53.5,476.9z M53.3,453.7h-2.8v-11.6h2.8V453.7z M53.1,430.5h-2.8v-11.6h2.8
		V430.5z M53,407.2h-2.8l-0.1-11.6h2.7L53,407.2z M52.8,384H50v-11.6h2.8V384z M52.6,360.8h-2.8v-11.6h2.8L52.6,360.8z M52.5,337.5
		h-2.8v-11.6h2.8L52.5,337.5z M52.3,314.3h-2.8l-0.1-11.6h2.8L52.3,314.3z M52.1,291h-2.8v-11.6h2.8V291z M51.9,267.8h-2.8v-11.6
		h2.8L51.9,267.8z"/>
	<path class="st24" d="M53.6,488.5l-2.8,0l0,5.6l2.8,0L53.6,488.5z"/>
	<path class="st24" d="M276.7,260.5l-5.6,0l0,2.8l5.6,0L276.7,260.5z"/>
	<path class="st24" d="M260.4,263.4h-10.8v-2.7h10.8V263.4z M238.8,263.6H228v-2.7h10.8V263.6z M217.2,263.8h-10.8V261h10.8V263.8z
		 M195.7,263.9h-10.8v-2.8h10.8L195.7,263.9z M174.1,264.1h-10.8v-2.7h10.8V264.1z M152.5,264.2h-10.8v-2.7h10.8V264.2z
		 M130.9,264.4l-10.8,0.1v-2.8h10.8L130.9,264.4z M109.2,264.6H98.4v-2.7l10.8-0.1V264.6z M87.7,264.7H76.9v-2.8h10.8L87.7,264.7z
		 M66.1,264.9H55.3v-2.6h10.8V264.9z M44.5,265H33.7v-2.7h10.8V265z M22.9,265.2H12.1v-2.7h10.8V265.2z"/>
	<path class="st25" d="M598,656.4c19.7-0.2,35.6-2.1,35.6-4.3c0-2.2-16-3.9-35.7-3.8c-19.7,0.2-35.6,2.1-35.6,4.3
		C562.3,654.9,578.3,656.6,598,656.4z"/>
	<path class="st26" d="M593.7,530.4c-19.4,1.8-12.5,60-12.5,60c5.3,50.2,11.9,72.8,16.8,74.4c4.9,1.6,14-71.4,13.9-89.2
		C611.9,575.6,613.1,528.6,593.7,530.4z"/>
	<path class="st16" d="M597.1,656.7L597.1,656.7c-0.2,0-0.3,0-0.4-0.1c-0.1-0.1-0.2-0.1-0.2-0.2c-0.1-0.1-0.1-0.2-0.1-0.3
		c0-0.1,0-0.2,0-0.3c6-52.8-2.5-118.9-2.6-119.7c0-0.2,0-0.4,0.2-0.6c0.1-0.2,0.3-0.3,0.5-0.3c0.2,0,0.4,0,0.6,0.2
		c0.2,0.1,0.3,0.3,0.3,0.5c0.1,0.7,8.6,67.1,2.6,120c0,0.2-0.1,0.4-0.3,0.5C597.5,656.6,597.3,656.7,597.1,656.7z"/>
	<path class="st24" d="M535.2,503.3c-1.6,8.1,8.2,9.7,9.9,21c1.7,11.3-3.1,14.5-1.5,21.1c1.7,6.5,11.4,8,13.1,24.2
		c1.8,16.2-4.8,14.6-3.1,24.3c1.7,9.7,11.4,9.6,13.1,17.7c1.7,8.1,1.8,19.4,5.1,29.1c3.3,9.6,13.1,24.2,18,24.2
		c4.9,0,17.6-27.8,14.3-35.8c-3.3-8-8.2-9.6-8.2-16.1c-0.1-6.5,6.3-22.7,4.6-34c-1.7-11.3-16.3-16-18-24.1c-1.8-8.1,3-29.2-8.4-38.8
		C562.8,506.3,536.7,495.2,535.2,503.3z"/>
	<path class="st7" d="M689.2,519.9c5.8,5.7-12.9,8.2-14.4,19.5c-1.5,11.4-1.5,16.2-7.9,22.7c-6.4,6.5-16.1,8.2-14.4,17.9
		c1.7,9.7,5,19.4,0.2,24.3c-4.8,4.9-16.1,5-19.3,13.1c-3.2,8.1-1.5,17.8-7.9,26c-6.4,8.1-15.9,24.4-24.1,21.2
		c-8.2-3.2-3.6-40.5-0.4-47c3.2-6.5,6.4-11.4,6.3-16.2c0-4.9-1.7-13,1.5-21.1c3.2-8.1,21-11.5,22.5-16.4c1.6-4.9,3-30.8,12.7-37.4
		C653.6,520.2,679.5,510.3,689.2,519.9z"/>
	<path class="st16" d="M603.7,662c-0.1,0-0.3,0-0.4-0.1c-0.2-0.1-0.3-0.3-0.4-0.5c-0.1-0.2,0-0.4,0.1-0.6c0.1-0.1,6.5-11,7.8-16.5
		c0.3-1.4,0.8-3.6,1.2-6c1.7-9,4.3-22.6,8.5-26.8c6-6.1,15.5-24.7,22.1-48.4c8.1-29.3,35.6-38,35.9-38.1c0.1,0,0.2,0,0.3,0
		c0.1,0,0.2,0,0.3,0.1c0.1,0.1,0.2,0.1,0.2,0.2c0.1,0.1,0.1,0.2,0.1,0.3c0.1,0.2,0,0.4-0.1,0.6c-0.1,0.2-0.3,0.3-0.5,0.4
		c-0.3,0.1-26.9,8.6-34.8,37c-6.6,24-16.4,42.9-22.5,49.1c-3.8,3.9-6.4,17.7-8,26c-0.5,2.5-0.9,4.7-1.2,6.1
		c-1.4,5.7-7.7,16.5-7.9,16.9c-0.1,0.1-0.2,0.2-0.3,0.3S603.9,662,603.7,662L603.7,662z"/>
	<path class="st16" d="M589.7,658.5c-0.2,0-0.4-0.1-0.6-0.2c-0.2-0.1-0.2-0.4-0.2-0.6c0-0.2-0.3-21.3-6.5-27.4
		c-6.2-6.1-10-25.3-12.1-62c-1.9-33.3-25.9-60.6-26.2-60.8c-0.1-0.2-0.2-0.4-0.2-0.6s0.1-0.4,0.3-0.6c0.2-0.2,0.4-0.2,0.6-0.2
		c0.2,0,0.4,0.1,0.6,0.2c0.3,0.3,24.7,27.9,26.6,61.8c2,35.7,5.7,55.1,11.6,60.9c6.7,6.6,7,27.6,7,28.5c0,0.1,0,0.2-0.1,0.3
		c0,0.1-0.1,0.2-0.2,0.3c-0.1,0.1-0.2,0.1-0.3,0.2C590,658.5,589.9,658.5,589.7,658.5L589.7,658.5z"/>
	
		<linearGradient id="SVGID_15_" gradientUnits="userSpaceOnUse" x1="26609.541" y1="220.2664" x2="20373.4316" y2="183.0031" gradientTransform="matrix(1 0 0 -1 0 752)">
		<stop  offset="0" style="stop-color:#D3D6DB"/>
		<stop  offset="1" style="stop-color:#7A869B"/>
	</linearGradient>
	<path class="st27" d="M623.2,722.6l-49.3,0.4c-0.8,0-1.6-0.3-2.2-0.8c-0.6-0.5-1-1.3-1.1-2l-8.3-68.3l71.3-0.6l-7.2,68.5
		c-0.1,0.8-0.5,1.5-1,2.1C624.7,722.3,624,722.6,623.2,722.6z"/>
	<g>
		<g>
			<path class="st28" d="M605.8,70.7l-196.7,1.5c-10.3,0.1-18.6,8.5-18.6,18.8l1.1,146c0.1,10.3,8.5,18.6,18.8,18.6l196.7-1.5
				c10.3-0.1,18.6-8.5,18.6-18.8l-1.1-146C624.6,78.9,616.2,70.6,605.8,70.7z"/>
			<rect x="396.5" y="183.5" class="st16" width="140.2" height="48.2"/>
			<path class="st15" d="M461,205.2l-13.9,0.1l0,2.7l13.9-0.1L461,205.2z"/>
			<path class="st15" d="M413.7,98.1l-17.2,0.1l0,3.3l17.2-0.1L413.7,98.1z"/>
			<path class="st15" d="M407,112.6l-10.5,0.1l0,3.3l10.5-0.1L407,112.6z"/>
			<path class="st15" d="M461.1,213.9l-13.9,0.1l0,2.7l13.9-0.1L461.1,213.9z"/>
			<path class="st15" d="M461.1,222.6l-13.8,0.1l0,2.7l13.8-0.1L461.1,222.6z"/>
			<path class="st24" d="M476.2,188.6l-24.9,0.2c-2.4,0-4.4,2-4.3,4.4c0,2.4,2,4.3,4.4,4.3l24.9-0.2c2.4,0,4.4-2,4.3-4.4
				C480.6,190.6,478.6,188.6,476.2,188.6z"/>
			<path class="st29" d="M513.2,188.6l-24.9,0.2c-2.4,0-4.4,2-4.3,4.4c0,2.4,2,4.3,4.4,4.3l24.9-0.2c2.4,0,4.4-2,4.3-4.4
				C517.6,190.6,515.6,188.6,513.2,188.6z"/>
			<path class="st15" d="M526.7,204.8l-60.5,0.5l0,2.7l60.5-0.5L526.7,204.8z"/>
			<path class="st15" d="M526.8,213.6l-60.5,0.5l0,2.7l60.5-0.5L526.8,213.6z"/>
			<path class="st15" d="M506.7,222.4l-40.3,0.3l0,2.7l40.3-0.3L506.7,222.4z"/>
			<path class="st29" d="M605.8,70.7l-196.7,1c-10.3,0.1-18.6,5.9-18.6,13l0.1,8.4h234.1l-0.1-9.7C624.6,76.3,616.2,70.6,605.8,70.7
				z"/>
			<line class="st30" x1="390.7" y1="106.6" x2="624.9" y2="106.6"/>
			<line class="st30" x1="390.7" y1="120.8" x2="624.9" y2="120.8"/>
		</g>
		<circle class="st15" cx="415.5" cy="204.2" r="14.8"/>
		<g>
			<defs>
				<circle id="SVGID_16_" cx="414.3" cy="204.5" r="12.5"/>
			</defs>
			<clipPath id="SVGID_17_">
				<use xlink:href="#SVGID_16_"  style="overflow:visible;"/>
			</clipPath>
			<g class="st31">
				<path class="st6" d="M406.5,203.1c-1.2,2.6-0.3,5.6,0.3,6.4c0.6,0.7,2.8,3.6,3.1,4.4c0.3,0.8,1.8,4.6,2.3,5.1
					c1.8,1.7,7.6-1.7,7.3-2c-0.2-0.2-0.4-0.5-0.5-0.8c-0.1-0.3-0.2-0.6-0.1-0.9c0.1-0.7,2-0.3,2.4-1c0.5-0.7,0-2.4-0.2-3
					c-0.2-0.6-0.1-2.3,0-2.4c0.1-0.1,1.1-0.4,1.2-0.7c0.1-0.3-1.4-1.9-2.1-2.5c-0.7-0.6-0.3-0.9-0.3-1.2c0-0.4-1.9-2.5-1.9-2.5
					C415.9,199.6,407.6,200.5,406.5,203.1z"/>
				<path class="st8" d="M415.9,208c0.4,0.5,0.8,0.9,1.1,1.4c0.6,0.6,3.8-0.7,3.9-0.2c0.1,0.5-0.1,1-0.1,1.5c0.1,1,0.8,2.6,0.3,3.6
					c-0.4,0.7-1.9,1-2.4,1c-0.6,0-3.4-1.5-4.2-2.8c-0.4-0.7-0.1-2.3,0-3c0.1-0.7-0.5-2.4-1.2-2.8c-0.6-0.4-2-0.6-2.2-0.4
					c-0.7,0.7-0.1,2.1,0.8,3.1c0.5,0.6,1.3,3.1,1.5,3.9c0.2,0.8-3,1.2-4.2,0.3c-0.5-0.4-2.4-3.6-3.1-4.8c-0.7-1.2-0.9-5.1,0-6.7
					c1.9-3.4,6.9-3.1,7.8-3.3c3.6-0.9,5-4.5,5.8-3.4c2.6,3.4-0.1,5.4-0.8,5.9c-1.2,0.9-3-0.4-4.7,1.1
					C413,203.4,414.2,205.8,415.9,208"/>
			</g>
		</g>
	</g>
</g>
<circle class="st7" cx="125.5" cy="92.1" r="13.5"/>
<circle class="st32" cx="722.1" cy="182.8" r="8.3"/>
<text transform="matrix(0.7071 -0.7071 0.7071 0.7071 105.2804 518.6391)" class="st29 st33 st34">+</text>
<text transform="matrix(0.7071 -0.7071 0.7071 0.7071 697.3892 398.8559)" class="st26 st33 st34">+</text>
<polygon class="st35" points="237.3,167.7 229.5,181.2 245.1,181.2 "/>
<polygon class="st36" points="671.2,55.5 657.8,47.7 657.8,63.2 "/>
</svg>
