<?xml version="1.0" encoding="utf-8"?>
<!-- Generator: Adobe Illustrator 21.0.0, SVG Export Plug-In . SVG Version: 6.00 Build 0)  -->
<svg version="1.1" id="Layer_1" xmlns="http://www.w3.org/2000/svg" xmlns:xlink="http://www.w3.org/1999/xlink" x="0px" y="0px"
	 viewBox="0 0 700 480" style="enable-background:new 0 0 700 480;" xml:space="preserve">
<style type="text/css">
	.st0{fill:#E5E6F0;}
	.st1{clip-path:url(#SVGID_2_);fill:#EFF2F7;}
	.st2{clip-path:url(#SVGID_4_);fill:#EFF2F7;}
	.st3{clip-path:url(#SVGID_6_);fill:#EFF2F7;}
	.st4{fill:#BC93F1;}
	.st5{fill:#FFFFFF;}
	.st6{opacity:0.15;fill:#35476D;enable-background:new    ;}
	.st7{fill:#B4B7D3;}
	.st8{opacity:0.24;}
	.st9{fill:#DEA477;}
	.st10{fill:#ECB485;}
	.st11{clip-path:url(#SVGID_8_);fill:#525BA0;}
	.st12{clip-path:url(#SVGID_10_);fill:#525BA0;}
	.st13{fill:#385C8D;}
	.st14{clip-path:url(#SVGID_12_);}
	.st15{clip-path:url(#SVGID_14_);}
	.st16{fill:#4D76A1;}
	.st17{clip-path:url(#SVGID_16_);}
	.st18{clip-path:url(#SVGID_18_);}
	.st19{clip-path:url(#SVGID_20_);}
	.st20{clip-path:url(#SVGID_22_);}
	.st21{clip-path:url(#SVGID_24_);}
	.st22{clip-path:url(#SVGID_26_);}
	.st23{fill:#92CCC2;}
	.st24{clip-path:url(#SVGID_28_);}
	.st25{fill:#71A79B;}
	.st26{clip-path:url(#SVGID_30_);}
	.st27{clip-path:url(#SVGID_32_);}
	.st28{clip-path:url(#SVGID_34_);}
	.st29{clip-path:url(#SVGID_36_);}
	.st30{opacity:0.35;clip-path:url(#SVGID_38_);fill:#71A79B;enable-background:new    ;}
	.st31{fill:#C7496F;}
	.st32{fill:#9E6A5A;}
	.st33{fill:#513E3A;}
	.st34{fill:#212D3C;}
	.st35{fill:#32547A;}
	.st36{clip-path:url(#SVGID_40_);}
	.st37{fill:#517EAE;}
	.st38{clip-path:url(#SVGID_42_);}
	.st39{clip-path:url(#SVGID_44_);}
	.st40{clip-path:url(#SVGID_46_);}
	.st41{clip-path:url(#SVGID_48_);}
	.st42{clip-path:url(#SVGID_50_);}
	.st43{clip-path:url(#SVGID_52_);}
	.st44{clip-path:url(#SVGID_54_);}
	.st45{clip-path:url(#SVGID_56_);}
	.st46{clip-path:url(#SVGID_58_);}
	.st47{clip-path:url(#SVGID_60_);}
	.st48{clip-path:url(#SVGID_62_);}
	.st49{clip-path:url(#SVGID_64_);}
	.st50{clip-path:url(#SVGID_66_);}
	.st51{clip-path:url(#SVGID_68_);}
	.st52{fill:#F2F5F8;}
	.st53{fill:#E8A992;}
	.st54{clip-path:url(#SVGID_70_);}
	.st55{clip-path:url(#SVGID_72_);}
	.st56{clip-path:url(#SVGID_74_);}
	.st57{clip-path:url(#SVGID_76_);}
	.st58{clip-path:url(#SVGID_78_);}
	.st59{clip-path:url(#SVGID_80_);}
	.st60{clip-path:url(#SVGID_82_);}
	.st61{clip-path:url(#SVGID_84_);}
	.st62{clip-path:url(#SVGID_86_);}
	.st63{clip-path:url(#SVGID_88_);}
	.st64{clip-path:url(#SVGID_90_);}
	.st65{clip-path:url(#SVGID_92_);}
	.st66{clip-path:url(#SVGID_94_);}
	.st67{clip-path:url(#SVGID_96_);}
	.st68{clip-path:url(#SVGID_98_);}
	.st69{clip-path:url(#SVGID_100_);}
	.st70{fill:#D3654D;}
	.st71{clip-path:url(#SVGID_102_);}
	.st72{clip-path:url(#SVGID_104_);}
	.st73{clip-path:url(#SVGID_106_);}
	.st74{clip-path:url(#SVGID_108_);}
	.st75{clip-path:url(#SVGID_110_);}
	.st76{clip-path:url(#SVGID_112_);}
	.st77{clip-path:url(#SVGID_114_);}
	.st78{opacity:0.5;}
	.st79{fill:#8199F0;}
	.st80{fill:#BC8B77;}
	.st81{clip-path:url(#SVGID_116_);fill:#525BA0;}
	.st82{clip-path:url(#SVGID_118_);fill:#525BA0;}
	.st83{opacity:0.5;clip-path:url(#SVGID_120_);fill:#8199F0;enable-background:new    ;}
	.st84{opacity:0.5;clip-path:url(#SVGID_122_);}
	.st85{opacity:0.5;clip-path:url(#SVGID_124_);}
	.st86{opacity:0.5;clip-path:url(#SVGID_126_);}
	.st87{opacity:0.5;clip-path:url(#SVGID_128_);}
	.st88{opacity:0.5;clip-path:url(#SVGID_130_);}
	.st89{opacity:0.5;clip-path:url(#SVGID_132_);}
	.st90{opacity:0.35;clip-path:url(#SVGID_134_);fill:#BC8B77;enable-background:new    ;}
	.st91{fill:#EBBC63;}
	.st92{clip-path:url(#SVGID_136_);}
	.st93{fill:#C6964B;}
	.st94{clip-path:url(#SVGID_138_);}
	.st95{clip-path:url(#SVGID_140_);}
	.st96{clip-path:url(#SVGID_142_);}
	.st97{clip-path:url(#SVGID_144_);}
	.st98{clip-path:url(#SVGID_146_);}
	.st99{clip-path:url(#SVGID_148_);}
	.st100{clip-path:url(#SVGID_150_);}
	.st101{clip-path:url(#SVGID_152_);}
	.st102{clip-path:url(#SVGID_154_);}
	.st103{clip-path:url(#SVGID_156_);fill:#5E2C2C;}
	.st104{opacity:0.3;clip-path:url(#SVGID_158_);fill:#BA436E;enable-background:new    ;}
	.st105{clip-path:url(#SVGID_160_);}
	.st106{fill:#BA436E;}
	.st107{clip-path:url(#SVGID_162_);}
	.st108{clip-path:url(#SVGID_164_);}
	.st109{clip-path:url(#SVGID_166_);fill:#5E2C2C;}
	.st110{clip-path:url(#SVGID_168_);}
	.st111{fill:#A8365F;}
	.st112{clip-path:url(#SVGID_170_);}
	.st113{clip-path:url(#SVGID_172_);}
	.st114{clip-path:url(#SVGID_174_);}
	.st115{clip-path:url(#SVGID_176_);}
	.st116{clip-path:url(#SVGID_178_);}
	.st117{clip-path:url(#SVGID_180_);}
	.st118{clip-path:url(#SVGID_182_);}
	.st119{clip-path:url(#SVGID_184_);}
	.st120{clip-path:url(#SVGID_186_);}
	.st121{opacity:0.39;clip-path:url(#SVGID_188_);fill:#ECB485;enable-background:new    ;}
	.st122{fill:#525BA0;}
	.st123{fill:#744E4D;}
	.st124{fill:#637DD3;}
	.st125{fill:#7FC6CC;}
	.st126{clip-path:url(#SVGID_190_);}
	.st127{fill:#C1E7ED;}
	.st128{fill:#76BABA;}
	.st129{clip-path:url(#SVGID_192_);}
	.st130{clip-path:url(#SVGID_194_);}
	.st131{opacity:0.37;clip-path:url(#SVGID_196_);fill:#EFF2F7;enable-background:new    ;}
</style>
<g id="BACKGROUND">
</g>
<g id="OBJECTS">
	<g>
		<g>
			<g>
				<rect id="XMLID_19_" x="111" y="117.3" class="st0" width="450.4" height="165.4"/>
			</g>
			<g>
				<defs>
					<rect id="SVGID_1_" x="111" y="117.3" width="450.4" height="165.4"/>
				</defs>
				<clipPath id="SVGID_2_">
					<use xlink:href="#SVGID_1_"  style="overflow:visible;"/>
				</clipPath>
				<ellipse class="st1" cx="145.6" cy="273.1" rx="89.8" ry="63.2"/>
			</g>
			<g>
				<defs>
					<rect id="SVGID_3_" x="111" y="117.3" width="450.4" height="165.4"/>
				</defs>
				<clipPath id="SVGID_4_">
					<use xlink:href="#SVGID_3_"  style="overflow:visible;"/>
				</clipPath>
				<ellipse class="st2" cx="347.7" cy="156.8" rx="92.5" ry="83.2"/>
			</g>
			<g>
				<defs>
					<rect id="SVGID_5_" x="111" y="117.3" width="450.4" height="165.4"/>
				</defs>
				<clipPath id="SVGID_6_">
					<use xlink:href="#SVGID_5_"  style="overflow:visible;"/>
				</clipPath>
				<ellipse class="st3" cx="536.6" cy="259.3" rx="70.1" ry="79.1"/>
			</g>
		</g>
		<rect x="110.6" y="117" class="st4" width="451.5" height="6.6"/>
		<rect x="170" y="154.9" class="st5" width="144" height="18.6"/>
		<rect x="410" y="169.7" class="st5" width="12.1" height="95.6"/>
		<rect x="436.5" y="186.2" class="st5" width="12.1" height="80.2"/>
		<rect x="465" y="195.1" class="st5" width="12.1" height="70.3"/>
		<rect x="170" y="190.6" class="st5" width="144" height="18.6"/>
		<circle class="st4" cx="357.8" cy="161" r="8.8"/>
		<circle class="st4" cx="357.8" cy="200" r="8.8"/>
		<g>
			<path class="st5" d="M312.2,248.6c0-2.9,0.1-1.8,0.1-2.3c0-14-11-25.6-24.6-25.6c-0.4,0-1.4-0.3-1.4-0.3v28.2h25.8V248.6z"/>
			<path class="st5" d="M283.5,251.5v-28.1c-14.3,0.7-23.2,11.8-23.2,25.2c0,14,11,25.8,24.6,25.8c13,0,23.6-10.1,24.5-23
				L283.5,251.5L283.5,251.5z"/>
		</g>
	</g>
	<ellipse class="st6" cx="352" cy="451.9" rx="345" ry="14"/>
	<polygon class="st7" points="597.5,365.4 580.9,452.2 584.4,452.2 605.7,365.4 	"/>
	<polygon class="st7" points="635.5,365.4 652.1,452.2 648.6,452.2 627.1,365.4 	"/>
	<path class="st4" d="M576.1,356c0,0-8.4,10.7,29.7,9.5c38-1.2,47.5-1.2,51.1-10.7c3.6-9.5,10.7-66.6,16.6-68.9
		c5.9-2.3-7.1-8.4-10.7,4.8c-3.6,13-8.4,60.7-23.8,61.8C623.6,353.5,576.1,356,576.1,356z"/>
	<polygon class="st7" points="337.6,365.4 321,452.2 324.6,452.2 346,365.4 	"/>
	<polygon class="st7" points="375.7,365.4 392.3,452.2 388.7,452.2 367.3,365.4 	"/>
	<path class="st4" d="M316.2,356c0,0-8.4,10.7,29.7,9.5c38-1.2,47.5-1.2,51.1-10.7c3.6-9.5,10.7-66.6,16.6-68.9s-7.1-8.4-10.7,4.8
		c-3.6,13-8.4,60.7-23.8,61.8C363.8,353.5,316.2,356,316.2,356z"/>
	<g>
		<g>
			<rect x="77.2" y="2.2" class="st0" width="1" height="76"/>
		</g>
		<ellipse class="st0" cx="77.7" cy="99.3" rx="9.4" ry="8.4"/>
		<polygon class="st4" points="77.5,75.1 40.8,98.8 115.4,98.8 		"/>
	</g>
	<g>
		<g>
			<rect x="347.4" y="2.2" class="st0" width="1" height="76"/>
		</g>
		<ellipse class="st0" cx="348" cy="99.3" rx="9.4" ry="8.4"/>
		<polygon class="st4" points="347.8,75.1 311,98.8 385.7,98.8 		"/>
	</g>
	<g>
		<g>
			<rect x="582" y="2.2" class="st0" width="1" height="76"/>
		</g>
		<ellipse class="st0" cx="582.5" cy="99.3" rx="9.4" ry="8.4"/>
		<polygon class="st4" points="582.2,75.1 545.6,98.8 620.1,98.8 		"/>
	</g>
	<g>
		<g class="st8">
			<path class="st5" d="M264.3,299.6c0,0-4.1-1.9-1.8-5.8c2.3-3.9,7.2-2.6,4.2-7.9c-3-5.3-6.7-3-3.6-6.8c3.1-3.8,4.8,0.3,4.3,1.3
				c-0.5,1-1.5,0.5-1.5,0.5s1.2-0.1,1-1.5c-0.2-1.4-2.9-0.8-3.4,1c-0.5,1.8,12.8,7,9.3,9.8c-3.6,2.9-5,5-3.6,6.4
				c1.4,1.4-3.3,3.4-3.3,3.4L264.3,299.6z"/>
			<path class="st5" d="M265.9,300.3c0,0,1.7-1.2,0.7-3.5c-1-2.3-3-1.6-1.7-4.8c1.2-3.2,2.6-1.8,1.5-4c-1.2-2.3-1.9,0.2-1.8,0.7
				c0.2,0.5,0.6,0.3,0.6,0.3s-0.4-0.1-0.4-0.8c0.1-0.8,1.2-0.5,1.4,0.5c0.2,1.1-5.2,4.1-3.8,5.8c1.5,1.7,2,3,1.5,3.8
				c-0.5,0.8,1.4,2,1.4,2L265.9,300.3z"/>
		</g>
		<path class="st4" d="M282.7,289h-20.1c-1,0-1.7,0.8-1.6,1.8l0.7,5.3c-1-0.5-1.9-0.7-2.9-0.5c-1.4,0.3-2.5,1.3-3.2,3
			c-0.6,1.5-0.7,3.3-0.4,5.2c0.3,1.8,1.2,3.5,2.3,4.6c1,1,2.1,1.5,3.3,1.5c0.2,0,0.5,0,0.7-0.1c0.6-0.1,1.3-0.4,1.8-0.8l1,6.6
			c0.2,1.5,17,1.5,17.1-0.1l2.6-24.6C284.4,289.9,283.6,289,282.7,289z M261.4,308.2c-0.8,0.2-1.8-0.2-2.6-1.1c-1-1-1.6-2.2-1.9-3.8
			c-0.3-1.5-0.2-3.1,0.3-4.2c0.4-1.1,1.2-1.8,2-2c0.1,0,0.3,0,0.4,0c0.7,0,1.5,0.3,2.2,1.1c0.1,0.1,0.2,0.2,0.2,0.3l1.2,8.3
			C262.8,307.5,262.1,308,261.4,308.2z"/>
	</g>
	<g>
		<path class="st9" d="M616.9,260.9c-3.3-9.4-9.2-7.4-9.2-7.4c-8.9,3.8-18.1,41-18.1,41c-6.4,4.3-36.5,12.7-36.5,12.7
			s-6.2-4.1-7.6-2.3c-1.4,1.7-3.5,7.2-1.6,9.6c1.8,2.4,12.5-1.4,12.5-1.4c16.2-2.1,39.5-9.3,39.5-9.3S620.1,270.2,616.9,260.9z"/>
		<g>
			<g>
				<path id="XMLID_2_" class="st10" d="M564.3,343.2c0,0,4.6-10.7-8.5-9.8l-33.5,94.5c0,0-6.5,12.4-9.1,12.6
					c-2.6,0.2-10-0.4-3.5,2.3c6.5,2.8,8.6,3.6,11,0.8s5.3-6.6,5.3-6.6l-3.4,11.2c0,0,11-14.3,4.4-19.6c0,0,36.6-45.2,34.8-64.9
					c0,0-2.3-3.5-0.5-7.8C563.2,351.7,564.3,343.2,564.3,343.2"/>
			</g>
			<g>
				<defs>
					<path id="SVGID_7_" d="M564.3,343.2c0,0,4.6-10.7-8.5-9.8l-33.5,94.5c0,0-6.5,12.4-9.1,12.6c-2.6,0.2-10-0.4-3.5,2.3
						c6.5,2.8,8.6,3.6,11,0.8s5.3-6.6,5.3-6.6l-3.4,11.2c0,0,11-14.3,4.4-19.6c0,0,36.6-45.2,34.8-64.9c0,0-2.3-3.5-0.5-7.8
						C563.2,351.7,564.3,343.2,564.3,343.2"/>
				</defs>
				<clipPath id="SVGID_8_">
					<use xlink:href="#SVGID_7_"  style="overflow:visible;"/>
				</clipPath>
				<path class="st11" d="M529.5,428.7h-2.3c0,0-8.6,19.6-13.8,10.9c-5.2-8.6-11.5,2.9-11.5,2.9l12.1,9.7l14.4,2.9l9.2-20.1
					L529.5,428.7z"/>
			</g>
		</g>
		<g>
			<g>
				<path id="XMLID_1_" class="st10" d="M583.6,333.4c0,0-17.5-5.8-29.1,0l5.8,100.1c0,0-1.2,14-3.5,15.1c-2.3,1.2-9.3,3.5-2.3,3.5
					s9.3,0,10.5-3.5c1.2-3.5,2.3-8.2,2.3-8.2l1.2,11.6c0,0,4.7-17.5-3.5-19.8c0,0,16.3-55.9,7-73.4c0,0,30.3,1.2,30.3-3.5
					s-17.5-22.1-17.5-22.1"/>
			</g>
			<g>
				<defs>
					<path id="SVGID_9_" d="M583.6,333.4c0,0-17.5-5.8-29.1,0l5.8,100.1c0,0-1.2,14-3.5,15.1c-2.3,1.2-9.3,3.5-2.3,3.5
						s9.3,0,10.5-3.5c1.2-3.5,2.3-8.2,2.3-8.2l1.2,11.6c0,0,4.7-17.5-3.5-19.8c0,0,16.3-55.9,7-73.4c0,0,30.3,1.2,30.3-3.5
						s-17.5-22.1-17.5-22.1"/>
				</defs>
				<clipPath id="SVGID_10_">
					<use xlink:href="#SVGID_9_"  style="overflow:visible;"/>
				</clipPath>
				<path class="st12" d="M566.9,431l-1.7,1.2c0,0-0.5,16.6-8,16.1c-7.5-0.5-9.7,4.6-9.7,4.6l12.1,2.9l13.8-0.5l2.9-8l-4-14.9
					L566.9,431z"/>
			</g>
		</g>
		<g>
			<g>
				<path id="XMLID_16_" class="st13" d="M640.7,324.1c0,0,11.6,15.1,4.7,26.8c-7,11.6-58.2,8.2-58.2,8.2s-5.8-24.5-24.5-27.9
					c0,0,39.6-7,53.6-3.5C630.2,331.1,640.7,324.1,640.7,324.1z"/>
			</g>
			<g>
				<defs>
					<path id="SVGID_11_" d="M640.7,324.1c0,0,11.6,15.1,4.7,26.8c-7,11.6-58.2,8.2-58.2,8.2s-5.8-24.5-24.5-27.9
						c0,0,39.6-7,53.6-3.5C630.2,331.1,640.7,324.1,640.7,324.1z"/>
				</defs>
				<clipPath id="SVGID_12_">
					<use xlink:href="#SVGID_11_"  style="overflow:visible;"/>
				</clipPath>
				<g class="st14">
					<g>
						<path class="st13" d="M592.4,335.6c-0.2-0.1-0.3-0.1-0.5-0.2c-1.1-0.3-1.5,1.3-0.4,1.6c0.2,0.1,0.3,0.1,0.5,0.2
							C593,337.5,593.5,335.9,592.4,335.6L592.4,335.6z"/>
					</g>
				</g>
			</g>
			<g>
				<defs>
					<path id="SVGID_13_" d="M640.7,324.1c0,0,11.6,15.1,4.7,26.8c-7,11.6-58.2,8.2-58.2,8.2s-5.8-24.5-24.5-27.9
						c0,0,39.6-7,53.6-3.5C630.2,331.1,640.7,324.1,640.7,324.1z"/>
				</defs>
				<clipPath id="SVGID_14_">
					<use xlink:href="#SVGID_13_"  style="overflow:visible;"/>
				</clipPath>
				<g class="st15">
					<g>
						<path class="st16" d="M583.3,363.9c0,0.1,0,0.1,0,0.2c0,1.1,1.7,1.1,1.7,0c0-0.1,0-0.1,0-0.2
							C585,362.8,583.3,362.8,583.3,363.9L583.3,363.9z"/>
					</g>
				</g>
			</g>
			<g>
				<defs>
					<path id="SVGID_15_" d="M640.7,324.1c0,0,11.6,15.1,4.7,26.8c-7,11.6-58.2,8.2-58.2,8.2s-5.8-24.5-24.5-27.9
						c0,0,39.6-7,53.6-3.5C630.2,331.1,640.7,324.1,640.7,324.1z"/>
				</defs>
				<clipPath id="SVGID_16_">
					<use xlink:href="#SVGID_15_"  style="overflow:visible;"/>
				</clipPath>
				<g class="st17">
					<g>
						<path class="st16" d="M564,330.7c7.8,0.2,15.7,1.1,23.4,2.8c0.2,0.1,0.3-0.3,0.1-0.4c-7.7-1.6-15.6-2.5-23.5-2.8
							C563.7,330.2,563.7,330.7,564,330.7L564,330.7z"/>
					</g>
				</g>
			</g>
			<g>
				<defs>
					<path id="SVGID_17_" d="M640.7,324.1c0,0,11.6,15.1,4.7,26.8c-7,11.6-58.2,8.2-58.2,8.2s-5.8-24.5-24.5-27.9
						c0,0,39.6-7,53.6-3.5C630.2,331.1,640.7,324.1,640.7,324.1z"/>
				</defs>
				<clipPath id="SVGID_18_">
					<use xlink:href="#SVGID_17_"  style="overflow:visible;"/>
				</clipPath>
				<g class="st18">
					<g>
						<path class="st16" d="M563.5,331.7c4.9,0.2,9.5,1.2,14,2.9c0.2,0.1,0.3-0.3,0.1-0.4c-4.6-1.7-9.3-2.6-14.2-2.9
							C563.2,331.3,563.2,331.7,563.5,331.7L563.5,331.7z"/>
					</g>
				</g>
			</g>
			<g>
				<defs>
					<path id="SVGID_19_" d="M640.7,324.1c0,0,11.6,15.1,4.7,26.8c-7,11.6-58.2,8.2-58.2,8.2s-5.8-24.5-24.5-27.9
						c0,0,39.6-7,53.6-3.5C630.2,331.1,640.7,324.1,640.7,324.1z"/>
				</defs>
				<clipPath id="SVGID_20_">
					<use xlink:href="#SVGID_19_"  style="overflow:visible;"/>
				</clipPath>
				<g class="st19">
					<g>
						<path class="st16" d="M589.6,361c1.9-4.6,1.7-9.3-0.5-13.8c-0.1-0.2-0.5,0-0.3,0.2c2.2,4.2,2.3,9,0.5,13.4
							C589.1,361.1,589.6,361.2,589.6,361L589.6,361z"/>
					</g>
				</g>
			</g>
			<g>
				<defs>
					<path id="SVGID_21_" d="M640.7,324.1c0,0,11.6,15.1,4.7,26.8c-7,11.6-58.2,8.2-58.2,8.2s-5.8-24.5-24.5-27.9
						c0,0,39.6-7,53.6-3.5C630.2,331.1,640.7,324.1,640.7,324.1z"/>
				</defs>
				<clipPath id="SVGID_22_">
					<use xlink:href="#SVGID_21_"  style="overflow:visible;"/>
				</clipPath>
				<g class="st20">
					<g>
						<path class="st16" d="M593.5,358.7c2.2-1.6,4.2-3.4,5.9-5.5c0.2-0.2-0.1-0.5-0.3-0.3c-1.7,2.1-3.6,3.9-5.8,5.4
							C593,358.5,593.3,358.8,593.5,358.7L593.5,358.7z"/>
					</g>
				</g>
			</g>
			<g>
				<defs>
					<path id="SVGID_23_" d="M640.7,324.1c0,0,11.6,15.1,4.7,26.8c-7,11.6-58.2,8.2-58.2,8.2s-5.8-24.5-24.5-27.9
						c0,0,39.6-7,53.6-3.5C630.2,331.1,640.7,324.1,640.7,324.1z"/>
				</defs>
				<clipPath id="SVGID_24_">
					<use xlink:href="#SVGID_23_"  style="overflow:visible;"/>
				</clipPath>
				<g class="st21">
					<g>
						<path class="st16" d="M605,329.1c4.4,1.6,8.8,3.2,13.2,4.8c0.2,0.1,0.3-0.3,0.1-0.4c-4.4-1.6-8.8-3.2-13.2-4.8
							C604.9,328.6,604.8,329,605,329.1L605,329.1z"/>
					</g>
				</g>
			</g>
			<g>
				<defs>
					<path id="SVGID_25_" d="M640.7,324.1c0,0,11.6,15.1,4.7,26.8c-7,11.6-58.2,8.2-58.2,8.2s-5.8-24.5-24.5-27.9
						c0,0,39.6-7,53.6-3.5C630.2,331.1,640.7,324.1,640.7,324.1z"/>
				</defs>
				<clipPath id="SVGID_26_">
					<use xlink:href="#SVGID_25_"  style="overflow:visible;"/>
				</clipPath>
				<g class="st22">
					<g>
						<path class="st16" d="M592.5,331.1c11.4,2.8,23,4.7,34.6,5.9c0.2,0,0.2-0.4,0-0.4c-11.6-1.2-23.2-3.2-34.5-5.9
							C592.4,330.7,592.3,331,592.5,331.1L592.5,331.1z"/>
					</g>
				</g>
			</g>
		</g>
		<path class="st10" d="M589.8,206.8c0,1.4-5.5,31.4,6.9,35.6c12.3,4.1,17.8-13.7,17.8-13.7l-8.2-19.2L589.8,206.8z"/>
		<polygon class="st10" points="604.8,235.6 604.8,256 617.1,249.2 613.4,226.5 		"/>
		<g>
			<g>
				<path id="XMLID_15_" class="st23" d="M614.3,246.5c0,0,10.9,2.8,13.7,21.9c2.8,19.2-1.4,36.8,15,58.8c0,0,3.3,20.4-37.7-0.1
					c0,0-22.4-47-0.5-76.1C604.8,250.9,610.3,251.9,614.3,246.5z"/>
			</g>
			<g>
				<defs>
					<path id="SVGID_27_" d="M614.3,246.5c0,0,10.9,2.8,13.7,21.9c2.8,19.2-1.4,36.8,15,58.8c0,0,3.3,20.4-37.7-0.1
						c0,0-22.4-47-0.5-76.1C604.8,250.9,610.3,251.9,614.3,246.5z"/>
				</defs>
				<clipPath id="SVGID_28_">
					<use xlink:href="#SVGID_27_"  style="overflow:visible;"/>
				</clipPath>
				<g class="st24">
					<g>
						<path class="st25" d="M597.5,315.9c1.1,0,1.1-1.7,0-1.7C596.4,314.3,596.4,315.9,597.5,315.9L597.5,315.9z"/>
					</g>
				</g>
			</g>
			<g>
				<defs>
					<path id="SVGID_29_" d="M614.3,246.5c0,0,10.9,2.8,13.7,21.9c2.8,19.2-1.4,36.8,15,58.8c0,0,3.3,20.4-37.7-0.1
						c0,0-22.4-47-0.5-76.1C604.8,250.9,610.3,251.9,614.3,246.5z"/>
				</defs>
				<clipPath id="SVGID_30_">
					<use xlink:href="#SVGID_29_"  style="overflow:visible;"/>
				</clipPath>
				<g class="st26">
					<g>
						<path class="st25" d="M604.3,326.3c4.3,1.5,8.9,2.6,13.4,3.5c0.2,0,0.3-0.3,0.1-0.4c-4.6-0.8-9-2-13.4-3.5
							C604.1,325.8,603.9,326.2,604.3,326.3L604.3,326.3z"/>
					</g>
				</g>
			</g>
			<g>
				<defs>
					<path id="SVGID_31_" d="M614.3,246.5c0,0,10.9,2.8,13.7,21.9c2.8,19.2-1.4,36.8,15,58.8c0,0,3.3,20.4-37.7-0.1
						c0,0-22.4-47-0.5-76.1C604.8,250.9,610.3,251.9,614.3,246.5z"/>
				</defs>
				<clipPath id="SVGID_32_">
					<use xlink:href="#SVGID_31_"  style="overflow:visible;"/>
				</clipPath>
				<g class="st27">
					<g>
						<path class="st25" d="M605.2,325.7c2.9-0.1,5.7-0.5,8.5-1.2c0.2-0.1,0.1-0.4-0.1-0.4c-2.8,0.7-5.5,1.1-8.4,1.2
							C605,325.3,605,325.7,605.2,325.7L605.2,325.7z"/>
					</g>
				</g>
			</g>
			<g>
				<defs>
					<path id="SVGID_33_" d="M614.3,246.5c0,0,10.9,2.8,13.7,21.9c2.8,19.2-1.4,36.8,15,58.8c0,0,3.3,20.4-37.7-0.1
						c0,0-22.4-47-0.5-76.1C604.8,250.9,610.3,251.9,614.3,246.5z"/>
				</defs>
				<clipPath id="SVGID_34_">
					<use xlink:href="#SVGID_33_"  style="overflow:visible;"/>
				</clipPath>
				<g class="st28">
					<g>
						<path class="st25" d="M641.6,322.2c1.9,4.6-3.6,9.1-7.5,10.3c-0.2,0.1-0.1,0.4,0.1,0.4c4-1.3,9.7-6,7.7-10.8
							C642,321.9,641.5,322,641.6,322.2L641.6,322.2z"/>
					</g>
				</g>
			</g>
			<g>
				<defs>
					<path id="SVGID_35_" d="M614.3,246.5c0,0,10.9,2.8,13.7,21.9c2.8,19.2-1.4,36.8,15,58.8c0,0,3.3,20.4-37.7-0.1
						c0,0-22.4-47-0.5-76.1C604.8,250.9,610.3,251.9,614.3,246.5z"/>
				</defs>
				<clipPath id="SVGID_36_">
					<use xlink:href="#SVGID_35_"  style="overflow:visible;"/>
				</clipPath>
				<g class="st29">
					<g>
						<path class="st25" d="M602.5,253.3c5.4,0.8,11.6,1,15-4.1c0.1-0.2-0.2-0.4-0.3-0.2c-3.3,4.9-9.3,4.7-14.5,3.9
							C602.3,252.7,602.1,253.2,602.5,253.3L602.5,253.3z"/>
					</g>
				</g>
			</g>
			<g>
				<defs>
					<path id="SVGID_37_" d="M614.3,246.5c0,0,10.9,2.8,13.7,21.9c2.8,19.2-1.4,36.8,15,58.8c0,0,3.3,20.4-37.7-0.1
						c0,0-22.4-47-0.5-76.1C604.8,250.9,610.3,251.9,614.3,246.5z"/>
				</defs>
				<clipPath id="SVGID_38_">
					<use xlink:href="#SVGID_37_"  style="overflow:visible;"/>
				</clipPath>
				<path class="st30" d="M599.2,313.7c1.1-1.1,29.2-36.7,25.9-44.2c-3.4-7.4-29.7,38.7-29.7,38.7L599.2,313.7z"/>
			</g>
		</g>
		<path class="st31" d="M589.9,206.8c0,0,7.4,16.5,22.3,16.8c0,0-1.7,26.8,3,30.3c4.6,3.5,13,9.3,13.4,19.1c0,0,19.4-16.7,5-30
			c-14.4-13.2-4.6-31-13.8-36.2c0,0-18.4-13.8-28.2-9.7c-9.7,4-8.5,17-2.8,19.2C588.8,216.2,589.2,209.8,589.9,206.8z"/>
		<path class="st10" d="M625.2,265.8c-2.5-10.6-9.2-9.2-9.2-9.2c-10.2,3.2-24.3,42.8-24.3,42.8c-7.5,4-41.4,9.7-41.4,9.7
			s-6.4-5.2-8-3.5c-1.7,1.7-4.6,7.5-2.9,10.4c1.7,2.9,13.9,0,13.9,0c17.9-0.5,44.2-5.7,44.2-5.7S627.8,276.5,625.2,265.8z"/>
		
			<ellipse transform="matrix(0.387 -0.9221 0.9221 0.387 166.8887 704.4974)" class="st10" cx="613.3" cy="226.7" rx="4.1" ry="2.9"/>
		<g>
			<path class="st31" d="M589.9,205.5c1,2.5,2.1,5.1,3.5,7.5c1.3,2.4,2.8,4.8,4.6,6.9c1.8,2.1,3.8,4.1,6.4,5c1.3,0.4,2.8,0.5,4,0.2
				c1.4-0.3,2.5-1.1,3.6-1.9c-1.1,0.8-2.2,1.7-3.6,2c-1.4,0.4-2.9,0.3-4.1-0.1c-2.8-0.8-4.9-2.9-6.8-4.9c-1.9-2.1-3.4-4.4-4.9-6.9
				c-1.4-2.4-2.6-4.9-3.8-7.5L589.9,205.5z"/>
		</g>
		<g>
			<path class="st31" d="M596.9,223.4c-0.8-1.8-3-2.5-4.9-2c-0.3,0.1-0.4-0.3-0.2-0.4c2.1-0.5,4.4,0.2,5.5,2.3
				C597.5,223.5,597.1,223.6,596.9,223.4L596.9,223.4z"/>
		</g>
		<g>
			<path class="st32" d="M589.6,226c-0.3,1.2-0.6,2.3-1,3.4c-0.1,0.6-0.4,1.3-0.4,1.9c0,1.1,2,1,2.6,0.7c0.2-0.1,0.3,0.2,0.1,0.3
				c-0.7,0.3-2.1,0.3-2.8-0.2c-0.5-0.4-0.3-1.1-0.2-1.6c0.3-1.6,0.8-3.2,1.3-4.7C589.2,225.6,589.7,225.6,589.6,226L589.6,226z"/>
		</g>
		
			<ellipse transform="matrix(6.302110e-02 -0.998 0.998 6.302110e-02 332.357 803.4175)" class="st33" cx="594.1" cy="224.7" rx="1.1" ry="0.4"/>
		<g>
			<path class="st33" d="M597.3,234.4c-0.2,0.7-0.6,1.6-1.2,2.1c-1.2,1.3-2.8,1.7-4.4,1.5c-0.3,0-0.2-0.4,0.1-0.4
				c2.2,0.2,4.6-1,5-3.3C596.9,234,597.3,234.1,597.3,234.4L597.3,234.4z"/>
		</g>
	</g>
	<g>
		<path class="st34" d="M156.5,438.6c0,0-3.5,4.4-3.5,12.4h38c0,0,2.6,0,1.8-1.8c-0.8-1.8-15-2.6-17.7-4.4c-2.6-1.8-5.3-7.1-5.3-7.1
			L156.5,438.6z"/>
		<g>
			<g>
				<path id="XMLID_10_" class="st35" d="M120.3,296.2l-7.9,143.3c0,0,4.4,5.3,13.2,1.8L155.6,298l0.8,140.7c0,0,9.7,4.4,14.2,0
					l9.7-159.2l-7.1-7.9h-36.6L120.3,296.2z"/>
			</g>
			<g>
				<defs>
					<path id="SVGID_39_" d="M120.3,296.2l-7.9,143.3c0,0,4.4,5.3,13.2,1.8L155.6,298l0.8,140.7c0,0,9.7,4.4,14.2,0l9.7-159.2
						l-7.1-7.9h-36.6L120.3,296.2z"/>
				</defs>
				<clipPath id="SVGID_40_">
					<use xlink:href="#SVGID_39_"  style="overflow:visible;"/>
				</clipPath>
				<g class="st36">
					<g>
						<path class="st37" d="M108.6,295c1.1,0,1.1-1.7,0-1.7C107.6,293.4,107.6,295,108.6,295L108.6,295z"/>
					</g>
				</g>
			</g>
			<g>
				<defs>
					<path id="SVGID_41_" d="M120.3,296.2l-7.9,143.3c0,0,4.4,5.3,13.2,1.8L155.6,298l0.8,140.7c0,0,9.7,4.4,14.2,0l9.7-159.2
						l-7.1-7.9h-36.6L120.3,296.2z"/>
				</defs>
				<clipPath id="SVGID_42_">
					<use xlink:href="#SVGID_41_"  style="overflow:visible;"/>
				</clipPath>
				<g class="st38">
					<g>
						<path class="st37" d="M151.4,298.2c3.5-2.9,7.1-5.4,10.9-7.6c0.2-0.1,0-0.5-0.2-0.3c-3.9,2.3-7.5,4.9-11,7.7
							C150.9,298,151.2,298.4,151.4,298.2L151.4,298.2z"/>
					</g>
				</g>
			</g>
			<g>
				<defs>
					<path id="SVGID_43_" d="M120.3,296.2l-7.9,143.3c0,0,4.4,5.3,13.2,1.8L155.6,298l0.8,140.7c0,0,9.7,4.4,14.2,0l9.7-159.2
						l-7.1-7.9h-36.6L120.3,296.2z"/>
				</defs>
				<clipPath id="SVGID_44_">
					<use xlink:href="#SVGID_43_"  style="overflow:visible;"/>
				</clipPath>
				<g class="st39">
					<g>
						<path class="st37" d="M150,301.2c3.5-1.7,6.9-3.5,10.2-5.5c0.2-0.1,0-0.5-0.2-0.3c-3.3,2-6.7,3.9-10.2,5.5
							C149.5,301,149.7,301.3,150,301.2L150,301.2z"/>
					</g>
				</g>
			</g>
			<g>
				<defs>
					<path id="SVGID_45_" d="M120.3,296.2l-7.9,143.3c0,0,4.4,5.3,13.2,1.8L155.6,298l0.8,140.7c0,0,9.7,4.4,14.2,0l9.7-159.2
						l-7.1-7.9h-36.6L120.3,296.2z"/>
				</defs>
				<clipPath id="SVGID_46_">
					<use xlink:href="#SVGID_45_"  style="overflow:visible;"/>
				</clipPath>
				<g class="st40">
					<g>
						<path class="st37" d="M160.9,275.6c-1.1,1.7-0.4,3.9-0.5,5.8c-0.3,3.8-1.4,7.3-3.9,10.3c-0.2,0.2,0.1,0.5,0.3,0.3
							c1.7-1.9,2.8-4,3.4-6.6c0.3-1.2,0.4-2.3,0.5-3.5c0.1-1.8-0.4-4.6,0.5-6.1C161.3,275.6,161,275.4,160.9,275.6L160.9,275.6z"/>
					</g>
				</g>
			</g>
			<g>
				<defs>
					<path id="SVGID_47_" d="M120.3,296.2l-7.9,143.3c0,0,4.4,5.3,13.2,1.8L155.6,298l0.8,140.7c0,0,9.7,4.4,14.2,0l9.7-159.2
						l-7.1-7.9h-36.6L120.3,296.2z"/>
				</defs>
				<clipPath id="SVGID_48_">
					<use xlink:href="#SVGID_47_"  style="overflow:visible;"/>
				</clipPath>
				<g class="st41">
					<g>
						<path class="st37" d="M154,276.3c0.2,6.2-0.2,12.5-1.6,18.6c-0.1,0.2,0.3,0.3,0.4,0.1c1.3-6.2,1.8-12.4,1.6-18.7
							C154.5,276,154,276,154,276.3L154,276.3z"/>
					</g>
				</g>
			</g>
			<g>
				<defs>
					<path id="SVGID_49_" d="M120.3,296.2l-7.9,143.3c0,0,4.4,5.3,13.2,1.8L155.6,298l0.8,140.7c0,0,9.7,4.4,14.2,0l9.7-159.2
						l-7.1-7.9h-36.6L120.3,296.2z"/>
				</defs>
				<clipPath id="SVGID_50_">
					<use xlink:href="#SVGID_49_"  style="overflow:visible;"/>
				</clipPath>
				<g class="st42">
					<g>
						<path class="st37" d="M142.7,278.9c11.8-0.8,23.4-1.1,35.1-0.7c0.3,0,0.3-0.4,0-0.4c-11.8-0.3-23.5-0.1-35.1,0.7
							C142.4,278.6,142.4,279,142.7,278.9L142.7,278.9z"/>
					</g>
				</g>
			</g>
			<g>
				<defs>
					<path id="SVGID_51_" d="M120.3,296.2l-7.9,143.3c0,0,4.4,5.3,13.2,1.8L155.6,298l0.8,140.7c0,0,9.7,4.4,14.2,0l9.7-159.2
						l-7.1-7.9h-36.6L120.3,296.2z"/>
				</defs>
				<clipPath id="SVGID_52_">
					<use xlink:href="#SVGID_51_"  style="overflow:visible;"/>
				</clipPath>
				<g class="st43">
					<g>
						<path class="st37" d="M116.7,439.7c0.6-24.9,1.9-49.8,3.8-74.5c1-12.1,1.9-24.1,3.2-36.1c1.3-12.6,3.6-25.3,3.9-38
							c0-0.3-0.4-0.3-0.4,0c-0.3,12.3-2.5,24.7-3.8,36.9c-1.3,12.4-2.3,24.8-3.3,37.2c-1.9,24.8-3.1,49.6-3.8,74.5
							C116.2,440,116.6,440,116.7,439.7L116.7,439.7z"/>
					</g>
				</g>
			</g>
			<g>
				<defs>
					<path id="SVGID_53_" d="M120.3,296.2l-7.9,143.3c0,0,4.4,5.3,13.2,1.8L155.6,298l0.8,140.7c0,0,9.7,4.4,14.2,0l9.7-159.2
						l-7.1-7.9h-36.6L120.3,296.2z"/>
				</defs>
				<clipPath id="SVGID_54_">
					<use xlink:href="#SVGID_53_"  style="overflow:visible;"/>
				</clipPath>
				<g class="st44">
					<g>
						<path class="st37" d="M158.6,303.7c1.2,4,2.5,7.9,4.3,11.9c0.1,0.2,0.4,0,0.3-0.2c-1.7-3.8-3.2-7.7-4.2-11.8
							C158.9,303.2,158.5,303.3,158.6,303.7L158.6,303.7z"/>
					</g>
				</g>
			</g>
			<g>
				<defs>
					<path id="SVGID_55_" d="M120.3,296.2l-7.9,143.3c0,0,4.4,5.3,13.2,1.8L155.6,298l0.8,140.7c0,0,9.7,4.4,14.2,0l9.7-159.2
						l-7.1-7.9h-36.6L120.3,296.2z"/>
				</defs>
				<clipPath id="SVGID_56_">
					<use xlink:href="#SVGID_55_"  style="overflow:visible;"/>
				</clipPath>
				<g class="st45">
					<g>
						<path class="st37" d="M172.4,285.7c0.1,0,0.1,0,0.2,0c0-0.2-0.4-0.1-0.4,0.1c0.1,0.3,0.5,0.3,0.6,0
							C172.9,285.4,172.5,285.3,172.4,285.7L172.4,285.7z"/>
					</g>
				</g>
			</g>
			<g>
				<defs>
					<path id="SVGID_57_" d="M120.3,296.2l-7.9,143.3c0,0,4.4,5.3,13.2,1.8L155.6,298l0.8,140.7c0,0,9.7,4.4,14.2,0l9.7-159.2
						l-7.1-7.9h-36.6L120.3,296.2z"/>
				</defs>
				<clipPath id="SVGID_58_">
					<use xlink:href="#SVGID_57_"  style="overflow:visible;"/>
				</clipPath>
				<g class="st46">
					<g>
						<path class="st37" d="M172.2,285.7c-0.5,9.3,1.4,18.4,5.1,26.9c0.8,2,4.9,6.5,5.5,1.8c0-0.2-0.4-0.2-0.4,0
							c-2.3,1.2-3.8,0.7-4.3-1.2c-0.7-1.7-1.5-3.5-2.1-5.3c-0.7-2.1-1.4-4.2-1.9-6.4c-1.3-5.3-1.7-10.6-1.5-15.9
							C172.7,285.3,172.2,285.3,172.2,285.7L172.2,285.7z"/>
					</g>
				</g>
			</g>
			<g>
				<defs>
					<path id="SVGID_59_" d="M120.3,296.2l-7.9,143.3c0,0,4.4,5.3,13.2,1.8L155.6,298l0.8,140.7c0,0,9.7,4.4,14.2,0l9.7-159.2
						l-7.1-7.9h-36.6L120.3,296.2z"/>
				</defs>
				<clipPath id="SVGID_60_">
					<use xlink:href="#SVGID_59_"  style="overflow:visible;"/>
				</clipPath>
				<g class="st47">
					<g>
						<path class="st37" d="M117.9,313.8c10.5,0.2,15.3-12.5,14.3-21.4c0-0.2-0.4-0.2-0.4,0c1.1,8.6-3.6,21.2-13.9,21
							C117.7,313.5,117.7,313.8,117.9,313.8L117.9,313.8z"/>
					</g>
				</g>
			</g>
			<g>
				<defs>
					<path id="SVGID_61_" d="M120.3,296.2l-7.9,143.3c0,0,4.4,5.3,13.2,1.8L155.6,298l0.8,140.7c0,0,9.7,4.4,14.2,0l9.7-159.2
						l-7.1-7.9h-36.6L120.3,296.2z"/>
				</defs>
				<clipPath id="SVGID_62_">
					<use xlink:href="#SVGID_61_"  style="overflow:visible;"/>
				</clipPath>
				<g class="st48">
					<g>
						<path class="st37" d="M170.3,362.4c2,1.2,3.8,2.5,5.5,4.1c0.2,0.2,0.5-0.1,0.3-0.3c-1.7-1.6-3.5-3-5.5-4.1
							C170.3,362,170.1,362.3,170.3,362.4L170.3,362.4z"/>
					</g>
				</g>
			</g>
			<g>
				<defs>
					<path id="SVGID_63_" d="M120.3,296.2l-7.9,143.3c0,0,4.4,5.3,13.2,1.8L155.6,298l0.8,140.7c0,0,9.7,4.4,14.2,0l9.7-159.2
						l-7.1-7.9h-36.6L120.3,296.2z"/>
				</defs>
				<clipPath id="SVGID_64_">
					<use xlink:href="#SVGID_63_"  style="overflow:visible;"/>
				</clipPath>
				<g class="st49">
					<g>
						<path class="st37" d="M170.3,367.7c0.7,0.4,1.5,1,2.2,1.4c0.2,0.1,0.4-0.2,0.2-0.3c-0.7-0.4-1.5-1-2.2-1.4
							C170.3,367.2,170.1,367.6,170.3,367.7L170.3,367.7z"/>
					</g>
				</g>
			</g>
			<g>
				<defs>
					<path id="SVGID_65_" d="M120.3,296.2l-7.9,143.3c0,0,4.4,5.3,13.2,1.8L155.6,298l0.8,140.7c0,0,9.7,4.4,14.2,0l9.7-159.2
						l-7.1-7.9h-36.6L120.3,296.2z"/>
				</defs>
				<clipPath id="SVGID_66_">
					<use xlink:href="#SVGID_65_"  style="overflow:visible;"/>
				</clipPath>
				<g class="st50">
					<g>
						<path class="st37" d="M125,413.2c1.2-1.3,2.3-2.5,3.6-3.8c0.2-0.2-0.1-0.5-0.3-0.3c-1.2,1.3-2.3,2.5-3.6,3.8
							C124.5,413.1,124.8,413.4,125,413.2L125,413.2z"/>
					</g>
				</g>
			</g>
			<g>
				<defs>
					<path id="SVGID_67_" d="M120.3,296.2l-7.9,143.3c0,0,4.4,5.3,13.2,1.8L155.6,298l0.8,140.7c0,0,9.7,4.4,14.2,0l9.7-159.2
						l-7.1-7.9h-36.6L120.3,296.2z"/>
				</defs>
				<clipPath id="SVGID_68_">
					<use xlink:href="#SVGID_67_"  style="overflow:visible;"/>
				</clipPath>
				<g class="st51">
					<g>
						<path class="st37" d="M126.6,417.7c1.1-1.1,2.2-2,3.3-3.1c0.2-0.2-0.1-0.4-0.3-0.3c-1.1,1.1-2.2,2-3.3,3.1
							C126.2,417.6,126.4,417.8,126.6,417.7L126.6,417.7z"/>
					</g>
				</g>
			</g>
		</g>
		<path class="st13" d="M201.6,242.4c0,0-3.5-15.1-7.9-16.9c-4.4-1.8-3.5,13.2-3.5,13.2L201.6,242.4z"/>
		<path class="st52" d="M163.1,172.8l-17.3-2.2l-8.4,19.1l-2.6,79.6l5.3,6.2h37.2l-5.3-68.2C172,207.3,167.6,176.3,163.1,172.8z"/>
		<path class="st53" d="M159.2,173.2c0,0,1.8,4.4-3.5,5.3c-5.3,0.8-9.7-6.2-9.7-6.2l-0.8-11.5L159.2,173.2z"/>
		<g>
			<g>
				<path id="XMLID_7_" class="st13" d="M145.9,170.6l-33.7,9.7c0,0,10.6,53,6.2,89.3c-4.4,36.3-6.2,34.5-6.2,34.5h26.6
					C138.8,304.2,160.1,248.9,145.9,170.6z"/>
			</g>
			<g>
				<defs>
					<path id="SVGID_69_" d="M145.9,170.6l-33.7,9.7c0,0,10.6,53,6.2,89.3c-4.4,36.3-6.2,34.5-6.2,34.5h26.6
						C138.8,304.2,160.1,248.9,145.9,170.6z"/>
				</defs>
				<clipPath id="SVGID_70_">
					<use xlink:href="#SVGID_69_"  style="overflow:visible;"/>
				</clipPath>
				<g class="st54">
					<g>
						<path class="st13" d="M123.4,175c-0.5-3.9-1-7.8-1.5-11.8c-0.1-1.1-1.8-1.1-1.7,0c0.5,3.9,1,7.8,1.5,11.8
							C121.9,176.1,123.6,176.1,123.4,175L123.4,175z"/>
					</g>
				</g>
			</g>
			<g>
				<defs>
					<path id="SVGID_71_" d="M145.9,170.6l-33.7,9.7c0,0,10.6,53,6.2,89.3c-4.4,36.3-6.2,34.5-6.2,34.5h26.6
						C138.8,304.2,160.1,248.9,145.9,170.6z"/>
				</defs>
				<clipPath id="SVGID_72_">
					<use xlink:href="#SVGID_71_"  style="overflow:visible;"/>
				</clipPath>
				<g class="st55">
					<g>
						<path class="st37" d="M143.1,171.6c-4.2,5.3-8.7,10.4-13.3,15.2c-0.1,0.1-0.1,0.3,0.1,0.3c2.9,0.4,9.4,0.3,9.7,3.8
							c0.2,2-3.8,7.3-4.9,9.1c-0.5,1-1.8,2.8-1.9,3.8c-0.1,1.2,1.8,3.7,2.2,4.9c0.6,1.7,1.2,3.4,1.7,5.1c4.6,14.4,8.6,29,12.2,43.7
							c0.1,0.2,0.4,0.1,0.4-0.1c-3-12.1-6.1-24.1-9.7-36c-1.5-5.1-3.3-10-4.9-15c-1.7-5.5,3.7-12.2,6.2-17.1c0.1-0.1,0-0.3-0.1-0.3
							c-2.2-0.5-5.2-0.7-7.2-1.7c-1.6,0.3-2.2-0.3-2.1-1.7c0.7-0.7,1.4-1.5,2.1-2.2c3.4-3.7,6.7-7.6,9.8-11.5
							C143.6,171.8,143.2,171.4,143.1,171.6L143.1,171.6z"/>
					</g>
				</g>
			</g>
			<g>
				<defs>
					<path id="SVGID_73_" d="M145.9,170.6l-33.7,9.7c0,0,10.6,53,6.2,89.3c-4.4,36.3-6.2,34.5-6.2,34.5h26.6
						C138.8,304.2,160.1,248.9,145.9,170.6z"/>
				</defs>
				<clipPath id="SVGID_74_">
					<use xlink:href="#SVGID_73_"  style="overflow:visible;"/>
				</clipPath>
				<g class="st56">
					<g>
						<path class="st37" d="M120.1,226.5c0.8-0.4,1.6-1.1,2.1-1.9c0.1-0.2-0.2-0.4-0.3-0.2c-0.5,0.7-1.2,1.4-2,1.7
							C119.6,226.3,119.8,226.6,120.1,226.5L120.1,226.5z"/>
					</g>
				</g>
			</g>
			<g>
				<defs>
					<path id="SVGID_75_" d="M145.9,170.6l-33.7,9.7c0,0,10.6,53,6.2,89.3c-4.4,36.3-6.2,34.5-6.2,34.5h26.6
						C138.8,304.2,160.1,248.9,145.9,170.6z"/>
				</defs>
				<clipPath id="SVGID_76_">
					<use xlink:href="#SVGID_75_"  style="overflow:visible;"/>
				</clipPath>
				<g class="st57">
					<g>
						<path class="st37" d="M120.6,228c1.3-0.3,2.5-0.3,3.8-0.2c0.2,0,0.2-0.4,0-0.4c-1.3-0.1-2.6,0-3.9,0.2
							C120.3,227.6,120.4,228.1,120.6,228L120.6,228z"/>
					</g>
				</g>
			</g>
			<g>
				<defs>
					<path id="SVGID_77_" d="M145.9,170.6l-33.7,9.7c0,0,10.6,53,6.2,89.3c-4.4,36.3-6.2,34.5-6.2,34.5h26.6
						C138.8,304.2,160.1,248.9,145.9,170.6z"/>
				</defs>
				<clipPath id="SVGID_78_">
					<use xlink:href="#SVGID_77_"  style="overflow:visible;"/>
				</clipPath>
				<g class="st58">
					<g>
						<path class="st37" d="M119.7,269.8c4.9,1.3,9.6,2.4,14.6,1c0.2-0.1,0.1-0.4-0.1-0.4c-4.9,1.4-9.6,0.3-14.4-1
							C119.6,269.3,119.5,269.7,119.7,269.8L119.7,269.8z"/>
					</g>
				</g>
			</g>
			<g>
				<defs>
					<path id="SVGID_79_" d="M145.9,170.6l-33.7,9.7c0,0,10.6,53,6.2,89.3c-4.4,36.3-6.2,34.5-6.2,34.5h26.6
						C138.8,304.2,160.1,248.9,145.9,170.6z"/>
				</defs>
				<clipPath id="SVGID_80_">
					<use xlink:href="#SVGID_79_"  style="overflow:visible;"/>
				</clipPath>
				<g class="st59">
					<g>
						<path class="st37" d="M120.1,273c4.2,1,8.4,1.1,12.6,0.2c0.2,0,0.1-0.4-0.1-0.4c-4.1,0.7-8.3,0.7-12.4-0.2
							C120,272.5,119.8,273,120.1,273L120.1,273z"/>
					</g>
				</g>
			</g>
			<g>
				<defs>
					<path id="SVGID_81_" d="M145.9,170.6l-33.7,9.7c0,0,10.6,53,6.2,89.3c-4.4,36.3-6.2,34.5-6.2,34.5h26.6
						C138.8,304.2,160.1,248.9,145.9,170.6z"/>
				</defs>
				<clipPath id="SVGID_82_">
					<use xlink:href="#SVGID_81_"  style="overflow:visible;"/>
				</clipPath>
				<g class="st60">
					<g>
						<path class="st37" d="M132.8,270.3c1.2,4.3-0.3,8.7-2.8,12.4c-1.1,1.6-2.2,3.1-3.8,4.1c-3.3,2.2-8.5,2.1-9.7-2.5
							c-0.1-0.2-0.4-0.1-0.4,0.1c1.4,5.2,7.1,5.3,10.8,2.4c4.8-3.7,7.7-10.9,6.2-16.7C133.1,269.9,132.7,270,132.8,270.3
							L132.8,270.3z"/>
					</g>
				</g>
			</g>
		</g>
		<g>
			<g>
				<path id="XMLID_9_" class="st13" d="M159.2,172l21.7,15.9l10.6,24.8l-5.3,42.5l0.8,49.5h-7.9c0,0-12.4-33.7-10.6-63.7
					C170.2,210.8,161.9,176.4,159.2,172z"/>
			</g>
			<g>
				<defs>
					<path id="SVGID_83_" d="M159.2,172l21.7,15.9l10.6,24.8l-5.3,42.5l0.8,49.5h-7.9c0,0-12.4-33.7-10.6-63.7
						C170.2,210.8,161.9,176.4,159.2,172z"/>
				</defs>
				<clipPath id="SVGID_84_">
					<use xlink:href="#SVGID_83_"  style="overflow:visible;"/>
				</clipPath>
				<g class="st61">
					<g>
						<path class="st37" d="M178.9,182.7c1.1,0,1.1-1.7,0-1.7C177.9,181.1,177.9,182.7,178.9,182.7L178.9,182.7z"/>
					</g>
				</g>
			</g>
			<g>
				<defs>
					<path id="SVGID_85_" d="M159.2,172l21.7,15.9l10.6,24.8l-5.3,42.5l0.8,49.5h-7.9c0,0-12.4-33.7-10.6-63.7
						C170.2,210.8,161.9,176.4,159.2,172z"/>
				</defs>
				<clipPath id="SVGID_86_">
					<use xlink:href="#SVGID_85_"  style="overflow:visible;"/>
				</clipPath>
				<g class="st62">
					<g>
						<path class="st37" d="M164.2,176.1c1.2,4.2,2.5,8.5,4.1,12.7c1.1,2.6,5.2,8.6,0.2,8.2c-0.2,0-0.2,0.2-0.1,0.3
							c2.9,3.1,5.7,5.6,5.8,10.2c0.1,3-1.5,7-2.2,10c-1.5,6.7-2.9,13.2-4.3,19.9c-0.1,0.2,0.3,0.3,0.4,0.1c2-9.3,4-18.5,6.1-27.8
							c0.5-2.4,1.4-4,0.3-6.1c-0.8-1.9-7.8-6.2-2.2-5.7c0.2,0,0.2-0.2,0.2-0.3c-3.3-6.9-5.8-14-7.8-21.3
							C164.5,175.7,164.1,175.8,164.2,176.1L164.2,176.1z"/>
					</g>
				</g>
			</g>
			<g>
				<defs>
					<path id="SVGID_87_" d="M159.2,172l21.7,15.9l10.6,24.8l-5.3,42.5l0.8,49.5h-7.9c0,0-12.4-33.7-10.6-63.7
						C170.2,210.8,161.9,176.4,159.2,172z"/>
				</defs>
				<clipPath id="SVGID_88_">
					<use xlink:href="#SVGID_87_"  style="overflow:visible;"/>
				</clipPath>
				<g class="st63">
					<g>
						<path class="st37" d="M178.6,191.9c-1.5,9.2-0.7,18.2,2.4,27c0.1,0.2,0.5,0.1,0.4-0.1c-3.1-8.7-3.9-17.7-2.4-26.8
							C179,191.7,178.7,191.5,178.6,191.9L178.6,191.9z"/>
					</g>
				</g>
			</g>
			<g>
				<defs>
					<path id="SVGID_89_" d="M159.2,172l21.7,15.9l10.6,24.8l-5.3,42.5l0.8,49.5h-7.9c0,0-12.4-33.7-10.6-63.7
						C170.2,210.8,161.9,176.4,159.2,172z"/>
				</defs>
				<clipPath id="SVGID_90_">
					<use xlink:href="#SVGID_89_"  style="overflow:visible;"/>
				</clipPath>
				<g class="st64">
					<g>
						<path class="st37" d="M175.8,189.1c0.6-0.5,1.4-1.1,2-1.7c0.2-0.2-0.1-0.4-0.3-0.3c-0.6,0.5-1.4,1.1-2,1.7
							C175.3,189,175.6,189.3,175.8,189.1L175.8,189.1z"/>
					</g>
				</g>
			</g>
			<g>
				<defs>
					<path id="SVGID_91_" d="M159.2,172l21.7,15.9l10.6,24.8l-5.3,42.5l0.8,49.5h-7.9c0,0-12.4-33.7-10.6-63.7
						C170.2,210.8,161.9,176.4,159.2,172z"/>
				</defs>
				<clipPath id="SVGID_92_">
					<use xlink:href="#SVGID_91_"  style="overflow:visible;"/>
				</clipPath>
				<g class="st65">
					<g>
						<path class="st37" d="M176.5,190.6c0.3-0.1,0.7-0.2,1.1-0.4c0.2-0.1,0.1-0.5-0.1-0.4c-0.3,0.1-0.7,0.2-1.1,0.4
							C176.1,190.3,176.2,190.7,176.5,190.6L176.5,190.6z"/>
					</g>
				</g>
			</g>
			<g>
				<defs>
					<path id="SVGID_93_" d="M159.2,172l21.7,15.9l10.6,24.8l-5.3,42.5l0.8,49.5h-7.9c0,0-12.4-33.7-10.6-63.7
						C170.2,210.8,161.9,176.4,159.2,172z"/>
				</defs>
				<clipPath id="SVGID_94_">
					<use xlink:href="#SVGID_93_"  style="overflow:visible;"/>
				</clipPath>
				<g class="st66">
					<g>
						<path class="st37" d="M179.9,272.4c2.5-0.2,5-0.3,7.5-0.2c0.3,0,0.2-0.4,0-0.4c-2.5-0.1-5-0.1-7.5,0.2
							C179.7,272,179.7,272.4,179.9,272.4L179.9,272.4z"/>
					</g>
				</g>
			</g>
			<g>
				<defs>
					<path id="SVGID_95_" d="M159.2,172l21.7,15.9l10.6,24.8l-5.3,42.5l0.8,49.5h-7.9c0,0-12.4-33.7-10.6-63.7
						C170.2,210.8,161.9,176.4,159.2,172z"/>
				</defs>
				<clipPath id="SVGID_96_">
					<use xlink:href="#SVGID_95_"  style="overflow:visible;"/>
				</clipPath>
				<g class="st67">
					<g>
						<path class="st37" d="M179.3,277.1c2.8-0.4,5.5-0.8,8.3-1.3c0.2,0,0.1-0.4-0.1-0.4c-2.8,0.4-5.5,0.8-8.3,1.3
							C179,276.7,179.1,277.1,179.3,277.1L179.3,277.1z"/>
					</g>
				</g>
			</g>
			<g>
				<defs>
					<path id="SVGID_97_" d="M159.2,172l21.7,15.9l10.6,24.8l-5.3,42.5l0.8,49.5h-7.9c0,0-12.4-33.7-10.6-63.7
						C170.2,210.8,161.9,176.4,159.2,172z"/>
				</defs>
				<clipPath id="SVGID_98_">
					<use xlink:href="#SVGID_97_"  style="overflow:visible;"/>
				</clipPath>
				<g class="st68">
					<g>
						<path class="st37" d="M179.8,272.4c-2,4.4,1.6,9.7,4.4,13c2,2.3,7.7,5.8,8.8,0.6c0-0.2-0.3-0.3-0.4-0.1
							c-1.1,5.6-6.5,0.8-7.7-0.4c-1.1-1.1-1.9-2.3-2.6-3.6c-1.8-2.8-3.6-5.9-2.1-9.3C180.2,272.3,179.9,272.2,179.8,272.4
							L179.8,272.4z"/>
					</g>
				</g>
			</g>
			<g>
				<defs>
					<path id="SVGID_99_" d="M159.2,172l21.7,15.9l10.6,24.8l-5.3,42.5l0.8,49.5h-7.9c0,0-12.4-33.7-10.6-63.7
						C170.2,210.8,161.9,176.4,159.2,172z"/>
				</defs>
				<clipPath id="SVGID_100_">
					<use xlink:href="#SVGID_99_"  style="overflow:visible;"/>
				</clipPath>
				<g class="st69">
					<g>
						<path class="st37" d="M181.9,302.5c2.9-0.1,5.6-0.1,8.5-0.2c0.3,0,0.3-0.4,0-0.4c-2.9,0.1-5.6,0.1-8.5,0.2
							C181.7,302.1,181.7,302.5,181.9,302.5L181.9,302.5z"/>
					</g>
				</g>
			</g>
		</g>
		<polygon class="st70" points="197.1,207.6 170.7,224.6 135.3,224.6 133.5,267 172.4,269.8 194.6,255.5 		"/>
		<path class="st53" d="M127.9,245.2l2.4-1.2l4.3-1.4l-0.1,3.8l3.5,0.3c0,0,3.9,11-3.9,11.4c-7.8,0.3-11.2-2.1-11.2-2.1
			S120.6,246.5,127.9,245.2z"/>
		<path class="st53" d="M195.6,235c0,0,1.6,1.9,2.4,3.7c0.8,1.8,5.3,3.5,3.5,6.2c0,0,2.6,4.4,0,5.3s-7.1,3.5-9.7,1.8
			C189.3,250.2,191.4,240.1,195.6,235z"/>
		<path class="st53" d="M177.3,143.6c0,0-3.5,21.3-15,25.6c0,0-18.6-0.8-14.2-15.9c0,0-6.2,0.8-6.2-3.5c0-4.3,6.2-9.7,8.9-0.8
			l5.3-15.9L177.3,143.6z"/>
		<path class="st31" d="M151.7,145.9c0,0,1.2,16,18.6,16.1c0,0-1.1,9.8-1.9,10.8c-0.8,0.8-5.3,3.5-10.6,2.6
			c-5.3-0.8-15-13.2-14.2-15.9C144.6,156.8,150.1,150.9,151.7,145.9z"/>
		<path class="st31" d="M176.4,147.7c0,0,7.5-1.9,7.5-8.2s-11.5-15-20.3-15.9s-14.2,5.3-14.2,5.3l-3.5,15c0,0,4.4,0.8,4.4,5.3
			c0,0,7.9-5.3,10.6-9.7C160.9,139.6,165.3,146.1,176.4,147.7z"/>
		<path class="st34" d="M106.8,450.5h24.8c0,0-0.8-4.4-2.6-6.2c-1.8-1.8-2.6-5.3-7.1-6.2c-4.4-0.8-9.7,0.8-12.4,6.2
			C109.5,444.2,106.8,446.9,106.8,450.5z"/>
		<g>
			<g>
				<path id="XMLID_8_" class="st13" d="M112.5,180.2c0,0-25.4,40.3-22.8,59.8c2.6,19.5,34.3,18.2,34.3,18.2s-4.4-9.8,2.8-13.2
					c0,0-13.1-6.8-17.6-6.8c0,0,15-18.6,15.9-25.6C126,205.5,123.1,181.9,112.5,180.2z"/>
			</g>
			<g>
				<defs>
					<path id="SVGID_101_" d="M112.5,180.2c0,0-25.4,40.3-22.8,59.8c2.6,19.5,34.3,18.2,34.3,18.2s-4.4-9.8,2.8-13.2
						c0,0-13.1-6.8-17.6-6.8c0,0,15-18.6,15.9-25.6C126,205.5,123.1,181.9,112.5,180.2z"/>
				</defs>
				<clipPath id="SVGID_102_">
					<use xlink:href="#SVGID_101_"  style="overflow:visible;"/>
				</clipPath>
				<g class="st71">
					<g>
						<path class="st37" d="M100.3,198.6c1.1,0,1.1-1.7,0-1.7C99.2,196.9,99.2,198.6,100.3,198.6L100.3,198.6z"/>
					</g>
				</g>
			</g>
			<g>
				<defs>
					<path id="SVGID_103_" d="M112.5,180.2c0,0-25.4,40.3-22.8,59.8c2.6,19.5,34.3,18.2,34.3,18.2s-4.4-9.8,2.8-13.2
						c0,0-13.1-6.8-17.6-6.8c0,0,15-18.6,15.9-25.6C126,205.5,123.1,181.9,112.5,180.2z"/>
				</defs>
				<clipPath id="SVGID_104_">
					<use xlink:href="#SVGID_103_"  style="overflow:visible;"/>
				</clipPath>
				<g class="st72">
					<g>
						<path class="st37" d="M112.9,182c7.7,9.3,10.1,21.7,6.1,33.1c-0.1,0.2,0.3,0.3,0.4,0.1c4-11.6,1.6-24.1-6.2-33.6
							C113,181.5,112.8,181.8,112.9,182L112.9,182z"/>
					</g>
				</g>
			</g>
			<g>
				<defs>
					<path id="SVGID_105_" d="M112.5,180.2c0,0-25.4,40.3-22.8,59.8c2.6,19.5,34.3,18.2,34.3,18.2s-4.4-9.8,2.8-13.2
						c0,0-13.1-6.8-17.6-6.8c0,0,15-18.6,15.9-25.6C126,205.5,123.1,181.9,112.5,180.2z"/>
				</defs>
				<clipPath id="SVGID_106_">
					<use xlink:href="#SVGID_105_"  style="overflow:visible;"/>
				</clipPath>
				<g class="st73">
					<g>
						<path class="st37" d="M118.6,224.7c0.2-1.9,0.3-3.9,0.3-5.8c0-0.3-0.4-0.3-0.4,0c0,2-0.1,3.9-0.3,5.8
							C118.2,225,118.6,225,118.6,224.7L118.6,224.7z"/>
					</g>
				</g>
			</g>
			<g>
				<defs>
					<path id="SVGID_107_" d="M112.5,180.2c0,0-25.4,40.3-22.8,59.8c2.6,19.5,34.3,18.2,34.3,18.2s-4.4-9.8,2.8-13.2
						c0,0-13.1-6.8-17.6-6.8c0,0,15-18.6,15.9-25.6C126,205.5,123.1,181.9,112.5,180.2z"/>
				</defs>
				<clipPath id="SVGID_108_">
					<use xlink:href="#SVGID_107_"  style="overflow:visible;"/>
				</clipPath>
				<g class="st74">
					<g>
						<path class="st37" d="M108.8,237.6c-2.8-1.2-5.7-1-8.3,0.6c-0.2,0.1,0,0.5,0.2,0.3c2.4-1.5,5.2-1.8,7.8-0.6
							C108.8,238.1,109,237.7,108.8,237.6L108.8,237.6z"/>
					</g>
				</g>
			</g>
			<g>
				<defs>
					<path id="SVGID_109_" d="M112.5,180.2c0,0-25.4,40.3-22.8,59.8c2.6,19.5,34.3,18.2,34.3,18.2s-4.4-9.8,2.8-13.2
						c0,0-13.1-6.8-17.6-6.8c0,0,15-18.6,15.9-25.6C126,205.5,123.1,181.9,112.5,180.2z"/>
				</defs>
				<clipPath id="SVGID_110_">
					<use xlink:href="#SVGID_109_"  style="overflow:visible;"/>
				</clipPath>
				<g class="st75">
					<g>
						<path class="st37" d="M103.8,234.8c1.5,0.2,2.9,0.6,4.1,1.4c0.2,0.1,0.4-0.2,0.2-0.3c-1.4-0.7-2.8-1.3-4.3-1.5
							C103.4,234.4,103.4,234.8,103.8,234.8L103.8,234.8z"/>
					</g>
				</g>
			</g>
			<g>
				<defs>
					<path id="SVGID_111_" d="M112.5,180.2c0,0-25.4,40.3-22.8,59.8c2.6,19.5,34.3,18.2,34.3,18.2s-4.4-9.8,2.8-13.2
						c0,0-13.1-6.8-17.6-6.8c0,0,15-18.6,15.9-25.6C126,205.5,123.1,181.9,112.5,180.2z"/>
				</defs>
				<clipPath id="SVGID_112_">
					<use xlink:href="#SVGID_111_"  style="overflow:visible;"/>
				</clipPath>
				<g class="st76">
					<g>
						<path class="st37" d="M123.1,245.1c-3.5,2.2-4.7,6.4-2.9,10.1c0.1,0.2,0.4,0,0.3-0.2c-1.7-3.5-0.6-7.4,2.6-9.5
							C123.6,245.3,123.3,245,123.1,245.1L123.1,245.1z"/>
					</g>
				</g>
			</g>
			<g>
				<defs>
					<path id="SVGID_113_" d="M112.5,180.2c0,0-25.4,40.3-22.8,59.8c2.6,19.5,34.3,18.2,34.3,18.2s-4.4-9.8,2.8-13.2
						c0,0-13.1-6.8-17.6-6.8c0,0,15-18.6,15.9-25.6C126,205.5,123.1,181.9,112.5,180.2z"/>
				</defs>
				<clipPath id="SVGID_114_">
					<use xlink:href="#SVGID_113_"  style="overflow:visible;"/>
				</clipPath>
				<g class="st77">
					<g>
						<path class="st37" d="M120.2,244.8c0,0.1,0,0.2,0,0.3c0,0.3,0.4,0.3,0.4,0c0-0.1,0-0.2,0-0.3
							C120.6,244.6,120.2,244.6,120.2,244.8L120.2,244.8z"/>
					</g>
				</g>
			</g>
		</g>
		<g>
			<path class="st31" d="M160,149.6c1.5-1.2,3.6-1,5.1,0.3c0.2,0.2,0.5-0.1,0.3-0.3c-1.6-1.4-3.9-1.6-5.7-0.3
				C159.4,149.5,159.8,149.8,160,149.6L160,149.6z"/>
		</g>
		<g>
			<path class="st31" d="M171.6,151.1c1.3,0.3,2.1,1.6,2.1,2.9c0,0.2,0.3,0.2,0.3,0c0-1.5-0.8-2.8-2.3-3.2
				C171.5,150.8,171.4,151.1,171.6,151.1L171.6,151.1z"/>
		</g>
		<g>
			<path class="st32" d="M166.5,155.3c0.1,1.2,0.1,2.3,0.1,3.4c0,0.6,0.1,1.3,0,1.9c-0.2,1.1-2.1,0.5-2.6,0
				c-0.2-0.1-0.4,0.2-0.2,0.3c0.6,0.5,1.9,0.8,2.6,0.4c0.6-0.3,0.5-0.8,0.5-1.5c0-1.6,0-3.1-0.1-4.7
				C166.8,155.1,166.5,155.1,166.5,155.3L166.5,155.3z"/>
		</g>
		
			<ellipse transform="matrix(0.5453 -0.8382 0.8382 0.5453 -54.7184 206.5803)" class="st33" cx="163.1" cy="153.7" rx="1.1" ry="0.7"/>
		
			<ellipse transform="matrix(0.5453 -0.8382 0.8382 0.5453 -53.9478 214.5142)" class="st33" cx="170.8" cy="157" rx="1.1" ry="0.7"/>
		<g>
			<path class="st33" d="M155.8,163.5c0.2,0.7,0.6,1.5,1.1,2.1c1.1,1.3,2.6,1.6,4.2,1.4c0.3,0,0.2-0.4-0.1-0.4
				c-2.2,0.2-4.3-0.8-4.9-3.2C156.2,163.2,155.7,163.2,155.8,163.5L155.8,163.5z"/>
		</g>
	</g>
	<g class="st78">
		<g>
			<path class="st79" d="M530,252.3c0.3,0,0.3-0.4,0-0.4C529.7,252,529.7,252.3,530,252.3L530,252.3z"/>
		</g>
	</g>
	<g>
		<path class="st80" d="M451.4,201.1c0,0-11-0.5-13.2,12.6c-2.2,13.2-9.3,42.3-9.3,42.3l-33,4.3l3.4,2.9c0,0,28.6,5,36.2,0.5
			c7.7-4.4,9.3-31.3,11.5-37.9C449.2,219.2,451.4,201.1,451.4,201.1z"/>
		<path class="st13" d="M472.3,193.2c0,0,8.9,0.1,8.9-5.7c0,0,9.7-3.3,6.5-9.7c0,0,7.8-7.1,2.6-13c0,0,5.8-9.1,0-13
			c0,0-2.6-13-9.7-10.4c0,0-1.3-8.5-11.6-3.9c0,0-10.4-7.8-13.7-1.9c0,0-13-0.6-13,5.8c0,0-10.4,3.9-6.5,12.3c0,0-5.2,9.1-0.6,13.7
			c0,0-4.6,8.5,1.9,12.3c0,0-1.3,9.1,5.2,9.7c0,0,7.8,8.5,13.7,3.9C455.8,193.5,469.2,198.3,472.3,193.2z"/>
		<g>
			<g>
				<path id="XMLID_6_" class="st80" d="M474.9,416.4c0,0-6-1.8-8.7,4.8l13.6,15.1c0,0,7.4,11.1,6.4,13.4c-1.1,2.2-4.9,8.2,0.3,4
					c5.2-4.1,7-5.5,5.8-8.8c-1.2-3.3-3.1-7.5-3.1-7.5l7.8,8c0,0-6.9-15.9-14.4-12.7"/>
			</g>
			<g>
				<defs>
					<path id="SVGID_115_" d="M474.9,416.4c0,0-6-1.8-8.7,4.8l13.6,15.1c0,0,7.4,11.1,6.4,13.4c-1.1,2.2-4.9,8.2,0.3,4
						c5.2-4.1,7-5.5,5.8-8.8c-1.2-3.3-3.1-7.5-3.1-7.5l7.8,8c0,0-6.9-15.9-14.4-12.7"/>
				</defs>
				<clipPath id="SVGID_116_">
					<use xlink:href="#SVGID_115_"  style="overflow:visible;"/>
				</clipPath>
				<path class="st81" d="M483.7,430.6l-1.1,1.9c0,0,12.4,16.2,2.8,16.6c-9.6,0.3-2.9,10.9-2.9,10.9l13.8-5.6l9-10.7l-12.6-16.9
					L483.7,430.6z"/>
			</g>
		</g>
		<g>
			<g>
				<path id="XMLID_5_" class="st80" d="M474.5,423.5c0,0-3.8-5-9.8-1.1l2.4,20.1c0,0-0.3,13.4-2.5,14.6c-2.1,1.3-8.7,3.8-2,3.5
					c6.7-0.4,8.9-0.5,9.8-3.9c1-3.4,1.8-7.9,1.8-7.9l1.8,11c0,0,3.5-16.9-4.4-18.7"/>
			</g>
			<g>
				<defs>
					<path id="SVGID_117_" d="M474.5,423.5c0,0-3.8-5-9.8-1.1l2.4,20.1c0,0-0.3,13.4-2.5,14.6c-2.1,1.3-8.7,3.8-2,3.5
						c6.7-0.4,8.9-0.5,9.8-3.9c1-3.4,1.8-7.9,1.8-7.9l1.8,11c0,0,3.5-16.9-4.4-18.7"/>
				</defs>
				<clipPath id="SVGID_118_">
					<use xlink:href="#SVGID_117_"  style="overflow:visible;"/>
				</clipPath>
				<path class="st82" d="M473.5,440.2l-2,1c0,0,0.8,20.4-7.2,15.1c-8-5.2-8.7,7.3-8.7,7.3l14.5,3.3l13.6-3.6l-0.5-21.2L473.5,440.2
					z"/>
			</g>
		</g>
		<path class="st80" d="M486.1,233c0,0,0,82.9,7.4,84.1c7.4,1.3,13.6-1.3,17.4,0c3.7,1.3,8.7,0,8.7,0s-8.7-6.1-21.1-5l-1.3-44.5
			c0,0,13.6-61.8-3.7-54.4C493.6,213.3,481.3,225.6,486.1,233z"/>
		<g>
			<g>
				<path id="XMLID_11_" class="st79" d="M482.4,266.4c0,0,13.6,11.2,12.4,44.7c-1.3,33.3-13.6,106.3-19.8,121.2
					c0,0-11.1,1.3-12.4-1.3c0,0-1.3-119.9,1.3-127.4c0,0-23.5-16.1-22.2-30.9C442.9,257.9,482.4,266.4,482.4,266.4z"/>
			</g>
			<g>
				<defs>
					<path id="SVGID_119_" d="M482.4,266.4c0,0,13.6,11.2,12.4,44.7c-1.3,33.3-13.6,106.3-19.8,121.2c0,0-11.1,1.3-12.4-1.3
						c0,0-1.3-119.9,1.3-127.4c0,0-23.5-16.1-22.2-30.9C442.9,257.9,482.4,266.4,482.4,266.4z"/>
				</defs>
				<clipPath id="SVGID_120_">
					<use xlink:href="#SVGID_119_"  style="overflow:visible;"/>
				</clipPath>
				<polyline class="st83" points="460.9,369.9 481.7,420.8 470.1,435.7 459.7,418.1 460.9,369.9 				"/>
			</g>
			<g>
				<defs>
					<path id="SVGID_121_" d="M482.4,266.4c0,0,13.6,11.2,12.4,44.7c-1.3,33.3-13.6,106.3-19.8,121.2c0,0-11.1,1.3-12.4-1.3
						c0,0-1.3-119.9,1.3-127.4c0,0-23.5-16.1-22.2-30.9C442.9,257.9,482.4,266.4,482.4,266.4z"/>
				</defs>
				<clipPath id="SVGID_122_">
					<use xlink:href="#SVGID_121_"  style="overflow:visible;"/>
				</clipPath>
				<g class="st84">
					<g>
						<path class="st79" d="M460.5,358.7c1.1,0,1.1-1.7,0-1.7C459.4,357.1,459.4,358.7,460.5,358.7L460.5,358.7z"/>
					</g>
				</g>
			</g>
			<g>
				<defs>
					<path id="SVGID_123_" d="M482.4,266.4c0,0,13.6,11.2,12.4,44.7c-1.3,33.3-13.6,106.3-19.8,121.2c0,0-11.1,1.3-12.4-1.3
						c0,0-1.3-119.9,1.3-127.4c0,0-23.5-16.1-22.2-30.9C442.9,257.9,482.4,266.4,482.4,266.4z"/>
				</defs>
				<clipPath id="SVGID_124_">
					<use xlink:href="#SVGID_123_"  style="overflow:visible;"/>
				</clipPath>
				<g class="st85">
					<g>
						<path class="st79" d="M473.6,270.9c1.6,8.9,6.4,19.5,13.9,25c4.8,3.6,12.3,3.7,14.8-2.5c0.1-0.2-0.3-0.3-0.4-0.1
							c-2.2,5.4-8.6,5.7-12.9,3.2c-3.2-1.9-5.5-5.1-7.6-8c-3.7-5.3-6.2-11.2-7.4-17.6C474,270.5,473.5,270.6,473.6,270.9
							L473.6,270.9z"/>
					</g>
				</g>
			</g>
			<g>
				<defs>
					<path id="SVGID_125_" d="M482.4,266.4c0,0,13.6,11.2,12.4,44.7c-1.3,33.3-13.6,106.3-19.8,121.2c0,0-11.1,1.3-12.4-1.3
						c0,0-1.3-119.9,1.3-127.4c0,0-23.5-16.1-22.2-30.9C442.9,257.9,482.4,266.4,482.4,266.4z"/>
				</defs>
				<clipPath id="SVGID_126_">
					<use xlink:href="#SVGID_125_"  style="overflow:visible;"/>
				</clipPath>
				<g class="st86">
					<g>
						<path class="st79" d="M473.6,282c9.5,0,19.1-0.1,28.4-2.3c0.2-0.1,0.1-0.4-0.1-0.4c-9.3,2.2-18.7,2.3-28.3,2.3
							C473.4,281.5,473.4,282,473.6,282L473.6,282z"/>
					</g>
				</g>
			</g>
			<g>
				<defs>
					<path id="SVGID_127_" d="M482.4,266.4c0,0,13.6,11.2,12.4,44.7c-1.3,33.3-13.6,106.3-19.8,121.2c0,0-11.1,1.3-12.4-1.3
						c0,0-1.3-119.9,1.3-127.4c0,0-23.5-16.1-22.2-30.9C442.9,257.9,482.4,266.4,482.4,266.4z"/>
				</defs>
				<clipPath id="SVGID_128_">
					<use xlink:href="#SVGID_127_"  style="overflow:visible;"/>
				</clipPath>
				<g class="st87">
					<g>
						<path class="st79" d="M437.9,274.9c24.5,4.3,50.3,8.5,73.8-2.1c0.2-0.1,0-0.4-0.2-0.3c-23.4,10.6-49.1,6.4-73.5,2
							C437.7,274.3,437.6,274.8,437.9,274.9L437.9,274.9z"/>
					</g>
				</g>
			</g>
			<g>
				<defs>
					<path id="SVGID_129_" d="M482.4,266.4c0,0,13.6,11.2,12.4,44.7c-1.3,33.3-13.6,106.3-19.8,121.2c0,0-11.1,1.3-12.4-1.3
						c0,0-1.3-119.9,1.3-127.4c0,0-23.5-16.1-22.2-30.9C442.9,257.9,482.4,266.4,482.4,266.4z"/>
				</defs>
				<clipPath id="SVGID_130_">
					<use xlink:href="#SVGID_129_"  style="overflow:visible;"/>
				</clipPath>
				<g class="st88">
					<g>
						<path class="st79" d="M488.3,293.9c2.4,28.6-0.1,57.1-7.2,84.9c-3.3,12.9-7.1,25.7-9.7,38.7c-2.5,12.7-2.6,26.3-7.7,38.3
							c-0.1,0.2,0.3,0.3,0.4,0.1c5.1-12.1,5.2-25.6,7.7-38.3c2.8-13.8,6.9-27.1,10.3-40.8c6.8-27.2,9.1-55.2,6.7-83.1
							C488.7,293.6,488.2,293.6,488.3,293.9L488.3,293.9z"/>
					</g>
				</g>
			</g>
			<g>
				<defs>
					<path id="SVGID_131_" d="M482.4,266.4c0,0,13.6,11.2,12.4,44.7c-1.3,33.3-13.6,106.3-19.8,121.2c0,0-11.1,1.3-12.4-1.3
						c0,0-1.3-119.9,1.3-127.4c0,0-23.5-16.1-22.2-30.9C442.9,257.9,482.4,266.4,482.4,266.4z"/>
				</defs>
				<clipPath id="SVGID_132_">
					<use xlink:href="#SVGID_131_"  style="overflow:visible;"/>
				</clipPath>
				<g class="st89">
					<g>
						<path class="st79" d="M460.9,428.3c5.4,1.7,10.9,2.3,16.5,1.5c3.2-0.4,6.7-1.1,7.6-4.6c0.1-0.2-0.3-0.3-0.4-0.1
							c-1.3,4.7-9.1,4.7-12.6,4.7c-3.8,0-7.5-0.7-11.1-1.9C460.8,427.8,460.7,428.1,460.9,428.3L460.9,428.3z"/>
					</g>
				</g>
			</g>
		</g>
		<path class="st79" d="M465.2,299.8c0,1.3-7.4,48.3-8.7,53.1c-1.3,5,23.5,69.2,23.5,70.5c0,0-3.7,8.7-9.8,7.4
			c-6.1-1.3-39.6-72.9-39.6-82.9c0-9.8,7.8-69,11.3-76.5C445.4,264,465.2,299.8,465.2,299.8z"/>
		<g>
			<g>
				<path id="XMLID_13_" class="st80" d="M475,201c0,0-7.1-9.7-3.3-19.1l-13.2,5c0,0,2.2,12.1-7,14.2c-4.3,1,2.4,8.7,2.4,8.7H470
					L475,201z"/>
			</g>
			<g>
				<defs>
					<path id="SVGID_133_" d="M475,201c0,0-7.1-9.7-3.3-19.1l-13.2,5c0,0,2.2,12.1-7,14.2c-4.3,1,2.4,8.7,2.4,8.7H470L475,201z"/>
				</defs>
				<clipPath id="SVGID_134_">
					<use xlink:href="#SVGID_133_"  style="overflow:visible;"/>
				</clipPath>
				<path class="st90" d="M456.7,193.7c0,0,11.8,3,12.8-9.1c1.1-12.1-14.3,8.8-14.3,8.8"/>
			</g>
		</g>
		<path class="st80" d="M448.7,154.9c0,1.5-5.7,32.9,7.2,37.2c12.9,4.3,18.6-14.3,18.6-14.3l-8.6-20L448.7,154.9z"/>
		<g>
			<g>
				<path id="XMLID_12_" class="st91" d="M475,201c0,0-12.4,8.7-23.5,0c0,0-3.4-0.4-7.3,2.3c-4.6,3.3-5,15.5-5,24.8
					c0,17.4,2.3,44.7,2.3,44.7s13.7,18,41.1-6.2c0,0-6.5-12.3-5.2-16.1c1.3-3.7,8.7-17.4,8.7-17.4s3.7-19.8,12.4-19.8
					C498.5,213.3,478.7,204.7,475,201z"/>
			</g>
			<g>
				<defs>
					<path id="SVGID_135_" d="M475,201c0,0-12.4,8.7-23.5,0c0,0-3.4-0.4-7.3,2.3c-4.6,3.3-5,15.5-5,24.8c0,17.4,2.3,44.7,2.3,44.7
						s13.7,18,41.1-6.2c0,0-6.5-12.3-5.2-16.1c1.3-3.7,8.7-17.4,8.7-17.4s3.7-19.8,12.4-19.8C498.5,213.3,478.7,204.7,475,201z"/>
				</defs>
				<clipPath id="SVGID_136_">
					<use xlink:href="#SVGID_135_"  style="overflow:visible;"/>
				</clipPath>
				<g class="st92">
					<g>
						<path class="st93" d="M433,279.5c1.1,0,1.1-1.7,0-1.7C431.8,277.8,431.8,279.5,433,279.5L433,279.5z"/>
					</g>
				</g>
			</g>
			<g>
				<defs>
					<path id="SVGID_137_" d="M475,201c0,0-12.4,8.7-23.5,0c0,0-3.4-0.4-7.3,2.3c-4.6,3.3-5,15.5-5,24.8c0,17.4,2.3,44.7,2.3,44.7
						s13.7,18,41.1-6.2c0,0-6.5-12.3-5.2-16.1c1.3-3.7,8.7-17.4,8.7-17.4s3.7-19.8,12.4-19.8C498.5,213.3,478.7,204.7,475,201z"/>
				</defs>
				<clipPath id="SVGID_138_">
					<use xlink:href="#SVGID_137_"  style="overflow:visible;"/>
				</clipPath>
				<g class="st94">
					<g>
						<path class="st93" d="M472,249c1.2,0.2,2.3,0.5,3.5,0.7c0.2,0.1,0.3-0.3,0.1-0.4c-1.2-0.2-2.3-0.5-3.5-0.7
							C471.9,248.6,471.8,248.9,472,249L472,249z"/>
					</g>
				</g>
			</g>
			<g>
				<defs>
					<path id="SVGID_139_" d="M475,201c0,0-12.4,8.7-23.5,0c0,0-3.4-0.4-7.3,2.3c-4.6,3.3-5,15.5-5,24.8c0,17.4,2.3,44.7,2.3,44.7
						s13.7,18,41.1-6.2c0,0-6.5-12.3-5.2-16.1c1.3-3.7,8.7-17.4,8.7-17.4s3.7-19.8,12.4-19.8C498.5,213.3,478.7,204.7,475,201z"/>
				</defs>
				<clipPath id="SVGID_140_">
					<use xlink:href="#SVGID_139_"  style="overflow:visible;"/>
				</clipPath>
				<g class="st95">
					<g>
						<path class="st93" d="M472.2,252.5c0.4-0.1,0.8-0.1,1.3-0.2c0.2,0,0.1-0.4-0.1-0.4c-0.4,0.1-0.8,0.1-1.3,0.2
							C471.8,252.2,471.9,252.5,472.2,252.5L472.2,252.5z"/>
					</g>
				</g>
			</g>
			<g>
				<defs>
					<path id="SVGID_141_" d="M475,201c0,0-12.4,8.7-23.5,0c0,0-3.4-0.4-7.3,2.3c-4.6,3.3-5,15.5-5,24.8c0,17.4,2.3,44.7,2.3,44.7
						s13.7,18,41.1-6.2c0,0-6.5-12.3-5.2-16.1c1.3-3.7,8.7-17.4,8.7-17.4s3.7-19.8,12.4-19.8C498.5,213.3,478.7,204.7,475,201z"/>
				</defs>
				<clipPath id="SVGID_142_">
					<use xlink:href="#SVGID_141_"  style="overflow:visible;"/>
				</clipPath>
				<g class="st96">
					<g>
						<path class="st93" d="M448.2,201.4c6.1,3.5,13.2,5.3,20.2,3.8c7.3-1.5,12.9-6.6,18.2-11.4c0.2-0.2-0.1-0.4-0.3-0.3
							c-4.9,4.4-9.8,9-16.3,10.9c-7.4,2.1-15.1,0.3-21.6-3.4C448.2,201,448,201.3,448.2,201.4L448.2,201.4z"/>
					</g>
				</g>
			</g>
			<g>
				<defs>
					<path id="SVGID_143_" d="M475,201c0,0-12.4,8.7-23.5,0c0,0-3.4-0.4-7.3,2.3c-4.6,3.3-5,15.5-5,24.8c0,17.4,2.3,44.7,2.3,44.7
						s13.7,18,41.1-6.2c0,0-6.5-12.3-5.2-16.1c1.3-3.7,8.7-17.4,8.7-17.4s3.7-19.8,12.4-19.8C498.5,213.3,478.7,204.7,475,201z"/>
				</defs>
				<clipPath id="SVGID_144_">
					<use xlink:href="#SVGID_143_"  style="overflow:visible;"/>
				</clipPath>
				<g class="st97">
					<g>
						<path class="st93" d="M440.4,271.7c3.1,2.1,6.5,3.6,10.2,4.4c0.2,0.1,0.3-0.3,0.1-0.4c-3.6-0.8-7-2.3-10.1-4.3
							C440.3,271.3,440.1,271.6,440.4,271.7L440.4,271.7z"/>
					</g>
				</g>
			</g>
			<g>
				<defs>
					<path id="SVGID_145_" d="M475,201c0,0-12.4,8.7-23.5,0c0,0-3.4-0.4-7.3,2.3c-4.6,3.3-5,15.5-5,24.8c0,17.4,2.3,44.7,2.3,44.7
						s13.7,18,41.1-6.2c0,0-6.5-12.3-5.2-16.1c1.3-3.7,8.7-17.4,8.7-17.4s3.7-19.8,12.4-19.8C498.5,213.3,478.7,204.7,475,201z"/>
				</defs>
				<clipPath id="SVGID_146_">
					<use xlink:href="#SVGID_145_"  style="overflow:visible;"/>
				</clipPath>
				<g class="st98">
					<g>
						<path class="st93" d="M442.4,271.9c1.2,0.3,2.3,0.6,3.5,1c0.2,0.1,0.3-0.3,0.1-0.4c-1.2-0.3-2.3-0.6-3.5-1
							C442.3,271.5,442.2,271.9,442.4,271.9L442.4,271.9z"/>
					</g>
				</g>
			</g>
			<g>
				<defs>
					<path id="SVGID_147_" d="M475,201c0,0-12.4,8.7-23.5,0c0,0-3.4-0.4-7.3,2.3c-4.6,3.3-5,15.5-5,24.8c0,17.4,2.3,44.7,2.3,44.7
						s13.7,18,41.1-6.2c0,0-6.5-12.3-5.2-16.1c1.3-3.7,8.7-17.4,8.7-17.4s3.7-19.8,12.4-19.8C498.5,213.3,478.7,204.7,475,201z"/>
				</defs>
				<clipPath id="SVGID_148_">
					<use xlink:href="#SVGID_147_"  style="overflow:visible;"/>
				</clipPath>
				<g class="st99">
					<g>
						<path class="st93" d="M474.6,264.8c1.7,0.4,3.4,0.8,5.1,1.2c0.2,0,0.4-0.3,0.1-0.4c-1.7-0.3-3.4-0.6-5.1-1.2
							C474.5,264.3,474.4,264.7,474.6,264.8L474.6,264.8z"/>
					</g>
				</g>
			</g>
			<g>
				<defs>
					<path id="SVGID_149_" d="M475,201c0,0-12.4,8.7-23.5,0c0,0-3.4-0.4-7.3,2.3c-4.6,3.3-5,15.5-5,24.8c0,17.4,2.3,44.7,2.3,44.7
						s13.7,18,41.1-6.2c0,0-6.5-12.3-5.2-16.1c1.3-3.7,8.7-17.4,8.7-17.4s3.7-19.8,12.4-19.8C498.5,213.3,478.7,204.7,475,201z"/>
				</defs>
				<clipPath id="SVGID_150_">
					<use xlink:href="#SVGID_149_"  style="overflow:visible;"/>
				</clipPath>
				<g class="st100">
					<g>
						<path class="st93" d="M477.2,263.3c1.6,0.3,3.2,0.7,4.8,1.1c0.2,0.1,0.3-0.3,0.1-0.4c-1.6-0.3-3.2-0.7-4.8-1.1
							C477,262.9,476.9,263.3,477.2,263.3L477.2,263.3z"/>
					</g>
				</g>
			</g>
			<g>
				<defs>
					<path id="SVGID_151_" d="M475,201c0,0-12.4,8.7-23.5,0c0,0-3.4-0.4-7.3,2.3c-4.6,3.3-5,15.5-5,24.8c0,17.4,2.3,44.7,2.3,44.7
						s13.7,18,41.1-6.2c0,0-6.5-12.3-5.2-16.1c1.3-3.7,8.7-17.4,8.7-17.4s3.7-19.8,12.4-19.8C498.5,213.3,478.7,204.7,475,201z"/>
				</defs>
				<clipPath id="SVGID_152_">
					<use xlink:href="#SVGID_151_"  style="overflow:visible;"/>
				</clipPath>
				<g class="st101">
					<g>
						<path class="st93" d="M485.8,234c-1.3-1.3-2.2-2.9-3-4.4c-0.1-0.2-0.4,0-0.3,0.2c0.7,1.7,1.8,3.3,3.1,4.6
							C485.7,234.5,486,234.2,485.8,234L485.8,234z"/>
					</g>
				</g>
			</g>
			<g>
				<defs>
					<path id="SVGID_153_" d="M475,201c0,0-12.4,8.7-23.5,0c0,0-3.4-0.4-7.3,2.3c-4.6,3.3-5,15.5-5,24.8c0,17.4,2.3,44.7,2.3,44.7
						s13.7,18,41.1-6.2c0,0-6.5-12.3-5.2-16.1c1.3-3.7,8.7-17.4,8.7-17.4s3.7-19.8,12.4-19.8C498.5,213.3,478.7,204.7,475,201z"/>
				</defs>
				<clipPath id="SVGID_154_">
					<use xlink:href="#SVGID_153_"  style="overflow:visible;"/>
				</clipPath>
				<g class="st102">
					<g>
						<path class="st93" d="M483.4,234.7c-0.3-0.2-0.7-0.5-1.1-0.7c-0.2-0.1-0.4,0.2-0.2,0.3c0.3,0.2,0.7,0.5,1.1,0.7
							C483.4,235.3,483.6,235,483.4,234.7L483.4,234.7z"/>
					</g>
				</g>
			</g>
		</g>
		<path class="st13" d="M444.8,158.7c0,0,3.3,4.4,8.3,0c0,0,2.8,5,8.3,2.2c0,0,1.7,5.5,6,3.8c0,0,1.7,13.8,6.6,8.8
			c5-5-6.6-23.6-6.6-23.6h-12.7l-9.8,1.1C444.8,151.1,442.6,156,444.8,158.7z"/>
		<g>
			<g>
				<path class="st91" d="M460.8,177.3c-1.1,0.1-2.1-0.3-3-1.1s-1.3-1.9-1.4-3.1l0,0c-0.2-2.4,1.5-4.6,3.7-4.7
					c1.1-0.1,2.1,0.3,3,1.1c0.8,0.7,1.3,1.9,1.4,3.1c0.2,2.3-1.4,4.3-3.4,4.7C460.9,177.3,460.8,177.3,460.8,177.3z M456.7,173.1
					c0.1,1.2,0.5,2.1,1.4,2.9c0.7,0.7,1.8,1.1,2.8,1.1c2.1-0.1,3.6-2.1,3.5-4.4c-0.1-1.2-0.5-2.1-1.4-2.9c-0.7-0.7-1.8-1.1-2.8-1.1
					c-0.1,0-0.2,0-0.2,0C458,169,456.5,170.9,456.7,173.1z"/>
			</g>
			<g>
				<path class="st91" d="M450.2,176c-2.2,0.2-4.1-1.7-4.3-4.1l0,0c-0.2-2.4,1.5-4.6,3.7-4.7c2.2-0.2,4.1,1.7,4.3,4.1
					c0.1,1.2-0.2,2.3-1,3.2c-0.6,0.8-1.5,1.4-2.4,1.5C450.5,176,450.3,176,450.2,176z M446.2,171.9L446.2,171.9c0.2,2.3,2,4,4.1,3.9
					c1-0.1,1.9-0.5,2.5-1.4c0.6-0.8,1-1.9,0.8-3.1c-0.2-2.3-2-4-4.1-3.9c-0.1,0-0.2,0-0.2,0C447.5,167.7,446,169.6,446.2,171.9z"/>
			</g>
			<g>
				<polygon class="st91" points="475.3,173.9 475.3,173.7 464.1,173 464.1,173.2 				"/>
			</g>
			<g>
				<path class="st91" d="M456.6,172.1l0.2-0.1c0,0-1.2-1.4-3-0.3l0.1,0.2C455.5,170.8,456.5,172.1,456.6,172.1z"/>
			</g>
			<g>
				<polygon class="st91" points="447.6,171 447.6,170.8 446.2,170.5 446.1,170.7 				"/>
			</g>
		</g>
		<g>
			<path class="st13" d="M465.3,170.5c0-2.2-1.6-4-3.7-4.6c-0.3-0.1-0.2-0.6,0.1-0.5c2.4,0.6,4.2,2.6,4.1,5.2
				C465.7,170.8,465.3,170.8,465.3,170.5L465.3,170.5z"/>
		</g>
		<g>
			<path class="st13" d="M452,164.7c-1.6-0.3-3,0.6-3.6,2c-0.1,0.2-0.4,0.1-0.3-0.1c0.7-1.5,2.2-2.5,3.9-2.2
				C452.4,164.3,452.3,164.8,452,164.7L452,164.7z"/>
		</g>
		<g>
			<path class="st32" d="M455.1,172.2c-0.6,1.2-1.2,2.3-1.8,3.6c-0.3,0.6-0.7,1.4-0.8,2c-0.3,1.2,1.9,1.5,2.8,1.3
				c0.3-0.1,0.3,0.3,0.1,0.4c-1,0.2-2.3-0.1-3.1-0.8c-0.5-0.5-0.1-1.2,0.1-1.8c0.7-1.7,1.6-3.3,2.3-4.9
				C454.9,171.8,455.2,171.9,455.1,172.2L455.1,172.2z"/>
		</g>
		
			<ellipse transform="matrix(0.1551 -0.9879 0.9879 0.1551 210.4031 589.103)" class="st33" cx="449.6" cy="171.5" rx="0.6" ry="0.5"/>
		
			<ellipse transform="matrix(0.1551 -0.9879 0.9879 0.1551 217.1555 599.2277)" class="st33" cx="458.9" cy="172.7" rx="0.6" ry="0.5"/>
		<g>
			<path class="st33" d="M460.2,183.7c-0.2,0.6-0.6,1.2-1.2,1.6c-1.1,0.8-2.4,1-3.7,0.6c-0.2-0.1-0.1-0.4,0.1-0.3
				c1.8,0.4,3.7-0.1,4.4-2C460,183.4,460.3,183.5,460.2,183.7L460.2,183.7z"/>
		</g>
		
			<ellipse transform="matrix(0.387 -0.9221 0.9221 0.387 129.0329 546.2933)" class="st80" cx="475.4" cy="176.1" rx="3.9" ry="2.8"/>
		<g class="st78">
			<g>
				<path class="st79" d="M457,309.6c3.5,1.7,7.1,3.2,10.8,4.6c0.2,0.1,0.3-0.3,0.1-0.4c-3.7-1.3-7.2-2.9-10.7-4.6
					C457,309.1,456.8,309.5,457,309.6L457,309.6z"/>
			</g>
		</g>
		<g class="st78">
			<g>
				<path class="st79" d="M457.6,306.5c4.3,2.2,8.7,4.3,13.2,6.2c0.2,0.1,0.4-0.2,0.2-0.3c-4.4-1.9-8.9-4-13.2-6.2
					C457.5,306,457.3,306.4,457.6,306.5L457.6,306.5z"/>
			</g>
		</g>
		<g class="st78">
			<g>
				<path class="st79" d="M453.7,279.8c0.4,6.4,1.5,22.5,10.6,22.2c0.2,0,0.3-0.4,0-0.4c-8.5,0.3-9.7-16-10.2-21.8
					C454,279.6,453.7,279.6,453.7,279.8L453.7,279.8z"/>
			</g>
		</g>
		<g class="st78">
			<g>
				<path class="st79" d="M440.1,278.7c10.7,5.5,23.2,5.1,33.5-1.3c0.2-0.1,0-0.5-0.2-0.3c-10.2,6.2-22.4,6.8-33,1.3
					C440.1,278.2,439.9,278.6,440.1,278.7L440.1,278.7z"/>
			</g>
		</g>
		<g class="st78">
			<g>
				<path class="st79" d="M437.3,297.1c7.6,1.7,11.6-5.9,12.4-12.3c0-0.2-0.4-0.2-0.4,0c-0.7,6-4.6,13.6-11.9,11.9
					C437.2,296.7,437.1,297,437.3,297.1L437.3,297.1z"/>
			</g>
		</g>
		<g class="st78">
			<g>
				<path class="st79" d="M458.4,310.9c-0.6,1.6-1.3,3.2-1.9,4.7c-0.1,0.2,0.3,0.3,0.4,0.1c0.6-1.6,1.3-3.2,1.9-4.7
					C458.8,310.7,458.4,310.6,458.4,310.9L458.4,310.9z"/>
			</g>
		</g>
		<g class="st78">
			<g>
				<path class="st79" d="M454.5,322.5c-1.2,5.1-2.3,10.2-3.5,15.2c-1,4.1-2.6,8.7-3,13c-0.2,3.6,1.5,6.9,2.6,10.2
					c1.6,4.2,3.3,8.6,5,12.7c6.9,16.9,14.8,33.3,23.7,49.3c0.1,0.2,0.5,0,0.3-0.2c-8.6-15.3-16.3-31.1-23-47.4
					c-1.5-3.6-3-7.2-4.3-10.9c-1.9-5.1-4.4-10-3.7-15.5c1.2-8.8,4.1-17.8,6.1-26.5C454.9,322.4,454.6,322.3,454.5,322.5L454.5,322.5
					z"/>
			</g>
		</g>
		<g class="st78">
			<g>
				<path class="st79" d="M466.9,429.1c7,0.5,12.6-4.7,12.8-11.6c0-0.3-0.4-0.3-0.4,0c-0.2,6.8-5.7,11.8-12.4,11.2
					C466.5,428.7,466.5,429.1,466.9,429.1L466.9,429.1z"/>
			</g>
		</g>
	</g>
	<g>
		<g>
			<g>
				<path id="XMLID_4_" class="st10" d="M255.3,425.4l-10.1,9.7c0,0,1.7,4.3-7.7,11.5c0,0-22.7-33.3-21.2-34.3
					c1.6-1,13.9,9.6,13.9,9.6l9.1,3.9l9.5-10.6L255.3,425.4z"/>
			</g>
			<g>
				<defs>
					<path id="SVGID_155_" d="M255.3,425.4l-10.1,9.7c0,0,1.7,4.3-7.7,11.5c0,0-22.7-33.3-21.2-34.3c1.6-1,13.9,9.6,13.9,9.6
						l9.1,3.9l9.5-10.6L255.3,425.4z"/>
				</defs>
				<clipPath id="SVGID_156_">
					<use xlink:href="#SVGID_155_"  style="overflow:visible;"/>
				</clipPath>
				<path class="st103" d="M246.6,436c-0.3-1.2-0.4-1.7-5.8-0.8c-5.3,0.8,0.4-9.4-2-11.1s-23.6-14.2-23.6-14.2l-1.8,5.2l24.3,34.6
					C237.7,449.5,247.9,442.2,246.6,436z"/>
			</g>
		</g>
		<g>
			<g>
				<path id="XMLID_17_" class="st31" d="M345.9,355.5c0,0-34.8,21.1-43.1,22.9c0,0-21.1,29.3-48.6,48.6l-10.1-10.1
					c0,0,42.1-65,54.9-67.8C312,346.4,344.1,351,345.9,355.5z"/>
			</g>
			<g>
				<defs>
					<path id="SVGID_157_" d="M345.9,355.5c0,0-34.8,21.1-43.1,22.9c0,0-21.1,29.3-48.6,48.6l-10.1-10.1c0,0,42.1-65,54.9-67.8
						C312,346.4,344.1,351,345.9,355.5z"/>
				</defs>
				<clipPath id="SVGID_158_">
					<use xlink:href="#SVGID_157_"  style="overflow:visible;"/>
				</clipPath>
				<path class="st104" d="M339.9,362c0,0-32.4,0-35.1-1.1c-2.8-1.1,9.3,10.5,9.8,20.3c0.5,9.8-27.4,22.5-27.4,22.5
					s-14.3-44.5-11-46.7C279.5,354.9,331.1,348.9,339.9,362z"/>
			</g>
			<g>
				<defs>
					<path id="SVGID_159_" d="M345.9,355.5c0,0-34.8,21.1-43.1,22.9c0,0-21.1,29.3-48.6,48.6l-10.1-10.1c0,0,42.1-65,54.9-67.8
						C312,346.4,344.1,351,345.9,355.5z"/>
				</defs>
				<clipPath id="SVGID_160_">
					<use xlink:href="#SVGID_159_"  style="overflow:visible;"/>
				</clipPath>
				<g class="st105">
					<g>
						<path class="st106" d="M264.3,378.5c1.1,0,1.1-1.7,0-1.7C263.3,376.8,263.3,378.5,264.3,378.5L264.3,378.5z"/>
					</g>
				</g>
			</g>
			<g>
				<defs>
					<path id="SVGID_161_" d="M345.9,355.5c0,0-34.8,21.1-43.1,22.9c0,0-21.1,29.3-48.6,48.6l-10.1-10.1c0,0,42.1-65,54.9-67.8
						C312,346.4,344.1,351,345.9,355.5z"/>
				</defs>
				<clipPath id="SVGID_162_">
					<use xlink:href="#SVGID_161_"  style="overflow:visible;"/>
				</clipPath>
				<g class="st107">
					<g>
						<path class="st106" d="M242.3,413.3c0.8-1,24.8,19.3,27.1,21.2c0.2,0.2,0.5-0.1,0.3-0.3c-5.2-4.2-10.4-8.5-15.6-12.6
							c-3.3-2.6-7.5-7.7-11.5-8.9c-0.1,0-0.1,0-0.2,0.1s-0.2,0.2-0.3,0.4C241.9,413.2,242.1,413.5,242.3,413.3L242.3,413.3z"/>
					</g>
				</g>
			</g>
			<g>
				<defs>
					<path id="SVGID_163_" d="M345.9,355.5c0,0-34.8,21.1-43.1,22.9c0,0-21.1,29.3-48.6,48.6l-10.1-10.1c0,0,42.1-65,54.9-67.8
						C312,346.4,344.1,351,345.9,355.5z"/>
				</defs>
				<clipPath id="SVGID_164_">
					<use xlink:href="#SVGID_163_"  style="overflow:visible;"/>
				</clipPath>
				<g class="st108">
					<g>
						<path class="st106" d="M245.2,412.4c-0.4,2.8,5.4,5.4,7,6.7c4.7,3.8,8.8,8.3,12.5,13c0.2,0.2,0.5,0,0.3-0.2
							c-2.6-3.4-5.4-6.6-8.6-9.5c-1.4-1.4-11.2-8-10.9-9.8C245.6,412.2,245.2,412.1,245.2,412.4L245.2,412.4z"/>
					</g>
				</g>
			</g>
		</g>
		<g>
			<g>
				<path id="XMLID_3_" class="st10" d="M316.5,419.7l2.8,13.8c0,0,4.6,1,5.5,12.8c0,0-40.3,1-40.3-1c0-1.8,15.6-6.5,15.6-6.5
					l8.3-5.5l-3.7-13.8h12V419.7z"/>
			</g>
			<g>
				<defs>
					<path id="SVGID_165_" d="M316.5,419.7l2.8,13.8c0,0,4.6,1,5.5,12.8c0,0-40.3,1-40.3-1c0-1.8,15.6-6.5,15.6-6.5l8.3-5.5
						l-3.7-13.8h12V419.7z"/>
				</defs>
				<clipPath id="SVGID_166_">
					<use xlink:href="#SVGID_165_"  style="overflow:visible;"/>
				</clipPath>
				<path class="st109" d="M320.7,432.9c-1.2-0.4-1.7-0.5-3.8,4.4c-2.2,5-7.7-5.5-10.5-4.4c-2.8,1.1-24.8,12.1-24.8,12.1l3.3,4.4
					l42.3-1.7C327.2,447.7,326.7,435,320.7,432.9z"/>
			</g>
		</g>
		<path class="st79" d="M377,255.7l2.8,1.8c0,0,10.1,0,18.3,3.7c0,0,0,74.2-7.3,83.3c0,0-41.2-1.8-57.7-17.4c0,0,9.2-66,13.8-68.7
			s21.1-1,21.1-1L377,255.7z"/>
		<g>
			<g>
				<path id="XMLID_18_" class="st31" d="M391.8,342.8c0,0-0.1,24.7-90.7,15.5c0,0,13.8,22,18.3,63.2l-16.5,3.7
					c0,0-30.8-62.5-25.9-89.1c0.2-1,1-1.7,1.8-1.9c7.4-1.5,40.8-7.8,62.6-7C366.1,328.1,391.8,342.8,391.8,342.8z"/>
			</g>
			<g>
				<defs>
					<path id="SVGID_167_" d="M391.8,342.8c0,0-0.1,24.7-90.7,15.5c0,0,13.8,22,18.3,63.2l-16.5,3.7c0,0-30.8-62.5-25.9-89.1
						c0.2-1,1-1.7,1.8-1.9c7.4-1.5,40.8-7.8,62.6-7C366.1,328.1,391.8,342.8,391.8,342.8z"/>
				</defs>
				<clipPath id="SVGID_168_">
					<use xlink:href="#SVGID_167_"  style="overflow:visible;"/>
				</clipPath>
				<g class="st110">
					<g>
						<path class="st111" d="M321.4,395.5c-0.3-0.1-0.7-0.2-1.1-0.3c-1.1-0.2-1.5,1.4-0.4,1.6c0.3,0.1,0.7,0.2,1.1,0.3
							C322,397.4,322.5,395.9,321.4,395.5L321.4,395.5z"/>
					</g>
				</g>
			</g>
			<g>
				<defs>
					<path id="SVGID_169_" d="M391.8,342.8c0,0-0.1,24.7-90.7,15.5c0,0,13.8,22,18.3,63.2l-16.5,3.7c0,0-30.8-62.5-25.9-89.1
						c0.2-1,1-1.7,1.8-1.9c7.4-1.5,40.8-7.8,62.6-7C366.1,328.1,391.8,342.8,391.8,342.8z"/>
				</defs>
				<clipPath id="SVGID_170_">
					<use xlink:href="#SVGID_169_"  style="overflow:visible;"/>
				</clipPath>
				<g class="st112">
					<g>
						<path class="st111" d="M300.4,421.6c8.8-2.6,17.7-5,26.6-7c0.2-0.1,0.1-0.4-0.1-0.4c-9,2-17.8,4.3-26.6,7
							C300.1,421.3,300.2,421.7,300.4,421.6L300.4,421.6z"/>
					</g>
				</g>
			</g>
			<g>
				<defs>
					<path id="SVGID_171_" d="M391.8,342.8c0,0-0.1,24.7-90.7,15.5c0,0,13.8,22,18.3,63.2l-16.5,3.7c0,0-30.8-62.5-25.9-89.1
						c0.2-1,1-1.7,1.8-1.9c7.4-1.5,40.8-7.8,62.6-7C366.1,328.1,391.8,342.8,391.8,342.8z"/>
				</defs>
				<clipPath id="SVGID_172_">
					<use xlink:href="#SVGID_171_"  style="overflow:visible;"/>
				</clipPath>
				<g class="st113">
					<g>
						<path class="st111" d="M337.7,327.6c3.6,1,7.2,1.8,10.7,2.8c0.2,0.1,0.3-0.3,0.1-0.4c-3.6-1-7.2-1.8-10.7-2.8
							C337.5,327.2,337.4,327.6,337.7,327.6L337.7,327.6z"/>
					</g>
				</g>
			</g>
			<g>
				<defs>
					<path id="SVGID_173_" d="M391.8,342.8c0,0-0.1,24.7-90.7,15.5c0,0,13.8,22,18.3,63.2l-16.5,3.7c0,0-30.8-62.5-25.9-89.1
						c0.2-1,1-1.7,1.8-1.9c7.4-1.5,40.8-7.8,62.6-7C366.1,328.1,391.8,342.8,391.8,342.8z"/>
				</defs>
				<clipPath id="SVGID_174_">
					<use xlink:href="#SVGID_173_"  style="overflow:visible;"/>
				</clipPath>
				<g class="st114">
					<g>
						<path class="st111" d="M343.1,332.2c1.3,0.3,2.5,0.7,3.8,1.1c0.2,0.1,0.3-0.3,0.1-0.4c-1.3-0.3-2.5-0.7-3.8-1.1
							C343,331.8,342.9,332.2,343.1,332.2L343.1,332.2z"/>
					</g>
				</g>
			</g>
			<g>
				<defs>
					<path id="SVGID_175_" d="M391.8,342.8c0,0-0.1,24.7-90.7,15.5c0,0,13.8,22,18.3,63.2l-16.5,3.7c0,0-30.8-62.5-25.9-89.1
						c0.2-1,1-1.7,1.8-1.9c7.4-1.5,40.8-7.8,62.6-7C366.1,328.1,391.8,342.8,391.8,342.8z"/>
				</defs>
				<clipPath id="SVGID_176_">
					<use xlink:href="#SVGID_175_"  style="overflow:visible;"/>
				</clipPath>
				<g class="st115">
					<g>
						<path class="st111" d="M346,328.2c21.2,1.7,40.4,13,52.1,30.8c0.1,0.2,0.5,0,0.3-0.2c-11.8-17.9-31.1-29.4-52.5-31
							C345.6,327.8,345.6,328.2,346,328.2L346,328.2z"/>
					</g>
				</g>
			</g>
			<g>
				<defs>
					<path id="SVGID_177_" d="M391.8,342.8c0,0-0.1,24.7-90.7,15.5c0,0,13.8,22,18.3,63.2l-16.5,3.7c0,0-30.8-62.5-25.9-89.1
						c0.2-1,1-1.7,1.8-1.9c7.4-1.5,40.8-7.8,62.6-7C366.1,328.1,391.8,342.8,391.8,342.8z"/>
				</defs>
				<clipPath id="SVGID_178_">
					<use xlink:href="#SVGID_177_"  style="overflow:visible;"/>
				</clipPath>
				<g class="st116">
					<g>
						<path class="st111" d="M383.5,338c-8.7,2.6-17.9,6-24,13.1c-2.8,3.2-6.5,11.4,0.7,11.9c0.3,0,0.2-0.4,0-0.4
							c-1-2.6-1.8-5.4-2.8-8c0.3-0.4,0.6-0.8,0.8-1.4c0.6-1.4,2.4-3,3.6-4c2.1-1.9,4.4-3.6,6.9-5c4.7-2.5,9.6-4.3,14.7-5.8
							C383.9,338.3,383.8,337.8,383.5,338L383.5,338z"/>
					</g>
				</g>
			</g>
			<g>
				<defs>
					<path id="SVGID_179_" d="M391.8,342.8c0,0-0.1,24.7-90.7,15.5c0,0,13.8,22,18.3,63.2l-16.5,3.7c0,0-30.8-62.5-25.9-89.1
						c0.2-1,1-1.7,1.8-1.9c7.4-1.5,40.8-7.8,62.6-7C366.1,328.1,391.8,342.8,391.8,342.8z"/>
				</defs>
				<clipPath id="SVGID_180_">
					<use xlink:href="#SVGID_179_"  style="overflow:visible;"/>
				</clipPath>
				<g class="st117">
					<g>
						<path class="st111" d="M368.3,341.4c5.2,3.9,10.6,8,12.9,14.4c0.1,0.2,0.5,0.1,0.4-0.1c-2.3-6.5-7.7-10.7-13.1-14.6
							C368.3,340.9,368.1,341.2,368.3,341.4L368.3,341.4z"/>
					</g>
				</g>
			</g>
			<g>
				<defs>
					<path id="SVGID_181_" d="M391.8,342.8c0,0-0.1,24.7-90.7,15.5c0,0,13.8,22,18.3,63.2l-16.5,3.7c0,0-30.8-62.5-25.9-89.1
						c0.2-1,1-1.7,1.8-1.9c7.4-1.5,40.8-7.8,62.6-7C366.1,328.1,391.8,342.8,391.8,342.8z"/>
				</defs>
				<clipPath id="SVGID_182_">
					<use xlink:href="#SVGID_181_"  style="overflow:visible;"/>
				</clipPath>
				<g class="st118">
					<g>
						<path class="st111" d="M369.5,338.9c5.8,2.9,14.8,7.9,14.4,15.5c0,0.3,0.4,0.2,0.4,0c0.4-7.7-8.7-12.9-14.6-15.8
							C369.5,338.4,369.3,338.7,369.5,338.9L369.5,338.9z"/>
					</g>
				</g>
			</g>
			<g>
				<defs>
					<path id="SVGID_183_" d="M391.8,342.8c0,0-0.1,24.7-90.7,15.5c0,0,13.8,22,18.3,63.2l-16.5,3.7c0,0-30.8-62.5-25.9-89.1
						c0.2-1,1-1.7,1.8-1.9c7.4-1.5,40.8-7.8,62.6-7C366.1,328.1,391.8,342.8,391.8,342.8z"/>
				</defs>
				<clipPath id="SVGID_184_">
					<use xlink:href="#SVGID_183_"  style="overflow:visible;"/>
				</clipPath>
				<g class="st119">
					<g>
						<path class="st111" d="M301.8,356c-1.1-1.6-1.8-3.2-2.3-5c-0.1-0.2-0.5-0.1-0.4,0.1c0.5,1.8,1.4,3.5,2.4,5.1
							C301.6,356.4,302,356.2,301.8,356L301.8,356z"/>
					</g>
				</g>
			</g>
			<g>
				<defs>
					<path id="SVGID_185_" d="M391.8,342.8c0,0-0.1,24.7-90.7,15.5c0,0,13.8,22,18.3,63.2l-16.5,3.7c0,0-30.8-62.5-25.9-89.1
						c0.2-1,1-1.7,1.8-1.9c7.4-1.5,40.8-7.8,62.6-7C366.1,328.1,391.8,342.8,391.8,342.8z"/>
				</defs>
				<clipPath id="SVGID_186_">
					<use xlink:href="#SVGID_185_"  style="overflow:visible;"/>
				</clipPath>
				<g class="st120">
					<g>
						<path class="st111" d="M299.7,356.9c-1.3-1.1-2.5-2.2-3.9-3.3c-0.2-0.2-0.5,0.1-0.3,0.3c1.3,1.1,2.5,2.2,3.9,3.3
							C299.6,357.3,299.9,357,299.7,356.9L299.7,356.9z"/>
					</g>
				</g>
			</g>
		</g>
		<g>
			<g>
				<path id="XMLID_14_" class="st10" d="M378.9,244l0.8,13.7c0,0-8.3,7.3-14.6,0l1-11.9L378.9,244z"/>
			</g>
			<g>
				<defs>
					<path id="SVGID_187_" d="M378.9,244l0.8,13.7c0,0-8.3,7.3-14.6,0l1-11.9L378.9,244z"/>
				</defs>
				<clipPath id="SVGID_188_">
					<use xlink:href="#SVGID_187_"  style="overflow:visible;"/>
				</clipPath>
				<path class="st121" d="M361.4,252.5c0,0,14.1,1.7,15.8-6.7C378.8,237.7,361.4,252.5,361.4,252.5z"/>
			</g>
		</g>
		<path class="st10" d="M405.9,303.2c0,0-3.5-5.3-7.1-11.8c4.8-5.2,11.8-5.5,14.8-5.4c3.3,8,6.2,16.8,7.6,24.3c0,0-4.4,12.1-50,6.6
			l-3.3-7.1C367.9,309.8,396.5,308.2,405.9,303.2z"/>
		<path class="st79" d="M398.2,294.4c-4.3-7.6-8.3-19.8-7.7-23.6c1.1-7.1,3.3-8.3,3.3-8.3s3.3-3.8,7.7,0.5
			c2.5,2.5,10.4,14.9,14.8,25.8C413.2,288.8,402.9,289.3,398.2,294.4z"/>
		<path class="st122" d="M373.6,313.6l-14.7-36.4c-0.5-1.3-1.7-2-3-2h-62.1c-1.6,0-2.8,1.7-2.1,3.2l16.9,39.9h89.8l-0.8-3.2
			L373.6,313.6z"/>
		<path class="st80" d="M401.9,262.7c0,0-1.5-1-2.8-1.5c-1.3-0.5-2.9-3.4-4.6-2c0,0-3.3-1.5-3.7,0.3c-0.4,1.9-1.9,5.1-0.5,6.9
			C391.8,268.1,398.6,266,401.9,262.7z"/>
		<path class="st10" d="M358.6,215.9c0,0-10.4,30.3,3.8,34.1c14.2,3.8,20.4-10.4,20.4-10.4l0.1-20.2L358.6,215.9z"/>
		<path class="st123" d="M377.8,246.9c0,0,22-9.7,13.7-23.9c0,0,1.2-10.5-10.7-12.7c0,0-14.6-14.4-14.7-4.1c0,0-11.9-5.2-10,5.4
			c0,0-10.6,0-1.9,8.2c0,0,10.4,9.2,25.3,4.1c0,0-5.1,5.7-2.6,12.6C376.9,236.5,375.3,243.1,377.8,246.9z"/>
		
			<ellipse transform="matrix(0.4584 -0.8888 0.8888 0.4584 -6.1561 466.8325)" class="st10" cx="379.9" cy="238.5" rx="4.8" ry="3.9"/>
		<g>
			<path class="st123" d="M380.7,222.9c0,0.2-0.1,0.3-0.1,0.4c0,0.1-0.1,0.2-0.2,0.3c-0.1,0.2-0.2,0.3-0.4,0.4
				c-0.3,0.3-0.6,0.4-1,0.6c-0.6,0.3-1.3,0.6-1.9,0.7c-1.3,0.4-2.6,0.6-4,0.8c-0.6,0.1-1.4,0.2-2,0.2c-0.6,0.1-1.4,0.1-2,0.1
				c-1.4,0.1-2.6,0.1-4,0.1c1.4-0.1,2.6-0.2,4-0.4c0.6-0.1,1.3-0.2,2-0.3c0.6-0.1,1.3-0.2,2-0.3c1.3-0.2,2.5-0.6,3.8-1.1
				c0.6-0.2,1.2-0.5,1.7-0.8c0.2-0.2,0.5-0.3,0.6-0.5c0.1-0.1,0.2-0.2,0.2-0.3l0.1-0.1c0,0,0-0.1,0,0L380.7,222.9z"/>
		</g>
		<g>
			<path class="st123" d="M390.3,222.5c0.3,0,0.7-0.1,1.2-0.3c0.3-0.2,0.6-0.5,1-1c0.2-0.4,0.4-0.8,0.6-1.3c0.1-0.4,0.2-1,0.3-1.5
				c0,0.5,0,1,0,1.5c-0.1,0.5-0.1,1.1-0.3,1.5c-0.2,0.5-0.5,1-1,1.4c-0.4,0.4-0.8,0.6-1.6,0.8L390.3,222.5z"/>
		</g>
		<g>
			<path class="st123" d="M389.7,221.8c0.2,0.2,0.6,0.5,1,0.6c0.3,0.2,0.7,0.3,1.2,0.4c0.8,0.2,1.7,0,2.4-0.5
				c-0.3,0.3-0.7,0.5-1.2,0.7c-0.4,0.2-0.8,0.3-1.4,0.3s-1,0-1.5-0.2c-0.4-0.1-1-0.3-1.4-0.6L389.7,221.8z"/>
		</g>
		<g>
			<path class="st123" d="M369.5,232.5c-0.3-1.9-2-3.4-3.9-3.5c-0.3,0-0.3-0.4,0-0.4c2.2,0.2,4.1,1.7,4.4,3.9
				C370,232.8,369.6,232.8,369.5,232.5L369.5,232.5z"/>
		</g>
		<g>
			<path class="st123" d="M359.6,228c-1.4-0.4-2.6,0.2-3.4,1.4c-0.1,0.2-0.4,0-0.3-0.1c0.8-1.3,2.3-2,3.8-1.5
				C359.8,227.8,359.8,228,359.6,228L359.6,228z"/>
		</g>
		<g>
			<path class="st32" d="M362,233.8c-0.6,1-1.4,1.9-2,3c-0.3,0.5-0.8,1.1-1.1,1.7c-0.4,1.1,1.5,1.6,2.2,1.5c0.2,0,0.2,0.3,0,0.4
				c-0.8,0.1-2.1-0.3-2.5-1.2c-0.3-0.5,0-1.1,0.3-1.6c0.8-1.4,1.8-2.6,2.8-4C361.7,233.5,362.1,233.6,362,233.8L362,233.8z"/>
		</g>
		<ellipse transform="matrix(0.3822 -0.9241 0.9241 0.3822 8.5602 483.6837)" class="st33" cx="366" cy="235.4" rx="0.6" ry="0.4"/>
		
			<ellipse transform="matrix(0.4852 -0.8744 0.8744 0.4852 -19.7411 432.6454)" class="st33" cx="357.6" cy="233.1" rx="0.6" ry="0.4"/>
		<g>
			<path class="st33" d="M365.8,242.9c-0.4,0.6-1.1,1.3-1.8,1.7c-1.5,0.8-3.2,0.6-4.7,0c-0.3-0.1,0-0.5,0.2-0.4
				c2.1,1,4.6,0.5,5.8-1.5C365.6,242.5,366,242.7,365.8,242.9L365.8,242.9z"/>
		</g>
		<g>
			<g>
				<path class="st124" d="M396.7,291.1c-0.6-0.6-1.3-1.2-1.9-1.8c-0.2-0.2-0.5,0.1-0.3,0.3c0.6,0.6,1.3,1.2,1.9,1.8
					C396.6,291.5,396.8,291.2,396.7,291.1L396.7,291.1z"/>
			</g>
		</g>
		<g>
			<g>
				<path class="st124" d="M394.8,292.2c-1.4-0.8-2.6-1.7-4-2.6c-0.2-0.1-0.4,0.2-0.2,0.3c1.4,0.8,2.6,1.7,4,2.6
					C394.9,292.8,395.1,292.3,394.8,292.2L394.8,292.2z"/>
			</g>
		</g>
		<g>
			<g>
				<path class="st124" d="M357.8,328.1c12,1.3,23.2,4.9,33.7,10.8c0.2,0.1,0.4-0.2,0.2-0.3c-10.5-5.9-21.9-9.5-33.9-10.8
					C357.5,327.6,357.5,328,357.8,328.1L357.8,328.1z"/>
			</g>
		</g>
		<g>
			<g>
				<path class="st124" d="M363.1,258.6c2,2.4,4.8,4.7,8,5c3.6,0.2,6.7-1.8,9.5-3.6c0.2-0.1,0-0.5-0.2-0.3c-2.9,1.8-5.8,3.8-9.3,3.5
					c-3.3-0.2-5.8-2.3-7.8-4.8C363.3,258,363,258.3,363.1,258.6L363.1,258.6z"/>
			</g>
		</g>
		<g>
			<g>
				<path class="st124" d="M399.1,291.7c3.4-4.2,9.8-4.1,14.7-4.3c0.2,0,0.3-0.4,0-0.4c-5,0.2-11.5,0.2-15,4.4
					C398.7,291.6,398.9,291.9,399.1,291.7L399.1,291.7z"/>
			</g>
		</g>
	</g>
	<g>
		<g>
			<g>
				<path id="XMLID_22_" class="st125" d="M82.1,238.6l-4,2.5l2.9-5.2c-3.4-7.2-6.8-10.6-6.8-10.6c-6,14.9-7.2,29-6.2,40.8l6.4,3.6
					l-6-0.4c2.1,18.3,8.9,30.5,8.9,30.5l5.7,0.4C90.8,270.5,86.9,250.4,82.1,238.6z"/>
			</g>
			<g>
				<defs>
					<path id="SVGID_189_" d="M82.1,238.6l-4,2.5l2.9-5.2c-3.4-7.2-6.8-10.6-6.8-10.6c-6,14.9-7.2,29-6.2,40.8l6.4,3.6l-6-0.4
						c2.1,18.3,8.9,30.5,8.9,30.5l5.7,0.4C90.8,270.5,86.9,250.4,82.1,238.6z"/>
				</defs>
				<clipPath id="SVGID_190_">
					<use xlink:href="#SVGID_189_"  style="overflow:visible;"/>
				</clipPath>
				<g class="st126">
					<g>
						<path class="st127" d="M74.6,237.7c0.7,18.3,2.2,36.5,4.7,54.6c0.7,5.2,1.5,10.3,2.3,15.5c0,0.2,0.4,0.1,0.3-0.1
							c-2.9-18-5-36-6.1-54.2c-0.3-5.3-0.6-10.5-0.8-15.8C75,237.5,74.6,237.5,74.6,237.7L74.6,237.7z"/>
					</g>
					<g>
						<path class="st127" d="M75.9,255.6c2.1-2.5,4.3-4.9,6.7-7.1c0.2-0.1-0.1-0.4-0.2-0.3c-2.4,2.2-4.7,4.7-6.8,7.2
							C75.5,255.5,75.8,255.7,75.9,255.6L75.9,255.6z"/>
					</g>
					<g>
						<path class="st127" d="M78.8,283.5c2.1-3,4.1-5.9,6-8.9c0.1-0.2-0.2-0.4-0.3-0.2c-1.9,3.1-3.9,6-6,8.9
							C78.4,283.5,78.7,283.6,78.8,283.5L78.8,283.5z"/>
					</g>
					<g>
						<path class="st127" d="M77,266.8c1.6-2.1,3.2-4.1,5-6c0.1-0.2-0.1-0.4-0.2-0.3c-1.8,1.9-3.5,3.9-5.1,6.1
							C76.6,266.8,76.9,267,77,266.8L77,266.8z"/>
					</g>
					<g>
						<path class="st127" d="M75.3,246.7c-1.7-1-3.4-1.8-5.1-2.8c-0.2-0.1-0.4,0.2-0.2,0.3c1.7,1,3.4,1.8,5.1,2.8
							C75.3,247,75.5,246.8,75.3,246.7L75.3,246.7z"/>
					</g>
					<g>
						<path class="st127" d="M76.3,262.6c-2-1.2-3.9-2.2-5.9-3.4c-0.2-0.1-0.4,0.2-0.2,0.3c2,1.2,3.9,2.2,5.9,3.4
							C76.3,262.9,76.4,262.7,76.3,262.6L76.3,262.6z"/>
					</g>
					<g>
						<path class="st127" d="M79.8,293.3c-1.6-1-3.3-1.7-5.1-2.3c-0.2-0.1-0.3,0.2-0.1,0.3c1.8,0.6,3.4,1.4,5.1,2.3
							C79.8,293.7,80,293.5,79.8,293.3L79.8,293.3z"/>
					</g>
					<g>
						<path class="st127" d="M77.8,278c-3.2-1.2-6.2-2.6-9.2-4.3c-0.2-0.1-0.4,0.2-0.2,0.3c3,1.7,6.1,3.2,9.3,4.4
							C77.9,278.5,78,278.1,77.8,278L77.8,278z"/>
					</g>
				</g>
			</g>
		</g>
		<g>
			<g>
				<path id="XMLID_20_" class="st128" d="M63.7,254.5l-2.4,3.2l0.7-5c-4.8-4.7-8.4-6.4-8.4-6.4c-0.4,13.6,2.8,25,7,34l6,1l-4.9,1.4
					c7,13.9,15.9,21.5,15.9,21.5l4.7-1.4C79.9,277.2,70.9,262.5,63.7,254.5z"/>
			</g>
			<g>
				<defs>
					<path id="SVGID_191_" d="M63.7,254.5l-2.4,3.2l0.7-5c-4.8-4.7-8.4-6.4-8.4-6.4c-0.4,13.6,2.8,25,7,34l6,1l-4.9,1.4
						c7,13.9,15.9,21.5,15.9,21.5l4.7-1.4C79.9,277.2,70.9,262.5,63.7,254.5z"/>
				</defs>
				<clipPath id="SVGID_192_">
					<use xlink:href="#SVGID_191_"  style="overflow:visible;"/>
				</clipPath>
				<g class="st129">
					<g>
						<path class="st127" d="M57.6,256c5.8,14.2,12.4,28.2,19.6,41.7c2,3.9,4.1,7.7,6.4,11.5c0.1,0.2,0.3,0,0.2-0.1
							c-7.5-13.3-14.4-27-20.6-41c-1.8-4-3.6-8.2-5.3-12.2C57.8,255.7,57.6,255.8,57.6,256L57.6,256z"/>
					</g>
					<g>
						<path class="st127" d="M63.8,269.7c1-2.5,2-5.1,3.2-7.5c0.1-0.2-0.2-0.3-0.2-0.1c-1.3,2.4-2.3,5-3.3,7.6
							C63.5,269.8,63.7,269.9,63.8,269.7L63.8,269.7z"/>
					</g>
					<g>
						<path class="st127" d="M74.2,291c0.7-3,1.5-5.8,2.1-8.8c0-0.2-0.2-0.2-0.3-0.1c-0.6,3-1.4,5.9-2.1,8.8
							C73.9,291.1,74.2,291.2,74.2,291L74.2,291z"/>
					</g>
					<g>
						<path class="st127" d="M68,278.2c0.6-2.1,1.4-4.1,2.1-6.2c0.1-0.2-0.2-0.3-0.2-0.1c-0.8,2-1.6,4.1-2.2,6.2
							C67.7,278.5,68,278.5,68,278.2L68,278.2z"/>
					</g>
					<g>
						<path class="st127" d="M60.8,262.9c-1.6-0.2-3.2-0.4-4.8-0.7c-0.2,0-0.3,0.2-0.1,0.3c1.6,0.2,3.2,0.4,4.8,0.7
							C60.9,263.2,61,262.9,60.8,262.9L60.8,262.9z"/>
					</g>
					<g>
						<path class="st127" d="M66.2,275.1c-1.9-0.3-3.8-0.6-5.6-1c-0.2,0-0.2,0.2-0.1,0.3c1.9,0.3,3.8,0.6,5.6,1
							C66.3,275.5,66.4,275.2,66.2,275.1L66.2,275.1z"/>
					</g>
					<g>
						<path class="st127" d="M77.9,298.4c-1.6-0.2-3.2-0.4-4.8-0.3c-0.2,0-0.2,0.3,0,0.3c1.6,0,3.1,0.1,4.7,0.3
							C78,298.7,78.1,298.4,77.9,298.4L77.9,298.4z"/>
					</g>
					<g>
						<path class="st127" d="M71.9,286.9c-2.9,0-5.7-0.3-8.6-0.7c-0.2,0-0.2,0.2-0.1,0.3c2.9,0.5,5.7,0.7,8.7,0.7
							C72.1,287.2,72.1,286.9,71.9,286.9L71.9,286.9z"/>
					</g>
				</g>
			</g>
		</g>
		<g>
			<g>
				<path id="XMLID_21_" class="st125" d="M101.9,255.9l-3.9,0.3l4.1-2.8c0.3-6.7-1-10.5-1-10.5c-10.3,8.8-16.5,18.8-20.4,28.1
					l3.4,5.2l-4.3-2.6c-5.5,14.5-5.1,26.3-5.1,26.3l4.1,2.5C96,283.2,100.9,266.7,101.9,255.9z"/>
			</g>
			<g>
				<defs>
					<path id="SVGID_193_" d="M101.9,255.9l-3.9,0.3l4.1-2.8c0.3-6.7-1-10.5-1-10.5c-10.3,8.8-16.5,18.8-20.4,28.1l3.4,5.2l-4.3-2.6
						c-5.5,14.5-5.1,26.3-5.1,26.3l4.1,2.5C96,283.2,100.9,266.7,101.9,255.9z"/>
				</defs>
				<clipPath id="SVGID_194_">
					<use xlink:href="#SVGID_193_"  style="overflow:visible;"/>
				</clipPath>
				<g class="st130">
					<g>
						<path class="st127" d="M96.7,252.4c-6.6,13.9-12.4,28.2-17.6,42.7c-1.5,4.1-2.9,8.3-4.2,12.4c-0.1,0.2,0.2,0.3,0.3,0.1
							c4.8-14.5,10.2-28.8,16.3-42.9c1.8-4,3.6-8,5.5-12.1C97,252.4,96.8,252.3,96.7,252.4L96.7,252.4z"/>
					</g>
					<g>
						<path class="st127" d="M90.7,266.3c2.5-1.1,5.1-2,7.7-2.8c0.2-0.1,0.1-0.3-0.1-0.3c-2.6,0.7-5.3,1.7-7.8,2.8
							C90.4,266.1,90.5,266.4,90.7,266.3L90.7,266.3z"/>
					</g>
					<g>
						<path class="st127" d="M82.1,288.3c2.6-1.4,5.3-2.9,7.9-4.3c0.2-0.1,0-0.3-0.1-0.2c-2.6,1.5-5.3,3-7.9,4.3
							C81.7,288.1,81.9,288.4,82.1,288.3L82.1,288.3z"/>
					</g>
					<g>
						<path class="st127" d="M87.2,275.2c2-1,4-1.8,6-2.5c0.2-0.1,0.1-0.3-0.1-0.3c-2.1,0.7-4.1,1.6-6.1,2.6
							C86.9,275,87,275.2,87.2,275.2L87.2,275.2z"/>
					</g>
					<g>
						<path class="st127" d="M93.7,259.4c-1-1.4-1.8-2.6-2.8-4c-0.1-0.1-0.4,0-0.2,0.1c1,1.4,1.8,2.6,2.8,4
							C93.6,259.7,93.8,259.6,93.7,259.4L93.7,259.4z"/>
					</g>
					<g>
						<path class="st127" d="M88.3,271.7c-1.1-1.6-2.1-3.2-3.1-4.8c-0.1-0.2-0.3,0-0.2,0.1c1.1,1.6,2.1,3.2,3.1,4.8
							C88.2,272,88.4,271.8,88.3,271.7L88.3,271.7z"/>
					</g>
					<g>
						<path class="st127" d="M79.1,296c-0.8-1.4-1.8-2.5-3-3.7c-0.1-0.1-0.3,0.1-0.2,0.2c1.1,1.2,2,2.3,2.9,3.6
							C78.9,296.4,79.2,296.2,79.1,296L79.1,296z"/>
					</g>
					<g>
						<path class="st127" d="M83.4,283.9c-1.9-2.1-3.7-4.4-5.2-6.8c-0.1-0.2-0.3,0-0.2,0.1c1.6,2.4,3.3,4.8,5.3,6.9
							C83.3,284.2,83.6,284,83.4,283.9L83.4,283.9z"/>
					</g>
				</g>
			</g>
		</g>
		<g>
			<g>
				<path id="XMLID_23_" class="st7" d="M87.9,317.6H67.1c-1.2,0-2-1-2-2v-16.4c0-1.2,1-2,2-2h20.7c1.2,0,2,1,2,2v16.4
					C89.9,316.7,89,317.6,87.9,317.6z"/>
			</g>
			<g>
				<defs>
					<path id="SVGID_195_" d="M87.9,317.6H67.1c-1.2,0-2-1-2-2v-16.4c0-1.2,1-2,2-2h20.7c1.2,0,2,1,2,2v16.4
						C89.9,316.7,89,317.6,87.9,317.6z"/>
				</defs>
				<clipPath id="SVGID_196_">
					<use xlink:href="#SVGID_195_"  style="overflow:visible;"/>
				</clipPath>
				<path class="st131" d="M96.9,317.6H76.1c-1.2,0-2-1-2-2v-16.4c0-1.2,1-2,2-2h20.7c1.2,0,2,1,2,2v16.4
					C98.9,316.7,97.9,317.6,96.9,317.6z"/>
			</g>
		</g>
	</g>
	<rect x="44.9" y="315.8" class="st7" width="552.6" height="9.8"/>
	<polygon class="st7" points="60,325.8 63,450.7 70.8,450.7 76.8,325.8 	"/>
	<polygon class="st7" points="558.9,325.8 555.9,450.7 548.1,450.7 542.1,325.8 	"/>
</g>
<g id="DESIGNED_BY_FREEPIK">
</g>
</svg>
